<?xml version="1.0" encoding="UTF-8"?>
<svg version="1.1" xmlns="http://www.w3.org/2000/svg" width="1408" height="768">

<path d="M0 0 C0.72316406 0.63228516 0.72316406 0.63228516 1.4609375 1.27734375 C2.40839844 2.09912109 2.40839844 2.09912109 3.375 2.9375 C4.00148438 3.48277344 4.62796875 4.02804688 5.2734375 4.58984375 C6.95632334 6.06958624 6.95632334 6.06958624 9 7 C10.3919958 14.20367846 10.15872691 21.82657451 10.16796875 29.140625 C10.17220352 30.17324966 10.17643829 31.20587433 10.18080139 32.26979065 C10.19063651 35.59656909 10.19072888 38.92320965 10.1875 42.25 C10.18689575 43.39004486 10.1862915 44.53008972 10.18566895 45.7046814 C10.11815734 92.61577708 5.45818121 139.15458493 -9 184 C-9.26893066 184.84643066 -9.53786133 185.69286133 -9.81494141 186.56494141 C-22.09740793 224.80961241 -41.71945763 260.17750254 -68.9609375 289.77734375 C-70.81250295 291.79562103 -72.59833 293.85349135 -74.375 295.9375 C-99.47678559 324.7084561 -132.61507555 347.23670315 -166.15087891 365.00439453 C-167.8183625 365.90220257 -169.44918786 366.86730303 -171.07421875 367.83984375 C-175.67641744 369.66474764 -178.90603785 368.89346354 -183.40429688 366.97412109 C-186.22641978 365.61259801 -188.98918881 364.16938904 -191.75 362.6875 C-192.7620752 362.14988037 -193.77415039 361.61226074 -194.81689453 361.05834961 C-210.93434772 352.38273539 -225.67864188 342.37066786 -240 331 C-241.46759766 329.85337891 -241.46759766 329.85337891 -242.96484375 328.68359375 C-248.49765621 324.32724988 -253.7876473 319.73392419 -259 315 C-257.88559348 311.65678045 -257.02527657 310.93980381 -254.375 308.75 C-251.63140123 306.42624019 -249.01328204 304.07119176 -246.5 301.5 C-243.44755522 298.3919298 -240.23125797 295.54107304 -236.91796875 292.71484375 C-235.07151319 291.06393949 -233.42258177 289.32425165 -231.75 287.5 C-229 285 -229 285 -227.21484375 285.04296875 C-223.99823915 286.43285963 -221.49051547 288.60011086 -218.8125 290.8125 C-208.2743687 299.28611494 -197.26596181 307.12022477 -185.8125 314.3125 C-185.2131665 314.7038916 -184.61383301 315.0952832 -183.99633789 315.49853516 C-181.26609031 317.16223756 -179.31331583 317.99662648 -176.09765625 318.03125 C-171.88589465 316.62909986 -168.37005486 314.54615658 -164.625 312.1875 C-163.83770508 311.69830078 -163.05041016 311.20910156 -162.23925781 310.70507812 C-154.82337894 306.02293077 -147.81444132 300.87444105 -140.90380859 295.48193359 C-139.01514728 294.01179071 -137.11287566 292.56105168 -135.20703125 291.11328125 C-129.02618599 286.38357674 -123.28396822 281.5483248 -117.8828125 275.91796875 C-116.27775208 274.28293832 -114.67072828 272.85245867 -112.875 271.4375 C-109.94860542 268.95642633 -107.56208949 266.37437817 -105.08984375 263.453125 C-103.54993247 261.64552821 -101.97398676 259.86848019 -100.37890625 258.109375 C-67.99860782 222.09892439 -50.49929764 176.07136371 -41.6875 129.125 C-41.55826141 128.43709381 -41.42902283 127.74918762 -41.29586792 127.04043579 C-39.34669165 116.58311682 -37.8311301 106.63880366 -38 96 C-38.59425781 96.59949463 -39.18851563 97.19898926 -39.80078125 97.81665039 C-42.04266107 100.07574527 -44.28691531 102.33244873 -46.53271484 104.58764648 C-47.49751459 105.55742273 -48.46140895 106.5281007 -49.42431641 107.49975586 C-58.44682 116.60206307 -58.44682 116.60206307 -62.90625 120.40234375 C-68.76365449 125.41797002 -74.08467348 131.01756114 -79.5 136.5 C-92.36865264 149.52813431 -92.36865264 149.52813431 -98.34765625 154.57250977 C-100.14255348 156.12315458 -101.81547319 157.76834568 -103.5 159.4375 C-118.14126591 172.2558415 -138.13570833 176.13212705 -157 175 C-172.1809006 173.34810657 -185.8127082 166.2289763 -197 156 C-197.62003906 155.45988281 -198.24007812 154.91976562 -198.87890625 154.36328125 C-204.29824552 149.35615123 -208.08282658 143.19625613 -212 137 C-207.88837643 132.05222057 -203.60353644 127.54487175 -198.875 123.1875 C-197.96427734 122.32995117 -197.96427734 122.32995117 -197.03515625 121.45507812 C-196.44347656 120.90658203 -195.85179687 120.35808594 -195.2421875 119.79296875 C-194.7147998 119.3033667 -194.18741211 118.81376465 -193.64404297 118.30932617 C-189.52371495 115.02787099 -186.25249923 114.54719834 -181 115 C-176.36275842 116.90151441 -173.75768771 119.06531166 -170.625 122.9375 C-165.31920144 129.07540525 -159.76621749 132.33612628 -151.625 133.2734375 C-142.81567702 133.6142744 -135.41079903 131.54347612 -128.4597168 125.95922852 C-118.63841305 116.80935804 -109.20241543 107.27846935 -99.75 97.75 C-96.39359894 94.36681914 -93.03376272 90.9871028 -89.671875 87.609375 C-88.91960632 86.84880798 -88.16733765 86.08824097 -87.39227295 85.30462646 C-84.07657107 81.97374339 -80.74385205 78.72983231 -77.17285156 75.67285156 C-72.25329303 71.43351785 -67.70934 66.82162901 -63.1388855 62.21405029 C-61.52546486 60.58766731 -59.90876729 58.96460304 -58.29125977 57.34228516 C-54.85799254 53.89768516 -51.42869316 50.44915219 -48 47 C-44.02141817 42.99767795 -40.0411508 38.99706185 -36.05661011 35.00067139 C-34.47712934 33.41478994 -32.90073203 31.82588904 -31.32446289 30.23681641 C-26.56621788 25.45458703 -21.76113335 20.793738 -16.63354492 16.40646362 C-14.64852406 14.69738321 -12.78111045 12.89522751 -10.9375 11.03515625 C-9.96103516 10.05385742 -9.96103516 10.05385742 -8.96484375 9.05273438 C-8.31644531 8.39595703 -7.66804687 7.73917969 -7 7.0625 C-6.32066406 6.37865234 -5.64132812 5.69480469 -4.94140625 4.99023438 C-3.29191641 3.32912841 -1.6448332 1.66571487 0 0 Z " fill="#25405A" transform="translate(881,119)"/>
<path d="M0 0 C1.23943359 0.87591797 1.23943359 0.87591797 2.50390625 1.76953125 C3.11057129 2.19572754 3.71723633 2.62192383 4.34228516 3.06103516 C6.61692407 4.69347279 8.84054287 6.38374786 11.06640625 8.08203125 C31.95310786 23.71618991 54.11030196 36.32159724 77.50390625 47.76953125 C76.19013708 50.67496997 74.78334133 52.73614184 72.52294922 54.97753906 C71.92247772 55.5778595 71.32200623 56.17817993 70.70333862 56.79669189 C70.05744781 57.43226013 69.41155701 58.06782837 68.74609375 58.72265625 C68.0830423 59.38287781 67.41999084 60.04309937 66.73684692 60.72332764 C64.62218793 62.82680949 62.50067413 64.92322267 60.37890625 67.01953125 C58.94225068 68.44615386 57.50604727 69.87323197 56.0703125 71.30078125 C52.55339821 74.79566786 49.03032078 78.28423187 45.50390625 81.76953125 C40.99795462 80.01775426 36.85484669 77.91545883 32.62890625 75.58203125 C31.47805542 74.95119629 31.47805542 74.95119629 30.30395508 74.30761719 C25.52338987 71.6300832 20.92788818 68.76429797 16.3828125 65.703125 C15.35462402 65.01178467 14.32643555 64.32044434 13.26708984 63.6081543 C11.23643949 62.22918829 9.21686765 60.83374778 7.20947266 59.42114258 C6.27925293 58.78845459 5.3490332 58.1557666 4.390625 57.50390625 C3.56780029 56.92866211 2.74497559 56.35341797 1.8972168 55.76074219 C-0.49653476 54.48414958 -0.49653476 54.48414958 -3.11206055 55.47607422 C-6.22094693 57.16280029 -9.10061593 59.12285532 -11.99609375 61.14453125 C-26.37039789 70.93506775 -41.73323609 79.42797418 -57.49609375 86.76953125 C-58.31706543 87.15318848 -59.13803711 87.5368457 -59.98388672 87.93212891 C-115.86763804 113.76953125 -115.86763804 113.76953125 -142.49609375 113.76953125 C-142.20797168 163.46204721 -142.20797168 163.46204721 -136.49609375 212.76953125 C-135.97340385 215.95416767 -135.80636284 218.59966212 -136.49609375 221.76953125 C-138.0065918 223.46948242 -138.0065918 223.46948242 -140.0078125 225.0625 C-142.97624038 227.51016259 -145.85280835 229.9880762 -148.64453125 232.63671875 C-149.68081665 233.61801758 -149.68081665 233.61801758 -150.73803711 234.61914062 C-151.4419458 235.28751953 -152.14585449 235.95589844 -152.87109375 236.64453125 C-162.90930378 246.12061905 -162.90930378 246.12061905 -167.43359375 250.26953125 C-168.18511719 250.96046875 -168.93664062 251.65140625 -169.7109375 252.36328125 C-171.49609375 253.76953125 -171.49609375 253.76953125 -173.49609375 253.76953125 C-177.44038205 239.12112936 -180.38956995 224.43036486 -182.74609375 209.45703125 C-182.87042786 208.67785339 -182.99476196 207.89867554 -183.12286377 207.09588623 C-183.98400176 201.66258699 -184.7621394 196.22136286 -185.49609375 190.76953125 C-185.59814117 190.0474649 -185.7001886 189.32539856 -185.80532837 188.58145142 C-188.13778433 171.6304329 -187.76463831 154.54437372 -187.69171143 137.47424316 C-187.68088316 134.2832437 -187.68124379 131.09228744 -187.68184948 127.90127277 C-187.68157425 124.77036893 -187.6760381 121.63949138 -187.66884804 118.50859642 C-187.6657268 117.04058212 -187.66370984 115.57256493 -187.66295433 114.1045475 C-187.65451324 106.28654273 -187.50764617 98.48521053 -187.1105957 90.67651367 C-187.08038676 89.98796201 -187.05017782 89.29941034 -187.01905346 88.58999348 C-186.75648283 84.02075322 -185.88037229 80.0966016 -184.49609375 75.76953125 C-183.80797607 75.66930664 -183.1198584 75.56908203 -182.41088867 75.46582031 C-167.99782353 73.35044907 -153.68227644 71.10139498 -139.49609375 67.76953125 C-138.77566895 67.60404785 -138.05524414 67.43856445 -137.31298828 67.26806641 C-93.50676858 57.05215487 -51.81644896 37.04016677 -16.12890625 9.69921875 C-15.26604004 9.04163574 -14.40317383 8.38405273 -13.51416016 7.70654297 C-11.87002727 6.44180084 -10.23871279 5.16016756 -8.62255859 3.85986328 C-3.23945905 -0.29910498 -3.23945905 -0.29910498 0 0 Z " fill="#26405A" transform="translate(705.49609375,34.23046875)"/>
<path d="M0 0 C0.07916105 11.32556232 -0.13021233 22.60354616 -0.62109375 33.91796875 C-0.68620905 35.47438022 -0.75106829 37.03080242 -0.81568909 38.5872345 C-0.95051632 41.81663648 -1.08770523 45.04592584 -1.22680664 48.27514648 C-1.40321571 52.37262944 -1.57464127 56.47030199 -1.74441433 60.56806469 C-1.87749296 63.77096951 -2.01270414 66.97378158 -2.14857674 70.17656898 C-2.21247131 71.68611788 -2.27585852 73.19568836 -2.33868217 74.70528221 C-2.69149268 83.14199995 -3.15430163 91.55986964 -3.78379822 99.98146057 C-4.0400809 103.55959664 -4.20128029 107.12558631 -4.31640625 110.7109375 C-4.35830078 111.97421875 -4.40019531 113.2375 -4.44335938 114.5390625 C-4.48267578 115.80492188 -4.52199219 117.07078125 -4.5625 118.375 C-4.60587258 119.7083414 -4.64949141 121.04167481 -4.69335938 122.375 C-4.79797668 125.58326388 -4.90015838 128.79158457 -5 132 C-8.97112263 130.15421455 -11.8506529 127.55400393 -15 124.5625 C-16.16642766 123.46979689 -17.33309956 122.37735446 -18.5 121.28515625 C-19.08652344 120.73359863 -19.67304687 120.18204102 -20.27734375 119.61376953 C-22.83189733 117.22068575 -25.41568572 114.86093605 -28 112.5 C-31.60890425 109.19635014 -35.21212067 105.88666091 -38.80688477 102.56762695 C-39.88858091 101.56917558 -40.97109295 100.57160737 -42.05444336 99.57495117 C-44.91412587 96.94122525 -47.75395654 94.28943097 -50.5703125 91.609375 C-51.15498291 91.05757568 -51.73965332 90.50577637 -52.34204102 89.93725586 C-53.46274234 88.87889523 -54.57811773 87.81485723 -55.68725586 86.74438477 C-59.30665045 83.17648551 -59.30665045 83.17648551 -64 82 C-66.01994499 83.54832577 -67.63314392 85.02159485 -69.37939453 86.84350586 C-69.90345886 87.37005264 -70.42752319 87.89659943 -70.96746826 88.43910217 C-72.70107559 90.18641516 -74.4165294 91.95052546 -76.1328125 93.71484375 C-77.33175932 94.92819122 -78.53196179 96.14029913 -79.73336792 97.35121155 C-82.89653834 100.54484453 -86.04528853 103.75230532 -89.19042969 106.96368408 C-94.22877379 112.10423841 -99.28656992 117.22559279 -104.34817123 122.34323311 C-106.11822934 124.13756064 -107.88092542 125.93888782 -109.64285278 127.74119568 C-110.72150311 128.83669092 -111.80034012 129.93200238 -112.87939453 131.02709961 C-113.37085968 131.53361053 -113.86232483 132.04012146 -114.36868286 132.5619812 C-115.54151526 133.74644615 -116.76631544 134.879056 -118 136 C-118.66 136 -119.32 136 -120 136 C-120 136.66 -120 137.32 -120 138 C-120.66 138 -121.32 138 -122 138 C-122 138.66 -122 139.32 -122 140 C-123.48413086 141.46412659 -123.48413086 141.46412659 -125.52734375 143.15844727 C-129.74272851 146.74496303 -133.66640875 150.53717439 -137.5625 154.46484375 C-138.23925781 155.14301651 -138.91601562 155.82118927 -139.61328125 156.51991272 C-141.74457675 158.65674305 -143.87234218 160.79704823 -146 162.9375 C-147.45679779 164.39932123 -148.91382701 165.86091187 -150.37109375 167.32226562 C-153.91673973 170.878854 -157.45922739 174.43856016 -161 178 C-161.54795227 177.58899048 -162.09590454 177.17798096 -162.66046143 176.7545166 C-163.37997986 176.21484253 -164.09949829 175.67516846 -164.84082031 175.11914062 C-165.55377258 174.5843811 -166.26672485 174.04962158 -167.00128174 173.49865723 C-176.72395787 166.20850577 -186.74606339 160.60388316 -198 156 C-196.71656613 153.18420988 -195.38010262 151.1304661 -193.19381714 148.94657898 C-192.62205246 148.37061981 -192.05028778 147.79466064 -191.4611969 147.20124817 C-190.83575485 146.58142563 -190.21031281 145.96160309 -189.56591797 145.32299805 C-188.90547989 144.66066162 -188.24504181 143.9983252 -187.56459045 143.31591797 C-185.37864626 141.12626789 -183.18557945 138.94390636 -180.9921875 136.76171875 C-179.46684912 135.23757307 -177.94188087 133.7130569 -176.41726685 132.18818665 C-173.21745998 128.98994466 -170.01432041 125.79509132 -166.80859375 122.6027832 C-162.71489321 118.52600758 -158.62774048 114.442746 -154.54287529 110.35711956 C-151.39117737 107.20569476 -148.23687014 104.05689259 -145.08169937 100.90894508 C-143.57494189 99.40535432 -142.06877569 97.90117077 -140.56322861 96.39636803 C-138.44812788 94.28345587 -136.32975313 92.17388077 -134.21044922 90.06518555 C-133.59715256 89.4514357 -132.9838559 88.83768585 -132.35197449 88.20533752 C-128.62644895 84.50680324 -124.78193291 80.99731715 -120.80034828 77.57561874 C-118.07216756 75.1879848 -115.51763584 72.64249089 -112.96875 70.06640625 C-112.4473645 69.5436058 -111.925979 69.02080536 -111.38879395 68.48216248 C-109.75678922 66.84465002 -108.12833426 65.20366151 -106.5 63.5625 C-105.38044368 62.4379167 -104.26065371 61.31356595 -103.140625 60.18945312 C-100.42438466 57.46230656 -97.71131708 54.73204093 -95 52 C-96.17018677 50.83090088 -96.17018677 50.83090088 -97.36401367 49.63818359 C-98.97350287 48.02735278 -100.57857662 46.41207475 -102.17578125 44.7890625 C-106.32152223 40.59026816 -110.54760025 36.5924141 -115.02734375 32.75390625 C-117.84698112 30.24694154 -120.46087092 27.55225417 -123.1015625 24.859375 C-124.83293679 23.1636257 -126.60741743 21.63551191 -128.5 20.125 C-129.7375 19.073125 -129.7375 19.073125 -131 18 C-131 17.34 -131 16.68 -131 16 C-120.71538263 14.59929257 -110.43063572 13.19954048 -100.14572906 11.80095863 C-95.36841205 11.15129088 -90.59113779 10.50131225 -85.81396484 9.85058594 C-81.19100647 9.22087837 -76.56793111 8.59203598 -71.94477844 7.96375656 C-70.19399449 7.72568005 -68.44325065 7.48730838 -66.69255066 7.24861526 C-56.95241326 5.92084593 -47.20962143 4.63110808 -37.45309448 3.42919922 C-34.14614803 3.01816534 -30.8423718 2.58764212 -27.5390625 2.1484375 C-26.55292969 2.01953125 -25.56679688 1.890625 -24.55078125 1.7578125 C-22.57620689 1.49945698 -20.60225276 1.23632241 -18.62890625 0.96875 C-12.37485239 0.1612437 -6.30183465 -0.13812509 0 0 Z " fill="#1E9466" transform="translate(926,0)"/>
<path d="M0 0 C3.68552298 1.15634603 7.00034409 2.44242895 10.375 4.3125 C20.84641136 9.64282687 32.38896863 12.52663049 44 14 C42.54068493 17.46395315 40.71176736 19.3748033 37.875 21.8125 C33.31584016 25.81566474 28.85629578 29.90483691 24.4375 34.0625 C23.76017822 34.69881348 23.08285645 35.33512695 22.38500977 35.99072266 C18.80309775 39.35776167 15.22567727 42.72956105 11.6484375 46.1015625 C3.65803139 53.63224415 -4.35616292 61.13353439 -12.43945312 68.56445312 C-15.12973765 71.03924552 -17.81457214 73.51994018 -20.5 76 C-23.71293048 78.96692773 -26.92653742 81.93309501 -30.14453125 84.89453125 C-36.14575366 90.42048284 -42.11667902 95.97694651 -48.0625 101.5625 C-53.69469558 106.85278378 -59.35302518 112.11035555 -65.0703125 117.30859375 C-67.15024926 119.21936232 -69.20403981 121.14357459 -71.2421875 123.09765625 C-81.1228537 132.52139621 -91.04674802 139.30380108 -104 144 C-105.25490234 144.48146484 -105.25490234 144.48146484 -106.53515625 144.97265625 C-121.59577314 149.97734347 -139.26606275 147.74973784 -153.56640625 141.421875 C-171.48652793 132.20225272 -186.26845725 117.78900764 -193.19140625 98.55859375 C-193.45824219 97.71425781 -193.72507812 96.86992187 -194 96 C-194.29777344 95.06285156 -194.59554688 94.12570312 -194.90234375 93.16015625 C-200.10286623 74.15548192 -197.15461419 55.5241764 -187.953125 38.26171875 C-179.92535847 24.85534864 -167.26283274 13.55592596 -155 4 C-154.34 4 -153.68 4 -153 4 C-152.75878418 4.65895264 -152.51756836 5.31790527 -152.26904297 5.99682617 C-151.14322186 9.06245364 -150.01044063 12.12542204 -148.875 15.1875 C-148.26519287 16.83359253 -148.26519287 16.83359253 -147.64306641 18.51293945 C-145.06507513 25.39046651 -142.30340743 31.99903816 -138.8984375 38.51171875 C-137.78983417 41.58206796 -137.81743403 42.96051226 -139 46 C-141.109375 48.10546875 -141.109375 48.10546875 -143.75 50.1875 C-149.80698463 55.3606328 -154.39982764 62.17537649 -155.23828125 70.3125 C-155.51346981 80.27722265 -153.25094304 87.78008522 -146.75 95.4375 C-139.95789136 102.32820377 -135.33490397 104.3475854 -125.5625 104.5 C-113.0559382 104.31886216 -106.886087 99.52962506 -98 91 C-96.43090022 89.54204058 -94.85441732 88.09237173 -93.27709961 86.64331055 C-91.60698005 85.10843932 -89.94173211 83.56842611 -88.27734375 82.02734375 C-85.25848872 79.23519066 -82.22407319 76.46038162 -79.1875 73.6875 C-73.10102523 68.12101106 -67.09007378 62.47484861 -61.078125 56.828125 C-57.20495044 53.19035706 -53.32304998 49.56204217 -49.4375 45.9375 C-48.82213379 45.36338379 -48.20676758 44.78926758 -47.57275391 44.19775391 C-45.09722864 41.88843228 -42.62136051 39.57947839 -40.14550781 37.27050781 C-38.2843521 35.53466926 -36.42338564 33.79862808 -34.5625 32.0625 C-33.94914795 31.49039795 -33.3357959 30.9182959 -32.70385742 30.32885742 C-29.42635969 27.27023002 -26.15351034 24.20678048 -22.88671875 21.13671875 C-15.31709715 14.0236775 -7.71933344 6.950671 0 0 Z " fill="#1E9264" transform="translate(681,306)"/>
<path d="M0 0 C0.98871094 0.35191406 1.97742188 0.70382813 2.99609375 1.06640625 C18.93903187 7.22017727 30.69842742 17.31962297 40.05078125 31.58984375 C41 34 41 34 40.38671875 36.12109375 C38.90862887 38.12380144 37.42847701 39.55218473 35.5 41.125 C31.10617033 44.82676126 27.1121562 48.85101021 23.1015625 52.9609375 C19.31555115 56.63435372 15.93645829 56.4541803 10.828125 56.4140625 C6.28374099 55.74872451 3.89989589 53.40165905 1 50 C0.38769531 49.175 -0.22460938 48.35 -0.85546875 47.5 C-5.37370923 42.23283442 -11.71301485 39.5576795 -18.4765625 38.41015625 C-28.47503122 37.9556804 -36.19285168 40.74483528 -43.6875 47.37890625 C-45.31015685 48.99908954 -46.90329156 50.6498658 -48.453125 52.33984375 C-51.12921014 55.13495721 -53.95892535 57.62366983 -56.88525391 60.15014648 C-60.36537972 63.19435259 -63.70793313 66.38135687 -67.0625 69.5625 C-68.56224934 70.97943202 -70.0622541 72.39609374 -71.5625 73.8125 C-72.30757812 74.51632813 -73.05265625 75.22015625 -73.8203125 75.9453125 C-77.0567525 78.9961502 -80.30846153 82.0304559 -83.5625 85.0625 C-88.71629111 89.86655738 -93.86155819 94.679528 -99 99.5 C-101.00003112 101.37530324 -103.00021363 103.25044481 -105.00048828 105.12548828 C-106.3402096 106.38145657 -107.67972584 107.63764366 -109.01904297 108.89404297 C-110.3466775 110.13904331 -111.67495449 111.38335894 -113.00390625 112.62695312 C-114.2754177 113.81755021 -115.54500803 115.01020288 -116.8125 116.20507812 C-120.93073427 120.06981418 -125.17425637 123.71355924 -129.65625 127.15625 C-131.25823863 128.97174767 -131.25823863 128.97174767 -130.98828125 131.61328125 C-129.64931586 136.20175158 -127.75518522 140.38483215 -125.6875 144.6875 C-125.25469727 145.60072021 -124.82189453 146.51394043 -124.37597656 147.45483398 C-120.69444674 155.01656075 -116.38381544 162.05496983 -111.5847168 168.95776367 C-111.0875415 169.69486572 -110.59036621 170.43196777 -110.078125 171.19140625 C-109.62856445 171.83279541 -109.17900391 172.47418457 -108.71582031 173.13500977 C-108 175 -108 175 -108.75634766 177.12353516 C-110.29094985 179.438995 -112.01574662 180.99997209 -114.125 182.8125 C-118.985427 187.07515853 -123.72660508 191.44756715 -128.4375 195.875 C-129.13568848 196.52960205 -129.83387695 197.1842041 -130.55322266 197.85864258 C-133.40595805 200.53807447 -136.24463168 203.2200255 -139 206 C-142.9287498 204.69041673 -144.14811899 202.32614112 -146.3125 199 C-146.74054932 198.34555908 -147.16859863 197.69111816 -147.60961914 197.0168457 C-183.66061033 140.8618407 -183.66061033 140.8618407 -181.7590332 121.55322266 C-180.86043416 118.53053085 -179.78860009 117.3941376 -177.46484375 115.29296875 C-176.73716797 114.62330078 -176.00949219 113.95363281 -175.25976562 113.26367188 C-174.49341797 112.57853516 -173.72707031 111.89339844 -172.9375 111.1875 C-171.44543285 109.82811886 -169.95454405 108.46744322 -168.46484375 107.10546875 C-167.34698486 106.08912354 -167.34698486 106.08912354 -166.20654297 105.05224609 C-164.06297011 103.0585668 -161.99607867 101.01060294 -159.94140625 98.92578125 C-156.74244736 95.69039406 -153.41062289 92.67981543 -149.96484375 89.7109375 C-146.72922521 86.89344064 -143.61929132 83.94494068 -140.5 81 C-139.0937842 79.67704698 -137.6875332 78.35413137 -136.28125 77.03125 C-135.57097656 76.36222656 -134.86070312 75.69320312 -134.12890625 75.00390625 C-130.75762882 71.83057539 -127.37859572 68.66553487 -124 65.5 C-122.66792297 64.25135092 -121.33589183 63.00265289 -120.00390625 61.75390625 C-119.34406738 61.13531738 -118.68422852 60.51672852 -118.00439453 59.87939453 C-115.9909373 57.99150247 -113.97784647 56.10322043 -111.96484375 54.21484375 C-104.84675672 47.53813501 -97.72672016 40.86355678 -90.58496094 34.2121582 C-87.40531778 31.25022413 -84.23453178 28.27966783 -81.078125 25.29296875 C-58.58076037 4.03984039 -31.75317046 -11.64438799 0 0 Z " fill="#1E9366" transform="translate(719,180)"/>
<path d="M0 0 C11.22 0 22.44 0 34 0 C34 45.21 34 90.42 34 137 C5 137 5 137 -2.0625 130.875 C-3.33263592 128.92967626 -4.6033636 126.9824028 -5.77392578 124.97558594 C-7.82166981 121.67603503 -10.41850798 118.88705471 -13 116 C-13.99877344 114.83954054 -14.99487032 113.67677208 -15.98828125 112.51171875 C-18.02397769 110.13640792 -20.06344576 107.7644049 -22.10546875 105.39453125 C-26.67710453 100.08355709 -31.21953692 94.76319597 -35.625 89.3125 C-39.41860059 84.63555198 -43.43212286 80.20463901 -47.5078125 75.7734375 C-52.93376686 69.73514973 -57.93050196 63.33687256 -63 57 C-63.33 83.4 -63.66 109.8 -64 137 C-75.22 137 -86.44 137 -98 137 C-98 92.12 -98 47.24 -98 1 C-68 1 -68 1 -60.875 7.125 C-59.61896261 9.06970587 -58.36221638 11.01647526 -57.20996094 13.02441406 C-55.18212907 16.33539377 -52.58259672 19.11597746 -50 22 C-48.99718844 23.16425087 -47.99718198 24.33092378 -47 25.5 C-46.505 26.0775 -46.01 26.655 -45.5 27.25 C-40 33.66666667 -34.5 40.08333333 -29 46.5 C-28.50459717 47.07790283 -28.00919434 47.65580566 -27.4987793 48.2512207 C-26.50257999 49.41358845 -25.50664733 50.57618479 -24.51098633 51.73901367 C-21.95501586 54.72341985 -19.39400606 57.70326021 -16.82421875 60.67578125 C-16.29892578 61.28486328 -15.77363281 61.89394531 -15.23242188 62.52148438 C-14.24720824 63.6636347 -13.26039431 64.80440793 -12.27148438 65.94335938 C-8.33185831 70.5164373 -4.7220008 75.2145704 -1 80 C-0.67 53.6 -0.34 27.2 0 0 Z " fill="#264059" transform="translate(1204,538)"/>
<path d="M0 0 C1.47583955 0.0001591 2.95168467 0.00585225 4.42749023 0.01586914 C5.20293686 0.01728409 5.97838348 0.01869904 6.77732849 0.02015686 C9.26361893 0.02577194 11.74982059 0.03832693 14.23608398 0.05102539 C15.91772331 0.05603845 17.59936405 0.06060169 19.28100586 0.06469727 C23.41189965 0.07574626 27.54272674 0.09302094 31.67358398 0.11352539 C38.58026976 14.31138319 45.44205751 28.52290875 52.04858398 42.86352539 C56.8015984 53.17549696 61.69742323 63.40794308 66.67358398 73.61352539 C73.3789158 87.36692289 79.87392331 101.20382024 86.27661133 115.10083008 C87.58747058 117.92781421 88.91583789 120.74546229 90.25561523 123.55883789 C90.63782227 124.36192383 91.0200293 125.16500977 91.41381836 125.99243164 C92.1032937 127.43668782 92.79575894 128.87952249 93.49194336 130.32055664 C95.67358398 134.89480973 95.67358398 134.89480973 95.67358398 137.11352539 C83.79358398 137.11352539 71.91358398 137.11352539 59.67358398 137.11352539 C56.60250397 130.97136535 53.59789393 124.89670938 50.86108398 118.61352539 C50.39412109 117.56165039 50.39412109 117.56165039 49.91772461 116.48852539 C47.67358398 111.3590611 47.67358398 111.3590611 47.67358398 109.11352539 C25.23358398 109.11352539 2.79358398 109.11352539 -20.32641602 109.11352539 C-21.31641602 112.08352539 -22.30641602 115.05352539 -23.32641602 118.11352539 C-23.96620425 119.71933781 -24.6289909 121.31661114 -25.33422852 122.89477539 C-25.85436523 124.06266602 -25.85436523 124.06266602 -26.38500977 125.25415039 C-26.91288086 126.42204102 -26.91288086 126.42204102 -27.45141602 127.61352539 C-27.81106445 128.42305664 -28.17071289 129.23258789 -28.54125977 130.06665039 C-31.18830811 135.97541749 -31.18830811 135.97541749 -32.32641602 137.11352539 C-34.92000923 137.20204068 -37.48681293 137.22878484 -40.08032227 137.21118164 C-40.85576889 137.20976669 -41.63121552 137.20835175 -42.43016052 137.20689392 C-44.91645096 137.20127884 -47.40265262 137.18872385 -49.88891602 137.17602539 C-51.57055534 137.17101233 -53.25219608 137.16644909 -54.93383789 137.16235352 C-59.06473168 137.15130452 -63.19555878 137.13402984 -67.32641602 137.11352539 C-64.73287958 130.48027991 -61.71044309 124.03264648 -58.76391602 117.55102539 C-58.43617188 116.82923096 -58.10842773 116.10743652 -57.77075195 115.36376953 C-52.2137862 103.1360381 -46.51275876 90.98044764 -40.75054932 78.84832764 C-35.60284902 68.00583269 -30.57314418 57.11721046 -25.63891602 46.17602539 C-20.71172093 35.25510872 -15.66133124 24.40263163 -10.45141602 13.61352539 C-10.14587799 12.97939728 -9.84033997 12.34526917 -9.52554321 11.69192505 C-3.94946072 0.13478893 -3.94946072 0.13478893 0 0 Z " fill="#274159" transform="translate(191.326416015625,537.886474609375)"/>
<path d="M0 0 C11.22 0 22.44 0 34 0 C34.33 20.46 34.66 40.92 35 62 C42.91776505 54.10157399 42.91776505 54.10157399 50.33926392 45.88778687 C53.18736016 42.65030757 56.25629495 39.64075657 59.32421875 36.61328125 C59.99290482 35.94838181 60.66159088 35.28348236 61.35054016 34.59843445 C63.46041489 32.50064265 65.57352764 30.40616197 67.6875 28.3125 C70.48599817 25.54068747 73.28110086 22.76551415 76.07421875 19.98828125 C76.70970139 19.36109695 77.34518402 18.73391266 77.99992371 18.08772278 C81.2355094 14.87001732 84.19849462 11.61245704 87 8 C88.64646685 6.31337542 90.31183067 4.64488294 92 3 C92.46630325 2.46304001 92.93260651 1.92608002 93.41304016 1.37284851 C96.23868161 -1.0715597 100.04411773 -0.36056972 103.60546875 -0.29296875 C104.44467361 -0.28872391 105.28387848 -0.28447906 106.14851379 -0.28010559 C108.82850245 -0.26331464 111.5077387 -0.2256623 114.1875 -0.1875 C116.00454643 -0.17245367 117.82160465 -0.15876518 119.63867188 -0.14648438 C124.09273776 -0.11340982 128.54624132 -0.06162513 133 0 C131.54811406 3.35043397 129.7180341 5.50486196 127.11328125 8.046875 C125.9521582 9.1915625 125.9521582 9.1915625 124.76757812 10.359375 C123.95740234 11.14828125 123.14722656 11.9371875 122.3125 12.75 C117.24053552 17.71035646 112.32045271 22.69029469 107.69995117 28.07519531 C104.78865832 31.37156654 101.63881421 34.42228975 98.5 37.5 C93.9906084 41.96095087 89.59094767 46.4312412 85.49609375 51.28125 C82.82809966 54.34630848 79.91150938 57.16813678 77 60 C79.52655918 64.57061575 82.68378 68.43249685 86 72.4375 C87.17802252 73.87292766 88.35509045 75.30913921 89.53125 76.74609375 C90.11777344 77.46265137 90.70429687 78.17920898 91.30859375 78.91748047 C93.74367745 81.91564213 96.12537308 84.95388135 98.5 88 C102.44151048 93.04879792 106.45028924 98.03760299 110.5 103 C115.1150688 108.65586189 119.67305434 114.35097169 124.16333008 120.10644531 C127.58871795 124.49532302 131.09064719 128.81713608 134.63671875 133.109375 C136 135 136 135 136 137 C130.43182519 137.22333783 124.86628142 137.38617494 119.29467773 137.49438477 C117.40196301 137.53950716 115.50955966 137.60082605 113.61791992 137.67895508 C97.94154547 138.30996936 97.94154547 138.30996936 93.39794922 135.24438477 C91.60256347 132.92228254 90.32187113 130.61582442 89 128 C87.91729487 126.60198472 86.79707171 125.23218895 85.640625 123.89453125 C85.08793945 123.22832764 84.53525391 122.56212402 83.96582031 121.87573242 C83.39959961 121.19486572 82.83337891 120.51399902 82.25 119.8125 C77.3858265 113.93830433 72.61288706 108.00642289 67.92749023 101.98901367 C63.41727799 96.21449225 58.72671041 90.59822968 54 85 C46.08417885 88.8385355 38.83405024 93.83784741 35 102 C32.37592515 113.23053972 33.70365471 125.78121394 34 137 C22.78 137 11.56 137 0 137 C0 91.79 0 46.58 0 0 Z " fill="#264058" transform="translate(1272,538)"/>
<path d="M0 0 C35.64 0 71.28 0 108 0 C108 8.25 108 16.5 108 25 C83.25 25 58.5 25 33 25 C33 34.57 33 44.14 33 54 C55.11 54 77.22 54 100 54 C100 62.25 100 70.5 100 79 C77.89 79 55.78 79 33 79 C33 89.23 33 99.46 33 110 C59.07 110 85.14 110 112 110 C112 118.58 112 127.16 112 136 C75.04 136 38.08 136 0 136 C0 91.12 0 46.24 0 0 Z " fill="#243E58" transform="translate(436,539)"/>
<path d="M0 0 C0.73371826 0.23605957 1.46743652 0.47211914 2.22338867 0.71533203 C7.48486326 2.53235599 11.9610752 5.07000562 16.5625 8.1875 C15.27368756 11.43863908 13.98095238 14.68820441 12.6875 17.9375 C12.32269531 18.85789062 11.95789063 19.77828125 11.58203125 20.7265625 C11.05029297 22.06074219 11.05029297 22.06074219 10.5078125 23.421875 C10.18312988 24.23881836 9.85844727 25.05576172 9.52392578 25.89746094 C8.62155131 28.04684452 7.63121204 30.11661052 6.5625 32.1875 C3.23645696 31.11173295 -0.0509936 29.97094268 -3.3125 28.71484375 C-3.98796875 28.45509766 -4.6634375 28.19535156 -5.359375 27.92773438 C-6.74610882 27.39206934 -8.13153128 26.85299714 -9.515625 26.31054688 C-17.27514263 23.34149481 -24.49594579 22.97980137 -32.75 22.9375 C-33.74451172 22.916875 -34.73902344 22.89625 -35.76367188 22.875 C-43.53736857 22.8341664 -50.02866131 23.82218336 -56.5 28.3125 C-58.8308285 31.77114874 -59.17874928 33.93504213 -58.90625 38.04296875 C-58.09663478 41.74695837 -56.50841469 43.03785972 -53.4375 45.1875 C-44.41085221 49.61263379 -34.59809237 51.34857634 -24.84375 53.45507812 C-8.1251893 57.18263477 8.07051017 61.73579285 18.5625 76.1875 C23.44355916 84.67850917 23.69220901 94.4157061 21.375 103.75 C17.69656533 115.78543142 11.09477006 123.42280808 0 129.4375 C-12.66683105 135.20979344 -25.14332415 136.89824026 -38.875 136.6875 C-39.5942868 136.68162872 -40.31357361 136.67575745 -41.05465698 136.66970825 C-61.28778454 136.4764133 -79.57066275 131.78345061 -96.4375 120.1875 C-94.77663088 114.62085076 -92.32678264 109.52963647 -89.8125 104.3125 C-89.39226562 103.43335938 -88.97203125 102.55421875 -88.5390625 101.6484375 C-87.5083308 99.49327122 -86.47440574 97.33970078 -85.4375 95.1875 C-82.47283193 96.28996809 -79.66555539 97.55513597 -76.87109375 99.02734375 C-68.86213268 103.24548331 -61.41593796 106.52380782 -52.4375 108.1875 C-51.66921875 108.36925781 -50.9009375 108.55101562 -50.109375 108.73828125 C-38.90367484 110.62228055 -25.04399868 110.33275407 -15.25 104.1875 C-12.78549504 101.46804626 -12.46531706 99.43785353 -12.0625 95.8125 C-12.14616106 92.14238141 -12.14616106 92.14238141 -14.3125 89.5 C-22.69604551 83.29617632 -33.54534473 81.23890468 -43.5703125 79.06640625 C-79.17462384 71.33181424 -79.17462384 71.33181424 -89.2890625 56.16015625 C-89.66804688 55.50917969 -90.04703125 54.85820313 -90.4375 54.1875 C-90.77523437 53.60871094 -91.11296875 53.02992188 -91.4609375 52.43359375 C-95.08257236 44.74177293 -94.67905573 34.24506342 -92.25 26.25 C-87.22885326 13.80222692 -78.47574684 5.88164727 -66.4375 0.1875 C-45.29662953 -7.32068468 -21.25618826 -6.87257999 0 0 Z " fill="#264058" transform="translate(96.4375,540.8125)"/>
<path d="M0 0 C1.72212209 3.44424418 1.01497631 7.40542215 0.9140625 11.1875 C0.89282318 12.11860596 0.87158386 13.04971191 0.84970093 14.0090332 C0.80332562 15.9930609 0.75438876 17.97703009 0.703125 19.9609375 C0.62674339 22.93218222 0.55872798 25.90352052 0.4921875 28.875 C0.21601397 40.59948704 -0.26389668 52.29540921 -1 64 C-1.66 63.34 -2.32 62.68 -3 62 C-3.59425781 62.59949463 -4.18851563 63.19898926 -4.80078125 63.81665039 C-7.04266107 66.07574527 -9.28691531 68.33244873 -11.53271484 70.58764648 C-12.49751459 71.55742273 -13.46140895 72.5281007 -14.42431641 73.49975586 C-23.44682 82.60206307 -23.44682 82.60206307 -27.90625 86.40234375 C-33.76365449 91.41797002 -39.08467348 97.01756114 -44.5 102.5 C-57.36865264 115.52813431 -57.36865264 115.52813431 -63.34765625 120.57250977 C-65.14255348 122.12315458 -66.81547319 123.76834568 -68.5 125.4375 C-83.14126591 138.2558415 -103.13570833 142.13212705 -122 141 C-137.1809006 139.34810657 -150.8127082 132.2289763 -162 122 C-162.93005859 121.18982422 -162.93005859 121.18982422 -163.87890625 120.36328125 C-169.29824552 115.35615123 -173.08282658 109.19625613 -177 103 C-172.88837643 98.05222057 -168.60353644 93.54487175 -163.875 89.1875 C-162.96427734 88.32995117 -162.96427734 88.32995117 -162.03515625 87.45507812 C-161.44347656 86.90658203 -160.85179687 86.35808594 -160.2421875 85.79296875 C-159.7147998 85.3033667 -159.18741211 84.81376465 -158.64404297 84.30932617 C-154.52371495 81.02787099 -151.25249923 80.54719834 -146 81 C-141.36275842 82.90151441 -138.75768771 85.06531166 -135.625 88.9375 C-130.31920144 95.07540525 -124.76621749 98.33612628 -116.625 99.2734375 C-107.81567702 99.6142744 -100.41079903 97.54347612 -93.4597168 91.95922852 C-83.63841305 82.80935804 -74.20241543 73.27846935 -64.75 63.75 C-61.39359894 60.36681914 -58.03376272 56.9871028 -54.671875 53.609375 C-53.91960632 52.84880798 -53.16733765 52.08824097 -52.39227295 51.30462646 C-49.02816673 47.92511743 -45.64028945 44.63652761 -42.02636719 41.52416992 C-37.43320296 37.56704415 -33.17747979 33.30304421 -28.90625 29.00390625 C-27.65805481 27.75358864 -27.65805481 27.75358864 -26.38464355 26.47801208 C-23.75405065 23.84186738 -21.12697559 21.20224895 -18.5 18.5625 C-16.70596145 16.76344021 -14.91169285 14.9646098 -13.1171875 13.16601562 C-8.74212875 8.77999188 -4.36994488 4.39111858 0 0 Z " fill="#1D9365" transform="translate(846,153)"/>
<path d="M0 0 C35.97 0 71.94 0 109 0 C109 8.58 109 17.16 109 26 C84.25 26 59.5 26 34 26 C34 37.55 34 49.1 34 61 C56.11 61 78.22 61 101 61 C101 69.58 101 78.16 101 87 C79.22 87 57.44 87 35 87 C35 103.5 35 120 35 137 C23.45 137 11.9 137 0 137 C0 91.79 0 46.58 0 0 Z " fill="#26415A" transform="translate(303,538)"/>
<path d="M0 0 C4.99841301 -0.24837309 9.99319735 -0.42915259 14.99633789 -0.54931641 C16.69521665 -0.59942129 18.39366801 -0.66753346 20.09106445 -0.75439453 C34.09364494 -1.45267517 34.09364494 -1.45267517 38.48364258 1.89257812 C40.3397648 4.50449744 41.66477764 7.08998249 43 10 C44.06575851 11.75638571 45.15066444 13.50128831 46.25390625 15.234375 C47.35968881 17.07116314 48.46245729 18.90976855 49.5625 20.75 C55.09319497 29.93965972 60.7799902 39.01273616 66.64477539 47.99316406 C67.20156982 48.85522461 67.75836426 49.71728516 68.33203125 50.60546875 C68.82421143 51.35981201 69.3163916 52.11415527 69.82348633 52.89135742 C70.97004811 54.94631781 71.55579802 56.7002378 72 59 C72.66 59 73.32 59 74 59 C74.26989746 58.27449951 74.53979492 57.54899902 74.81787109 56.80151367 C75.97893517 54.0499213 77.31626664 51.69519055 78.9140625 49.17578125 C79.79723145 47.77440918 79.79723145 47.77440918 80.69824219 46.34472656 C81.33407227 45.3440918 81.96990234 44.34345703 82.625 43.3125 C83.97749635 41.16855758 85.32902343 39.02400346 86.6796875 36.87890625 C87.02962769 36.32383392 87.37956787 35.7687616 87.7401123 35.1968689 C90.33585067 31.07364061 92.89870371 26.93107287 95.4453125 22.77734375 C95.80722687 22.18717972 96.16914124 21.59701569 96.54202271 20.9889679 C98.29970293 18.12095907 100.0544811 15.25121616 101.80712891 12.38012695 C102.44312012 11.34202881 103.07911133 10.30393066 103.734375 9.234375 C104.57307129 7.86104004 104.57307129 7.86104004 105.42871094 6.45996094 C106.20649902 5.24228027 106.20649902 5.24228027 107 4 C107.4029126 3.24009766 107.8058252 2.48019531 108.22094727 1.69726562 C110.53890239 -0.51412782 112.40265411 -0.45457175 115.52372742 -0.45318604 C116.25195206 -0.43254089 116.9801767 -0.41189575 117.73046875 -0.390625 C118.48088943 -0.38496521 119.23131012 -0.37930542 120.00447083 -0.37347412 C122.39946504 -0.35109668 124.79295869 -0.30090171 127.1875 -0.25 C128.81182734 -0.22993659 130.43617815 -0.21168553 132.06054688 -0.1953125 C136.04094207 -0.15122794 140.02021671 -0.08219427 144 0 C142.6518016 3.63777613 141.0139723 6.79160058 138.9453125 10.0703125 C138.0322937 11.52401245 138.0322937 11.52401245 137.10083008 13.00708008 C136.44880615 14.03599365 135.79678223 15.06490723 135.125 16.125 C134.45170654 17.19451904 133.77841309 18.26403809 133.0847168 19.3659668 C131.06033031 22.57976111 129.03057792 25.79011516 127 29 C125.92024622 30.71203358 124.84079115 32.42425562 123.76171875 34.13671875 C120.35762491 39.53566386 116.94570315 44.92963909 113.52929688 50.32080078 C112.79549805 51.47878174 112.79549805 51.47878174 112.046875 52.66015625 C111.55445313 53.43399658 111.06203125 54.20783691 110.5546875 55.00512695 C109.55356152 56.5951024 108.56668509 58.19413305 107.59375 59.80151367 C105.10432187 63.88163724 102.57815101 67.5729042 99.390625 71.140625 C84.3637417 89.25030969 88.47134418 114.85712098 89 137 C77.78 137 66.56 137 55 137 C55.10183594 133.65746094 55.20367188 130.31492187 55.30859375 126.87109375 C56.55205373 93.95937773 56.55205373 93.95937773 40.92871094 66.22949219 C37.84891431 62.66940322 35.59382386 58.6905697 33.25 54.625 C32.36880125 53.15891485 31.48345867 51.69531147 30.59375 50.234375 C30.16449219 49.52861328 29.73523438 48.82285156 29.29296875 48.09570312 C27.16837406 44.65206249 24.96113183 41.26348774 22.75 37.875 C18.08043588 30.70760197 13.49031613 23.49212875 8.9375 16.25 C7.95378418 14.69514893 7.95378418 14.69514893 6.95019531 13.10888672 C6.02932129 11.63959717 6.02932129 11.63959717 5.08984375 10.140625 C4.54191162 9.26954102 3.99397949 8.39845703 3.42944336 7.50097656 C2.03240221 5.05669142 0.97659263 2.63694785 0 0 Z " fill="#264059" transform="translate(692,538)"/>
<path d="M0 0 C40.92 0 81.84 0 124 0 C124 8.58 124 17.16 124 26 C109.15 26 94.3 26 79 26 C79 62.3 79 98.6 79 136 C67.78 136 56.56 136 45 136 C45 99.7 45 63.4 45 26 C30.15 26 15.3 26 0 26 C0 17.42 0 8.84 0 0 Z " fill="#243F57" transform="translate(562,539)"/>
<path d="M0 0 C11.22 0 22.44 0 34 0 C34 35.97 34 71.94 34 109 C57.43 109 80.86 109 105 109 C105 117.91 105 126.82 105 136 C70.35 136 35.7 136 0 136 C0 91.12 0 46.24 0 0 Z " fill="#253F57" transform="translate(911,539)"/>
<path d="M0 0 C11.22 0 22.44 0 34 0 C34 45.21 34 90.42 34 137 C22.78 137 11.56 137 0 137 C0 91.79 0 46.58 0 0 Z " fill="#264059" transform="translate(1037,538)"/>
<path d="M0 0 C0.66 0 1.32 0 2 0 C2.18433594 0.91394531 2.36867188 1.82789063 2.55859375 2.76953125 C8.54794693 30.92238458 18.98065195 58.48745689 35.51879883 82.16601562 C36.24812622 83.23819336 36.24812622 83.23819336 36.9921875 84.33203125 C37.42901855 84.94796143 37.86584961 85.5638916 38.31591797 86.19848633 C39 88 39 88 38.23925781 90.11474609 C36.71030568 92.44070518 34.98851259 93.99631206 32.875 95.8125 C28.014573 100.07515853 23.27339492 104.44756715 18.5625 108.875 C17.86431152 109.52960205 17.16612305 110.1842041 16.44677734 110.85864258 C13.59404195 113.53807447 10.75536832 116.2200255 8 119 C4.0712502 117.69041673 2.85188101 115.32614112 0.6875 112 C0.25945068 111.34555908 -0.16859863 110.69111816 -0.60961914 110.0168457 C-36.66061033 53.8618407 -36.66061033 53.8618407 -34.7590332 34.55322266 C-33.86043416 31.53053085 -32.78860009 30.3941376 -30.46484375 28.29296875 C-29.73716797 27.62330078 -29.00949219 26.95363281 -28.25976562 26.26367188 C-27.49341797 25.57853516 -26.72707031 24.89339844 -25.9375 24.1875 C-24.44543285 22.82811886 -22.95454405 21.46744322 -21.46484375 20.10546875 C-20.72419678 19.43185303 -19.9835498 18.7582373 -19.22045898 18.06420898 C-16.3179762 15.36596907 -13.53508139 12.55920036 -10.74780273 9.74291992 C-8.75855301 7.75922754 -6.6974076 5.88812521 -4.5625 4.0625 C-2.22875842 2.08787121 -2.22875842 2.08787121 0 0 Z " fill="#254059" transform="translate(572,267)"/>
<path d="M0 0 C2.31 0 4.62 0 7 0 C7 20.13 7 40.26 7 61 C-14.12 61 -35.24 61 -57 61 C-57 41.2 -57 21.4 -57 1 C-51 1 -51 1 -49.40917969 2.45019531 C-48.79671387 3.50352051 -48.79671387 3.50352051 -48.171875 4.578125 C-47.67751953 5.40119141 -47.18316406 6.22425781 -46.67382812 7.07226562 C-46.12146484 8.03841797 -45.56910156 9.00457031 -45 10 C-43.96004317 11.7292654 -42.92003888 13.45850253 -41.87902832 15.18713379 C-40.3668672 17.71292861 -38.87954295 20.25289097 -37.39404297 22.79443359 C-36.24250981 24.76280333 -35.08438828 26.72719383 -33.92578125 28.69140625 C-33.18449821 29.95549608 -32.44359889 31.21981102 -31.703125 32.484375 C-31.03958008 33.61584961 -30.37603516 34.74732422 -29.69238281 35.91308594 C-28.23410702 38.57298772 -27.04397668 41.15725284 -26 44 C-25.34 44 -24.68 44 -24 44 C-23.7313916 43.12021484 -23.4627832 42.24042969 -23.18603516 41.33398438 C-22.05759811 38.1619102 -20.73747536 35.54471147 -19.0234375 32.65625 C-18.43836426 31.66302734 -17.85329102 30.66980469 -17.25048828 29.64648438 C-16.32212158 28.08897461 -16.32212158 28.08897461 -15.375 26.5 C-14.10891168 24.35444001 -12.84328481 22.20860764 -11.578125 20.0625 C-10.96517578 19.02609375 -10.35222656 17.9896875 -9.72070312 16.921875 C-7.48941531 13.13299126 -5.29801215 9.32253059 -3.125 5.5 C-2.50882812 4.4171875 -1.89265625 3.334375 -1.2578125 2.21875 C-0.63519531 1.12046875 -0.63519531 1.12046875 0 0 Z " fill="#808181" transform="translate(395,707)"/>
<path d="M0 0 C1.98 0 3.96 0 6 0 C8.09887695 2.33227539 8.09887695 2.33227539 9.98828125 5.59765625 C10.33328674 6.17940109 10.67829224 6.76114594 11.03375244 7.36051941 C12.14777567 9.24970013 13.22989816 11.15517103 14.3125 13.0625 C15.06616462 14.35312446 15.82194523 15.64251559 16.57983398 16.93066406 C18.0650133 19.461335 19.53878104 21.99804744 21.00195312 24.54150391 C23.46848969 28.8109268 26.00702995 33.03350127 28.5625 37.25 C29.71073072 39.16524579 30.8554136 41.08257321 32 43 C36.27922207 38.18068194 39.14961898 32.60716788 42.25 27 C55.22773424 3.77226576 55.22773424 3.77226576 58 1 C59.98 1 61.96 1 64 1 C64 20.8 64 40.6 64 61 C42.88 61 21.76 61 0 61 C0 40.87 0 20.74 0 0 Z " fill="#7F7F7F" transform="translate(443,707)"/>
<path d="M0 0 C1.98 0 3.96 0 6 0 C6 21.12 6 42.24 6 64 C-26 64 -26 64 -34 59 C-39.58229237 52.32551999 -41.51757324 46.47050275 -41.3046875 37.7421875 C-40.48240011 30.34160095 -36.54001536 26.09805978 -31 21.4453125 C-24.79233714 16.95930614 -18.48401697 17.15637755 -11 18 C-6.94002011 19.62520028 -4.06524048 21.93475952 -1 25 C-0.67 16.75 -0.34 8.5 0 0 Z " fill="#7E7F7F" transform="translate(614,704)"/>
<path d="M0 0 C5.3174032 3.13024491 8.5433049 7.2002272 10.5078125 13.09375 C10.59234177 15.53455528 10.62394698 17.94657348 10.60546875 20.38671875 C10.60297119 21.67860107 10.60047363 22.9704834 10.59790039 24.30151367 C10.58879639 25.94482666 10.57969238 27.58813965 10.5703125 29.28125 C10.5496875 34.499375 10.5290625 39.7175 10.5078125 45.09375 C-3.6821875 45.09375 -17.8721875 45.09375 -32.4921875 45.09375 C-32.4921875 30.24375 -32.4921875 15.39375 -32.4921875 0.09375 C-30.5121875 0.09375 -28.5321875 0.09375 -26.4921875 0.09375 C-26.1621875 1.74375 -25.8321875 3.39375 -25.4921875 5.09375 C-25.02167969 4.74441406 -24.55117187 4.39507813 -24.06640625 4.03515625 C-23.44378906 3.58011719 -22.82117187 3.12507812 -22.1796875 2.65625 C-21.56480469 2.20378906 -20.94992187 1.75132812 -20.31640625 1.28515625 C-14.77637516 -2.33306534 -6.06856313 -2.20675023 0 0 Z " fill="#FDFDFD" transform="translate(1072.4921875,722.90625)"/>
<path d="M0 0 C5.77029253 2.93576287 10.17574447 6.27744342 12.86328125 12.2421875 C14.6079961 18.6557203 14.89609889 26.07842311 12.64453125 32.3828125 C9.18132495 38.27810866 4.10945149 42.72149318 -2.4375 44.8125 C-10.18899664 45.58846647 -18.44939881 46.34128106 -24.89453125 41.3046875 C-30.85573168 35.53967848 -33.71040823 30.57470611 -33.9375 22.125 C-33.80212613 14.94266395 -32.30793428 10.14167258 -27.4375 4.8125 C-19.59647117 -2.22323398 -9.90888573 -3.25875401 0 0 Z " fill="#FCFCFC" transform="translate(817.4375,723.1875)"/>
<path d="M0 0 C5.41516539 3.07800118 8.80521625 7.4854325 11.5625 13 C11.71394564 15.59787529 11.79386981 18.15108821 11.8125 20.75 C11.833125 21.45382812 11.85375 22.15765625 11.875 22.8828125 C11.91785578 28.64691529 10.68266039 32.67580744 6.6953125 37.046875 C6.03273438 37.60890625 5.37015625 38.1709375 4.6875 38.75 C4.03007813 39.32234375 3.37265625 39.8946875 2.6953125 40.484375 C-4.17259232 45.36486414 -12.39619728 44.88731616 -20.4375 44 C-27.27230119 41.47065861 -31.35577018 36.45237181 -34.4375 30 C-36.78170859 22.96737422 -35.80387832 16.0301165 -32.83984375 9.33203125 C-25.89143144 -2.22284939 -12.08298157 -5.43734171 0 0 Z " fill="#FBFBFB" transform="translate(1015.4375,724)"/>
<path d="M0 0 C0.33 0 0.66 0 1 0 C1 15.51 1 31.02 1 47 C-15.5 47 -32 47 -49 47 C-49 32.15 -49 17.3 -49 2 C-46.05399448 4.94600552 -44.14425499 7.89624183 -42.09375 11.4609375 C-41.7277771 12.08851959 -41.3618042 12.71610168 -40.98474121 13.36270142 C-39.8187774 15.36428921 -38.65926417 17.36952597 -37.5 19.375 C-36.72048632 20.71639827 -35.94054282 22.05754686 -35.16015625 23.3984375 C-34.05685396 25.29439643 -32.95417318 27.19068474 -31.8548584 29.08895874 C-30.90586011 30.72749342 -29.95304054 32.36381317 -29 34 C-28.20432617 35.42046631 -28.20432617 35.42046631 -27.39257812 36.86962891 C-26.18484899 39.17784166 -26.18484899 39.17784166 -23.8125 39.8125 C-22.9153125 39.9053125 -22.9153125 39.9053125 -22 40 C-21.7328418 39.29061279 -21.46568359 38.58122559 -21.19042969 37.8503418 C-19.95662757 34.8961499 -18.52078001 32.18536105 -16.953125 29.39453125 C-16.355 28.32783203 -15.756875 27.26113281 -15.140625 26.16210938 C-14.51671875 25.05673828 -13.8928125 23.95136719 -13.25 22.8125 C-12.6415625 21.72646484 -12.033125 20.64042969 -11.40625 19.52148438 C-2.79189659 4.19787495 -2.79189659 4.19787495 0 0 Z " fill="#FBFBFB" transform="translate(394,721)"/>
<path d="M0 0 C0.33 0 0.66 0 1 0 C1 15.18 1 30.36 1 46 C-15.5 46 -32 46 -49 46 C-49 31.15 -49 16.3 -49 1 C-45.88023449 4.11976551 -44.12779736 6.14751664 -42.01171875 9.81640625 C-41.47337402 10.74114746 -40.9350293 11.66588867 -40.38037109 12.61865234 C-39.82172363 13.59012207 -39.26307617 14.5615918 -38.6875 15.5625 C-37.52838287 17.54618047 -36.36823697 19.52926018 -35.20703125 21.51171875 C-34.37679443 22.93363525 -34.37679443 22.93363525 -33.52978516 24.38427734 C-31.66984549 27.5645189 -29.79833202 30.73259672 -27.875 33.875 C-27.37742187 34.69742188 -26.87984375 35.51984375 -26.3671875 36.3671875 C-25.91601562 36.90601563 -25.46484375 37.44484375 -25 38 C-24.01 38 -23.02 38 -22 38 C-21.37339478 36.91283691 -21.37339478 36.91283691 -20.73413086 35.80371094 C-19.14827685 33.05259232 -17.56214144 30.30163618 -15.97583008 27.55078125 C-14.96609926 25.79959985 -13.95667793 24.04824002 -12.94726562 22.296875 C-11.62629292 20.00632134 -10.30386541 17.71660606 -8.97998047 15.42773438 C-7.64052252 13.10887005 -6.30595198 10.78776304 -4.97705078 8.46289062 C-4.34653809 7.36654297 -3.71602539 6.27019531 -3.06640625 5.140625 C-2.49994385 4.15094727 -1.93348145 3.16126953 -1.34985352 2.14160156 C-0.68167603 1.08150879 -0.68167603 1.08150879 0 0 Z " fill="#FDFDFD" transform="translate(499,722)"/>
<path d="M0 0 C4.63047133 2.67479878 7.25831093 6.2110868 9.375 11.12890625 C9.70594454 13.98268019 9.84825065 16.41813686 9.765625 19.25 C9.75996521 19.99476089 9.75430542 20.73952179 9.74847412 21.5068512 C9.7262735 23.86072005 9.6761137 26.21300595 9.625 28.56640625 C9.60491366 30.17250389 9.58666664 31.77862565 9.5703125 33.38476562 C9.52646309 37.30007915 9.45755471 41.21422535 9.375 45.12890625 C5.07004985 45.22825713 0.76571817 45.30059893 -3.54003906 45.34863281 C-5.00272252 45.36866957 -6.46532666 45.39590729 -7.92773438 45.43066406 C-10.0379601 45.4795385 -12.14712136 45.50195284 -14.2578125 45.51953125 C-15.52512207 45.54047852 -16.79243164 45.56142578 -18.09814453 45.58300781 C-22.27406775 45.04533529 -24.37681122 43.75921681 -27.625 41.12890625 C-30.52331934 36.78142724 -31.44311027 33.31027131 -30.625 28.12890625 C-28.04854792 24.00991813 -25.14422844 20.99066626 -20.625 19.12890625 C-18.05957031 18.90185547 -18.05957031 18.90185547 -15.203125 18.93359375 C-13.66591797 18.94326172 -13.66591797 18.94326172 -12.09765625 18.953125 C-11.03417969 18.96988281 -9.97070312 18.98664062 -8.875 19.00390625 C-7.25658203 19.01744141 -7.25658203 19.01744141 -5.60546875 19.03125 C-2.94508722 19.0547932 -0.28515664 19.08767826 2.375 19.12890625 C2.11837755 17.68880144 1.84409179 16.25183755 1.5625 14.81640625 C1.41167969 14.01589844 1.26085937 13.21539063 1.10546875 12.390625 C0.28121167 9.83851351 -0.53225641 8.77573837 -2.625 7.12890625 C-7.95904277 5.35089199 -14.60116985 4.93911741 -19.8984375 7.0234375 C-21.51705103 7.9898249 -23.07746537 9.05236042 -24.625 10.12890625 C-25.285 10.12890625 -25.945 10.12890625 -26.625 10.12890625 C-28.625 7.12890625 -28.625 7.12890625 -28.625 4.12890625 C-27.355447 3.48055971 -26.08430294 2.8353281 -24.8125 2.19140625 C-24.10480469 1.83175781 -23.39710938 1.47210937 -22.66796875 1.1015625 C-16.08933055 -2.03052337 -6.93371341 -2.30091978 0 0 Z " fill="#828283" transform="translate(686.625,722.87109375)"/>
<path d="M0 0 C5.47621623 3.23801167 9.39769199 7.27382503 11.5625 13.3125 C11.5625 16.6125 11.5625 19.9125 11.5625 23.3125 C-0.9775 23.3125 -13.5175 23.3125 -26.4375 23.3125 C-22.83747416 32.00029895 -22.83747416 32.00029895 -16.4375 37.3125 C-12.07481379 38.76672874 -7.99272032 38.96035356 -3.4375 38.3125 C-1.14690157 37.12622756 0.7657148 35.82565916 2.7734375 34.2109375 C3.65902344 33.76621094 3.65902344 33.76621094 4.5625 33.3125 C6.7890625 34.1640625 6.7890625 34.1640625 8.5625 35.3125 C8.5625 36.6325 8.5625 37.9525 8.5625 39.3125 C2.81683973 44.80834896 -3.09563728 45.05212608 -10.70703125 44.97607422 C-17.43704891 44.65380347 -22.40228595 42.95466991 -27.4375 38.3125 C-32.28869948 32.61234061 -33.96843643 26.03142329 -33.7421875 18.640625 C-32.76924223 11.20632524 -29.15540458 6.44902811 -23.53515625 1.72265625 C-16.68245462 -2.88409475 -7.51204685 -3.5275201 0 0 Z " fill="#818181" transform="translate(553.4375,723.6875)"/>
<path d="M0 0 C0.66 0 1.32 0 2 0 C2.35191406 0.81452637 2.70382813 1.62905273 3.06640625 2.46826172 C4.41051506 5.57804872 5.75530681 8.68753814 7.10073853 11.79675293 C7.69852731 13.17827858 8.29616411 14.55987002 8.89364624 15.94152832 C12.80019233 24.97294132 16.72785625 33.99294656 20.81445312 42.94482422 C23 47.78578663 23 47.78578663 23 50 C8.48 50 -6.04 50 -21 50 C-18.10320175 42.46832455 -15.2354053 35.01771362 -12.01171875 27.63671875 C-11.66365677 26.83385941 -11.31559479 26.03100006 -10.95698547 25.20381165 C-9.86966288 22.69727722 -8.77866734 20.1923627 -7.6875 17.6875 C-6.93920644 15.96429981 -6.19115788 14.24099321 -5.44335938 12.51757812 C-3.631723 8.34382228 -1.81679622 4.17151225 0 0 Z " fill="#F8FBFB" transform="translate(204,571)"/>
<path d="M0 0 C1.72265625 1.16796875 1.72265625 1.16796875 2.72265625 4.16796875 C1.78515625 6.35546875 1.78515625 6.35546875 0.72265625 8.16796875 C0.16320312 7.87921875 -0.39625 7.59046875 -0.97265625 7.29296875 C-8.33464999 3.88419995 -15.22572107 3.14285486 -23.27734375 4.16796875 C-26.22865502 5.34112813 -28.03017664 6.92080164 -30.27734375 9.16796875 C-30.9969712 14.62297175 -30.9969712 14.62297175 -28.57641602 19.18823242 C-26.04796845 21.36548434 -24.26433411 22.07638328 -21.06640625 22.94921875 C-20.06867187 23.23410156 -19.0709375 23.51898437 -18.04296875 23.8125 C-17.0065625 24.09480469 -15.97015625 24.37710938 -14.90234375 24.66796875 C-0.26206987 28.68578827 -0.26206987 28.68578827 4.59765625 34.35546875 C6.66781189 39.53085784 6.40097217 44.27582435 4.53515625 49.48046875 C1.47614618 54.0162423 -2.08717547 56.56522296 -7.27734375 58.16796875 C-17.11831527 59.23121114 -27.93059029 59.77602082 -36.6328125 54.5546875 C-38.27734375 53.16796875 -38.27734375 53.16796875 -40.27734375 50.16796875 C-39.28734375 48.51796875 -38.29734375 46.86796875 -37.27734375 45.16796875 C-36.76945313 45.50570312 -36.2615625 45.8434375 -35.73828125 46.19140625 C-27.64160002 51.43757049 -20.98003943 53.08507286 -11.27734375 52.16796875 C-7.77256725 50.83811306 -7.77256725 50.83811306 -5.27734375 49.16796875 C-4.61734375 49.16796875 -3.95734375 49.16796875 -3.27734375 49.16796875 C-1.78649543 44.69542378 -1.78649543 40.64051372 -3.27734375 36.16796875 C-7.30765117 34.49181286 -11.57828953 33.55334747 -15.80053711 32.46875 C-31.25877113 28.43770216 -31.25877113 28.43770216 -37.27734375 22.04296875 C-38.90865612 17.35294568 -39.22716398 13.05373469 -38.27734375 8.16796875 C-30.68803769 -5.51069202 -12.93267124 -5.63510383 0 0 Z " fill="#808181" transform="translate(770.27734375,709.83203125)"/>
<path d="M0 0 C4.71372937 2.63856166 6.99572627 6.2996788 8.6875 11.375 C9.16610966 18.5541449 8.08666469 23.45709699 3.375 29.1875 C-1.49025273 33.14758943 -6.12677163 33.92729718 -12.3125 33.375 C-18.24354966 31.23982212 -21.54885328 27.48237756 -24.625 22.0625 C-26.10043177 16.29490307 -26.24630915 11.34546614 -23.25 6.0625 C-17.50504521 -1.99974748 -9.05138018 -4.00414216 0 0 Z " fill="#FBFCFB" transform="translate(605.3125,729.625)"/>
<path d="M0 0 C5.77029253 2.93576287 10.17574447 6.27744342 12.86328125 12.2421875 C14.6079961 18.6557203 14.89609889 26.07842311 12.64453125 32.3828125 C9.18132495 38.27810866 4.10945149 42.72149318 -2.4375 44.8125 C-10.18899664 45.58846647 -18.44939881 46.34128106 -24.89453125 41.3046875 C-30.85573168 35.53967848 -33.71040823 30.57470611 -33.9375 22.125 C-33.80212613 14.94266395 -32.30793428 10.14167258 -27.4375 4.8125 C-19.59647117 -2.22323398 -9.90888573 -3.25875401 0 0 Z M-23.75 11.4375 C-27.3963208 16.5693589 -26.99593359 21.66973054 -26.4375 27.8125 C-24.77058472 33.19425503 -21.28822207 36.12912184 -16.4375 38.8125 C-11.33425799 40.51358067 -7.11876566 40.37771247 -2.25 38.125 C1.89327184 35.86868336 4.44711307 33.04327385 6.5625 28.8125 C7.05578755 22.95774289 7.41994288 17.62265719 4.875 12.25 C0.18756583 7.30919101 -3.35539198 4.70122512 -10.25 4.5 C-16.48700389 4.57262887 -19.65799132 6.79251717 -23.75 11.4375 Z " fill="#7F8080" transform="translate(817.4375,723.1875)"/>
<path d="M0 0 C5.41516539 3.07800118 8.80521625 7.4854325 11.5625 13 C11.71394564 15.59787529 11.79386981 18.15108821 11.8125 20.75 C11.833125 21.45382812 11.85375 22.15765625 11.875 22.8828125 C11.91785578 28.64691529 10.68266039 32.67580744 6.6953125 37.046875 C6.03273438 37.60890625 5.37015625 38.1709375 4.6875 38.75 C4.03007813 39.32234375 3.37265625 39.8946875 2.6953125 40.484375 C-4.17259232 45.36486414 -12.39619728 44.88731616 -20.4375 44 C-27.27230119 41.47065861 -31.35577018 36.45237181 -34.4375 30 C-36.78170859 22.96737422 -35.80387832 16.0301165 -32.83984375 9.33203125 C-25.89143144 -2.22284939 -12.08298157 -5.43734171 0 0 Z M-27.4375 12.6875 C-29.11859796 18.25613699 -29.59037015 23.79224555 -27.59375 29.34765625 C-24.74383278 34.49868906 -21.05099194 37.29341258 -15.4375 39 C-9.98635234 39.66943919 -6.22608865 38.66032703 -1.4375 36 C3.28660345 31.27589655 5.20609342 27.20765924 5.9375 20.625 C5.46631359 16.07019805 4.21569863 12.73232835 1.5625 9 C-3.71954461 4.79592368 -8.16561868 3.52198002 -14.796875 3.58984375 C-20.50519694 4.47649139 -24.1030532 8.20683711 -27.4375 12.6875 Z " fill="#7D7E7F" transform="translate(1015.4375,724)"/>
<path d="M0 0 C2.31 0 4.62 0 7 0 C7.01458252 0.87213135 7.02916504 1.7442627 7.04418945 2.64282227 C7.10557372 5.90659996 7.17978388 9.16957957 7.26245117 12.43286133 C7.29551994 13.8399778 7.32360704 15.24722116 7.34643555 16.65454102 C7.38031799 18.68820824 7.43264218 20.72073135 7.48828125 22.75390625 C7.51446533 23.97408447 7.54064941 25.1942627 7.56762695 26.45141602 C8.07465895 30.612743 9.07691495 33.28466954 11 37 C15.29751057 40.02779154 18.81586472 40.6256715 24 40 C28.32084794 38.58894818 31.19654434 37.34451286 33.58032227 33.35546875 C35.16006928 29.62166944 35.42538253 26.8920978 35.51171875 22.8515625 C35.52966995 22.19417084 35.54762115 21.53677917 35.56611633 20.85946655 C35.61984437 18.78137428 35.65399125 16.70350653 35.6875 14.625 C35.72070653 13.20700024 35.75519924 11.78902999 35.79101562 10.37109375 C35.87554651 6.9142782 35.94253568 3.45738362 36 0 C38.31 0 40.62 0 43 0 C43 15.18 43 30.36 43 46 C35.2965625 46.1546875 35.2965625 46.1546875 27.4375 46.3125 C25.83060303 46.35802002 24.22370605 46.40354004 22.56811523 46.45043945 C9.43811082 46.57834786 9.43811082 46.57834786 5.24536133 42.56713867 C4.83439209 42.04998291 4.42342285 41.53282715 4 41 C3.57678467 40.50024658 3.15356934 40.00049316 2.7175293 39.4855957 C-1.71232821 32.73782261 -0.42420253 23.73229163 -0.25 16 C-0.22990643 14.44663758 -0.2116607 12.8932501 -0.1953125 11.33984375 C-0.15153679 7.55927021 -0.08266974 3.77991489 0 0 Z " fill="#808180" transform="translate(866,722)"/>
<path d="M0 0 C5.3174032 3.13024491 8.5433049 7.2002272 10.5078125 13.09375 C10.5923512 15.5348276 10.62387036 17.94634213 10.60546875 20.38671875 C10.6040538 21.09274734 10.60263885 21.79877594 10.60118103 22.52619934 C10.59559014 24.77792626 10.58303938 27.02955321 10.5703125 29.28125 C10.56529632 30.80924335 10.56073362 32.33723827 10.55664062 33.86523438 C10.5456237 37.60811135 10.52836537 41.35091373 10.5078125 45.09375 C8.1978125 45.09375 5.8878125 45.09375 3.5078125 45.09375 C3.49322998 44.21638184 3.47864746 43.33901367 3.46362305 42.43505859 C3.4023157 39.15825679 3.32811917 35.88226056 3.24536133 32.60595703 C3.21224959 31.1920051 3.18417534 29.77792536 3.16137695 28.36376953 C3.12757475 26.32269177 3.07525286 24.28277072 3.01953125 22.2421875 C2.99334717 21.01677246 2.96716309 19.79135742 2.94018555 18.52880859 C2.46644376 14.76508925 1.47894819 12.31892311 -0.4921875 9.09375 C-5.15959567 5.75988702 -9.92607492 5.1860148 -15.4921875 6.09375 C-19.4510787 8.1465084 -22.21960297 10.26000576 -24.4921875 14.09375 C-24.99705719 17.47901241 -24.99705719 17.47901241 -25.00390625 21.265625 C-25.03083305 22.2892514 -25.03083305 22.2892514 -25.05830383 23.33355713 C-25.11229133 25.5035594 -25.14626333 27.67334325 -25.1796875 29.84375 C-25.21287102 31.31904074 -25.24736165 32.79430269 -25.28320312 34.26953125 C-25.36800908 37.87739427 -25.43487587 41.48533362 -25.4921875 45.09375 C-27.8021875 45.09375 -30.1121875 45.09375 -32.4921875 45.09375 C-32.4921875 30.24375 -32.4921875 15.39375 -32.4921875 0.09375 C-30.5121875 0.09375 -28.5321875 0.09375 -26.4921875 0.09375 C-26.1621875 1.74375 -25.8321875 3.39375 -25.4921875 5.09375 C-25.02167969 4.74441406 -24.55117187 4.39507813 -24.06640625 4.03515625 C-23.44378906 3.58011719 -22.82117187 3.12507812 -22.1796875 2.65625 C-21.56480469 2.20378906 -20.94992187 1.75132812 -20.31640625 1.28515625 C-14.77637516 -2.33306534 -6.06856313 -2.20675023 0 0 Z " fill="#818282" transform="translate(1072.4921875,722.90625)"/>
<path d="M0 0 C16.5 0 33 0 50 0 C50 2.31 50 4.62 50 7 C42.74 7 35.48 7 28 7 C28 24.82 28 42.64 28 61 C25.69 61 23.38 61 21 61 C21 43.18 21 25.36 21 7 C14.07 7 7.14 7 0 7 C0 4.69 0 2.38 0 0 Z " fill="#838484" transform="translate(278,707)"/>
<path d="M0 0 C0.47566406 0.28875 0.95132812 0.5775 1.44140625 0.875 C0.45140625 2.525 -0.53859375 4.175 -1.55859375 5.875 C-2.63109375 5.545 -3.70359375 5.215 -4.80859375 4.875 C-10.7241824 3.40666639 -18.41933948 2.10655343 -23.90234375 5.1953125 C-25.90200011 6.86249206 -25.90200011 6.86249206 -25.80859375 10.0625 C-25.68484375 11.4546875 -25.68484375 11.4546875 -25.55859375 12.875 C-19.90154091 15.48935601 -14.44244189 16.96321672 -8.34375 18.16015625 C-3.37746432 19.27116089 -0.79591421 20.97799915 2.44140625 24.875 C4.2201675 28.43252249 3.58426487 32.15290308 2.44140625 35.875 C-0.2514802 39.14155901 -4.01635105 42.62888891 -8.38696289 43.05200195 C-26.79386979 43.56313522 -26.79386979 43.56313522 -34.55859375 38.875 C-34.22859375 37.225 -33.89859375 35.575 -33.55859375 33.875 C-30.55859375 32.875 -30.55859375 32.875 -27.62109375 34.25 C-26.61046875 34.78625 -25.59984375 35.3225 -24.55859375 35.875 C-18.00350017 37.92431497 -10.8541764 37.52577164 -4.55859375 34.875 C-4.55859375 32.565 -4.55859375 30.255 -4.55859375 27.875 C-9.81314518 24.96857624 -14.81716455 23.73843997 -20.63671875 22.58984375 C-25.82535474 21.43131243 -28.73595421 19.59275004 -32.55859375 15.875 C-34.19251102 12.60716546 -34.23055909 9.3933091 -33.55859375 5.875 C-26.7096504 -5.96126115 -11.11616898 -5.89586863 0 0 Z " fill="#808081" transform="translate(1127.55859375,725.125)"/>
<path d="M0 0 C35.97 0 71.94 0 109 0 C109 8.58 109 17.16 109 26 C84.25 26 59.5 26 34 26 C34 25.67 34 25.34 34 25 C58.42 25 82.84 25 108 25 C108 17.41 108 9.82 108 2 C73.02 2 38.04 2 2 2 C2 45.89 2 89.78 2 135 C12.23 135 22.46 135 33 135 C33 119.16 33 103.32 33 87 C33.33 87 33.66 87 34 87 C34 103.5 34 120 34 137 C22.78 137 11.56 137 0 137 C0 91.79 0 46.58 0 0 Z " fill="#3C5061" transform="translate(303,538)"/>
<path d="M0 0 C2.31 0 4.62 0 7 0 C7 3.3 7 6.6 7 10 C11.62 10 16.24 10 21 10 C21 11.98 21 13.96 21 16 C16.38 16 11.76 16 7 16 C7.33 26.89 7.66 37.78 8 49 C15.41517801 50.09161951 15.41517801 50.09161951 22 49 C22.33 50.65 22.66 52.3 23 54 C18.1176188 57.2549208 12.70213988 56.69964906 7 56 C4.13502827 54.64810771 3.0869815 53.49278346 1 51 C-0.1687481 47.4937557 -0.12514267 44.3522134 -0.09765625 40.70703125 C-0.0962413 40.00100266 -0.09482635 39.29497406 -0.09336853 38.56755066 C-0.08777764 36.31582374 -0.07522688 34.06419679 -0.0625 31.8125 C-0.05748382 30.28450665 -0.05292112 28.75651173 -0.04882812 27.22851562 C-0.0378112 23.48563865 -0.02055287 19.74283627 0 16 C-2.97 16 -5.94 16 -9 16 C-9 14.02 -9 12.04 -9 10 C-6.03 10 -3.06 10 0 10 C0 6.7 0 3.4 0 0 Z " fill="#818282" transform="translate(927,712)"/>
<path d="M0 0 C2.31 0 4.62 0 7 0 C7 21.12 7 42.24 7 64 C4.69 64 2.38 64 0 64 C0 42.88 0 21.76 0 0 Z " fill="#7D7E7E" transform="translate(843,704)"/>
<path d="M0 0 C2.88981424 2.04401495 4.67747932 3.81043003 6.5625 6.8125 C6.8925 8.7925 7.2225 10.7725 7.5625 12.8125 C-2.9975 12.8125 -13.5575 12.8125 -24.4375 12.8125 C-23.30467448 7.14837239 -21.65209301 3.82576637 -17.375 -0.0625 C-11.67597508 -2.24510529 -5.72230421 -1.976796 0 0 Z " fill="#FBFBFA" transform="translate(551.4375,729.1875)"/>
<path d="M0 0 C1.46856445 0.03383789 1.46856445 0.03383789 2.96679688 0.06835938 C5.37527455 0.12710273 7.78059078 0.20917871 10.1875 0.3125 C10.53170021 7.66308666 10.53170021 7.66308666 8.98046875 10.58984375 C8.18576172 11.41162109 8.18576172 11.41162109 7.375 12.25 C6.85292969 12.81589844 6.33085938 13.38179687 5.79296875 13.96484375 C2.07348011 17.08704224 -2.53561808 16.64685029 -7.140625 16.5859375 C-9.8125 16.3125 -9.8125 16.3125 -12.9375 14.75 C-15.4588741 11.47221367 -15.95744251 9.44336167 -15.8125 5.3125 C-11.5943691 -0.9112667 -6.83916727 -0.29855331 0 0 Z " fill="#FBFBFB" transform="translate(678.8125,746.6875)"/>
<path d="M0 0 C25.74 0 51.48 0 78 0 C78 8.58 78 17.16 78 26 C41.04 26 4.08 26 -34 26 C-33.67 25.34 -33.34 24.68 -33 24 C2.97 24 38.94 24 76 24 C76 16.41 76 8.82 76 1 C50.92 1 25.84 1 0 1 C0 0.67 0 0.34 0 0 Z " fill="#324556" transform="translate(470,649)"/>
<path d="M0 0 C2.31 0 4.62 0 7 0 C7 15.18 7 30.36 7 46 C4.69 46 2.38 46 0 46 C0 30.82 0 15.64 0 0 Z " fill="#828383" transform="translate(961,722)"/>
<path d="M0 0 C1.98 0 3.96 0 6 0 C6 14.85 6 29.7 6 45 C4.02 45 2.04 45 0 45 C0 30.15 0 15.3 0 0 Z " fill="#777878" transform="translate(637,723)"/>
<path d="M0 0 C21.45 0 42.9 0 65 0 C65 8.25 65 16.5 65 25 C43.55 25 22.1 25 0 25 C0 24.67 0 24.34 0 24 C21.12 24 42.24 24 64 24 C63.67 16.74 63.34 9.48 63 2 C60.36 2.33 57.72 2.66 55 3 C54.34 2.67 53.68 2.34 53 2 C51.30456409 1.90948931 49.60556022 1.88245128 47.90771484 1.88647461 C46.84676605 1.88655014 45.78581726 1.88662567 44.69271851 1.88670349 C43.54373077 1.89186478 42.39474304 1.89702606 41.2109375 1.90234375 C39.45059677 1.90446617 39.45059677 1.90446617 37.6546936 1.90663147 C33.89477015 1.91224311 30.13490555 1.92479762 26.375 1.9375 C23.83073002 1.9425135 21.28645912 1.94707667 18.7421875 1.95117188 C12.49477147 1.96221632 6.24738994 1.97896582 0 2 C0 1.34 0 0.68 0 0 Z " fill="#1D3347" transform="translate(338,599)"/>
<path d="M0 0 C0 3.3 0 6.6 0 10 C-0.33 10 -0.66 10 -1 10 C-1.495 7.525 -1.495 7.525 -2 5 C-2.78375 5.825 -3.5675 6.65 -4.375 7.5 C-7 10 -7 10 -9 10 C-9.26192139 10.58644287 -9.52384277 11.17288574 -9.79370117 11.77709961 C-11.06525364 14.12024578 -12.42357297 15.68197297 -14.30078125 17.56640625 C-14.94853516 18.21673828 -15.59628906 18.86707031 -16.26367188 19.53710938 C-16.93978516 20.20548828 -17.61589844 20.87386719 -18.3125 21.5625 C-18.97701172 22.23474609 -19.64152344 22.90699219 -20.32617188 23.59960938 C-23.72331342 26.9833102 -26.88114147 29.53543711 -31 32 C-33.05808732 33.97717792 -34.92818656 36.10827833 -36.8125 38.25 C-42.05140729 44.06716024 -47.46816507 49.28952203 -53.6875 54.0625 C-56.54553904 56.45707325 -58.68018615 59.08366259 -61 62 C-61.99 61.67 -62.98 61.34 -64 61 C-63.00363813 59.97561545 -62.00260713 58.95577287 -61 57.9375 C-60.443125 57.36902344 -59.88625 56.80054688 -59.3125 56.21484375 C-57.42840533 54.41031388 -55.51489708 52.72560002 -53.53125 51.03515625 C-47.55319382 45.83826042 -42.06298175 40.13192398 -36.5 34.5 C-24.12823002 21.97490622 -24.12823002 21.97490622 -17.84130859 16.61865234 C-14.41414858 13.60591422 -11.25546132 10.31938447 -8.0625 7.0625 C-6.74316207 5.71781456 -5.42167156 4.37523646 -4.09765625 3.03515625 C-3.52539307 2.4512915 -2.95312988 1.86742676 -2.36352539 1.26586914 C-1 0 -1 0 0 0 Z " fill="#E3FBF4" transform="translate(844,214)"/>
<path d="M0 0 C0.66 0.33 1.32 0.66 2 1 C-9.98227183 14.3906763 -9.98227183 14.3906763 -16 19 C-16.66 19 -17.32 19 -18 19 C-18.21527344 19.54140625 -18.43054688 20.0828125 -18.65234375 20.640625 C-20.47286795 23.82786158 -22.95758862 26.20846034 -25.5625 28.75 C-26.06974609 29.25660156 -26.57699219 29.76320313 -27.09960938 30.28515625 C-30.85951188 34 -30.85951188 34 -32 34 C-31.40530649 38.85666369 -30.38314694 43.31266871 -29 48 C-28.56011526 49.85360236 -28.12287911 51.70783418 -27.6875 53.5625 C-25.82311807 61.12519799 -23.49054672 69.01890656 -20 76 C-20.99 76.99 -20.99 76.99 -22 78 C-23.38160179 74.0063376 -24.75002193 70.0084432 -26.10766602 66.0065918 C-26.56880123 64.65289559 -27.03319163 63.3003028 -27.5012207 61.94897461 C-36.26823307 36.61051584 -36.26823307 36.61051584 -34.2824707 30.95727539 C-32.90633243 29.30378856 -31.5409191 28.25137711 -29.75 27.0625 C-28.53362778 26.10776193 -27.32024216 25.14921039 -26.109375 24.1875 C-25.44873047 23.68734375 -24.78808594 23.1871875 -24.10742188 22.671875 C-20.17763906 19.55427158 -16.62003507 16.02927064 -13 12.5625 C-11.58386624 11.22990222 -10.16722431 9.89784418 -8.75 8.56640625 C-5.78176087 5.75919409 -2.86909028 2.90831612 0 0 Z " fill="#2E866E" transform="translate(608,233)"/>
<path d="M0 0 C0.33 0 0.66 0 1 0 C1 15.18 1 30.36 1 46 C10.9 46 20.8 46 31 46 C31.33 30.82 31.66 15.64 32 0 C32.33 0 32.66 0 33 0 C33 15.84 33 31.68 33 48 C21.78 48 10.56 48 -1 48 C-0.67 32.16 -0.34 16.32 0 0 Z " fill="#23384B" transform="translate(748,627)"/>
<path d="M0 0 C0.495 1.485 0.495 1.485 1 3 C0.01 3.33 -0.98 3.66 -2 4 C-2.67724597 5.32799101 -3.34174977 6.66249155 -4 8 C-8.83062279 13.3603751 -14.1611661 18.24271233 -19.640625 22.9296875 C-25.21284178 27.81921547 -30.58266253 32.94026767 -36 38 C-36.99 37.67 -37.98 37.34 -39 37 C-26.11778632 23.94104863 -26.11778632 23.94104863 -19.7578125 18.5390625 C-17.31414743 16.39949798 -15.07147136 14.08195707 -12.796875 11.765625 C-10.23420129 9.24751953 -7.52543569 6.91377295 -4.796875 4.578125 C-3.12659942 3.11118731 -1.55211328 1.59043707 0 0 Z " fill="#2E8C66" transform="translate(649,195)"/>
<path d="M0 0 C0.33 0 0.66 0 1 0 C1 1.98 1 3.96 1 6 C-11.54 6 -24.08 6 -37 6 C-37 5.67 -37 5.34 -37 5 C-35.02 4.67 -33.04 4.34 -31 4 C-33.97 3.505 -33.97 3.505 -37 3 C-37 2.67 -37 2.34 -37 2 C-26.44 2 -15.88 2 -5 2 C-5 2.33 -5 2.66 -5 3 C-7.31 3.33 -9.62 3.66 -12 4 C-8.04 4.33 -4.08 4.66 0 5 C0 3.35 0 1.7 0 0 Z " fill="#747574" transform="translate(564,741)"/>
<path d="M0 0 C3.4375 1.5 3.4375 1.5 6 3 C6 3.99 6 4.98 6 6 C5.34 5.67 4.68 5.34 4 5 C4 4.34 4 3.68 4 3 C-2.69934149 2.20121607 -2.69934149 2.20121607 -9.01953125 4.06640625 C-11.1622871 5.9290633 -13.06073928 7.92385029 -15 10 C-16.19757994 11.19826603 -17.39982837 12.3918756 -18.60546875 13.58203125 C-22.09502079 17.0307467 -25.55267137 20.50909559 -29 24 C-29.66 23.01 -30.32 22.02 -31 21 C-9.37136697 -0.98645968 -9.37136697 -0.98645968 0 0 Z " fill="#35936E" transform="translate(700,234)"/>
<path d="M0 0 C0.33 0.66 0.66 1.32 1 2 C-3.455 2.495 -3.455 2.495 -8 3 C0.81739466 13.31822779 10.11866349 21.94411099 21 30 C20.505 31.485 20.505 31.485 20 33 C15.12313895 28.87342527 10.39827785 24.63131801 5.75 20.25 C0.21284482 15.04278716 0.21284482 15.04278716 -5.41796875 9.9375 C-5.93133789 9.47956055 -6.44470703 9.02162109 -6.97363281 8.54980469 C-8.35224489 7.32570017 -9.73648977 6.10794786 -11.12109375 4.890625 C-13 3 -13 3 -13 1 C-8.61414671 0.29826347 -4.44209357 -0.10834375 0 0 Z " fill="#3C906E" transform="translate(808,15)"/>
<path d="M0 0 C1.72212209 3.44424418 1.01497631 7.40542215 0.9140625 11.1875 C0.89282318 12.11860596 0.87158386 13.04971191 0.84970093 14.0090332 C0.80332562 15.9930609 0.75438876 17.97703009 0.703125 19.9609375 C0.62674339 22.93218222 0.55872798 25.90352052 0.4921875 28.875 C0.21601397 40.59948704 -0.26389668 52.29540921 -1 64 C-3.18389006 60.72416491 -3.21798328 60.06906285 -3.01171875 56.328125 C-2.96523193 55.36769287 -2.91874512 54.40726074 -2.87084961 53.41772461 C-2.81034424 52.37237549 -2.74983887 51.32702637 -2.6875 50.25 C-2.57662525 48.00658404 -2.46732832 45.76308969 -2.359375 43.51953125 C-2.29943359 42.31635254 -2.23949219 41.11317383 -2.17773438 39.87353516 C-1.85763863 32.89738262 -1.65252736 25.91754117 -1.4375 18.9375 C-1.3936117 17.54394095 -1.3495881 16.15038615 -1.30541992 14.75683594 C-1.20262842 11.50458691 -1.10083426 8.25231019 -1 5 C-1.99 4.67 -2.98 4.34 -4 4 C-2.68 2.68 -1.36 1.36 0 0 Z " fill="#2B826C" transform="translate(846,153)"/>
<path d="M0 0 C0.33 0.66 0.66 1.32 1 2 C-4.01178619 7.87020805 -9.24941099 13.46121546 -14.6875 18.9375 C-15.43322266 19.70384766 -16.17894531 20.47019531 -16.94726562 21.25976562 C-17.66978516 21.98744141 -18.39230469 22.71511719 -19.13671875 23.46484375 C-19.78342529 24.120896 -20.43013184 24.77694824 -21.09643555 25.45288086 C-23.10217079 27.08303915 -24.4732091 27.59903901 -27 28 C-21.75541414 21.63409696 -15.97902678 15.86429388 -10.125 10.0625 C-9.14039081 9.08291763 -8.156014 8.10310163 -7.171875 7.12304688 C-4.78351797 4.74639748 -2.39284788 2.37212644 0 0 Z " fill="#E6FEF7" transform="translate(850,93)"/>
<path d="M0 0 C3 0.25 3 0.25 5 2.25 C5.25 4.75 5.25 4.75 5 7.25 C3 9.25 3 9.25 0 9.5 C-3 9.25 -3 9.25 -5 7.25 C-5.25 4.75 -5.25 4.75 -5 2.25 C-3 0.25 -3 0.25 0 0 Z " fill="#848585" transform="translate(640,703.75)"/>
<path d="M0 0 C0 4.25174696 -2.45759744 6.02553324 -5.25 8.9375 C-5.78270508 9.50364014 -6.31541016 10.06978027 -6.86425781 10.65307617 C-12.45291359 16.55685094 -18.2060554 22.29851196 -24 28 C-24.99 27.67 -25.98 27.34 -27 27 C-18.09 18.09 -9.18 9.18 0 0 Z " fill="#368D6B" transform="translate(777,105)"/>
<path d="M0 0 C3.0625 0.1875 3.0625 0.1875 5.0625 2.1875 C5.3125 4.6875 5.3125 4.6875 5.0625 7.1875 C3.0625 9.1875 3.0625 9.1875 0.625 9.5 C-1.9375 9.1875 -1.9375 9.1875 -3.8125 8 C-4.9375 6.1875 -4.9375 6.1875 -4.6875 3.5625 C-3.63578571 0.23207143 -3.63578571 0.23207143 0 0 Z " fill="#828382" transform="translate(963.9375,703.8125)"/>
<path d="M0 0 C0 4.08191331 -2.08595822 5.68907883 -4.75 8.5 C-5.24008545 9.02609863 -5.7301709 9.55219727 -6.23510742 10.09423828 C-10.71053828 14.83109608 -15.46838296 19.22464289 -20.31640625 23.57421875 C-23.31997372 26.28923388 -26.17745889 29.09905497 -29 32 C-29.66 31.67 -30.32 31.34 -31 31 C-20.77 20.77 -10.54 10.54 0 0 Z " fill="#2E8664" transform="translate(791,207)"/>
<path d="M0 0 C0 4.93300887 -3.7069204 7.56576662 -7 11 C-9.86219758 13.83125846 -12.79337158 16.58032767 -15.75 19.3125 C-17.2451014 20.70409438 -18.73990512 22.09600868 -20.234375 23.48828125 C-20.88631836 24.09196533 -21.53826172 24.69564941 -22.20996094 25.31762695 C-23.83920562 26.84887697 -25.4290046 28.40929134 -27 30 C-27.66 29.67 -28.32 29.34 -29 29 C-19.43 19.43 -9.86 9.86 0 0 Z " fill="#2E8964" transform="translate(835,164)"/>
<path d="M0 0 C0.66 0 1.32 0 2 0 C3.25 2.625 3.25 2.625 4 6 C1.45032604 10.55210082 -1.86494279 14.06601537 -5.625 17.625 C-10.03831546 21.77003254 -10.03831546 21.77003254 -13 27 C-13.33 26.34 -13.66 25.68 -14 25 C-11.15065487 17.71339344 -6.08008733 12.52747957 -0.26953125 7.50390625 C0.14941406 7.00761719 0.56835938 6.51132812 1 6 C0.76716851 2.85078091 0.76716851 2.85078091 0 0 Z " fill="#DBF6ED" transform="translate(541,344)"/>
<path d="M0 0 C0.33 0.99 0.66 1.98 1 3 C-0.0828125 3.804375 -0.0828125 3.804375 -1.1875 4.625 C-3.37720019 6.47408016 -4.8458209 7.97500986 -6.5625 10.1875 C-9.65171504 13.75197889 -9.65171504 13.75197889 -13 14 C-13 14.66 -13 15.32 -13 16 C-14.64453125 17.62109375 -14.64453125 17.62109375 -16.8125 19.4375 C-19.31102718 21.54463676 -21.7242056 23.65241398 -24 26 C-24.99 25.67 -25.98 25.34 -27 25 C-26.35933594 24.43152344 -25.71867188 23.86304688 -25.05859375 23.27734375 C-20.48703459 19.19632447 -16.02219138 15.0724943 -11.73046875 10.69921875 C-9.15721215 8.17243179 -6.43469905 5.82900488 -3.69921875 3.48046875 C-2.42270555 2.36828828 -1.19716986 1.19716986 0 0 Z " fill="#318B68" transform="translate(669,317)"/>
<path d="M0 0 C0.33 0.99 0.66 1.98 1 3 C-4.00380341 8.21673122 -9.06866384 13.01243519 -14.84765625 17.359375 C-18.01676055 19.77502619 -20.99780266 22.38106189 -24 25 C-22.38307931 20.91873633 -19.45727938 18.19393123 -16.375 15.1875 C-15.5718335 14.39400146 -15.5718335 14.39400146 -14.75244141 13.58447266 C-11.1223823 10.02411766 -7.40223453 6.59430017 -3.5234375 3.3046875 C-2.30041699 2.25728019 -1.13860468 1.13860468 0 0 Z " fill="#318966" transform="translate(623,360)"/>
<path d="M0 0 C0.66 0.33 1.32 0.66 2 1 C-0.24880553 3.41778053 -2.49925661 5.83402346 -4.75 8.25 C-5.38421875 8.93191406 -6.0184375 9.61382812 -6.671875 10.31640625 C-7.90100292 11.63515808 -9.13458397 12.94977652 -10.37304688 14.25976562 C-11.68172767 15.65956705 -12.94945602 17.09759809 -14.203125 18.546875 C-14.79609375 19.02640625 -15.3890625 19.5059375 -16 20 C-18.25 19.75 -18.25 19.75 -20 19 C-15.78781944 14.66935186 -11.44298473 10.5882631 -6.8671875 6.64453125 C-4.46487962 4.52869105 -2.22791166 2.2975339 0 0 Z " fill="#DFF7F1" transform="translate(634,405)"/>
<path d="M0 0 C0.66 0.33 1.32 0.66 2 1 C-13.93494366 18.80794789 -13.93494366 18.80794789 -20 20 C-17.12854876 16.05175455 -13.85721298 13.05906898 -10.171875 9.9140625 C-6.61395174 6.77848265 -3.31216096 3.39144141 0 0 Z " fill="#358F6C" transform="translate(608,233)"/>
<path d="M0 0 C0 3 0 3 -2.125 5.5 C-8.07664746 10.67534562 -12.78334902 11.42360398 -20.375 11.1875 C-21.62216797 11.16719727 -21.62216797 11.16719727 -22.89453125 11.14648438 C-24.92997066 11.11139059 -26.96507291 11.05759228 -29 11 C-29 10.67 -29 10.34 -29 10 C-27.64068359 9.96132813 -27.64068359 9.96132813 -26.25390625 9.921875 C-15.31427733 9.41251662 -8.06386668 7.44356924 0 0 Z " fill="#4C9A7B" transform="translate(579,401)"/>
<path d="M0 0 C0.66 0.33 1.32 0.66 2 1 C-3.32188449 7.42193882 -8.9705449 13.41774419 -16 18 C-16.99 18 -17.98 18 -19 18 C-18.53102295 17.56131592 -18.0620459 17.12263184 -17.57885742 16.6706543 C-15.4479108 14.6767969 -13.31769829 12.68215687 -11.1875 10.6875 C-10.44951172 9.99720703 -9.71152344 9.30691406 -8.95117188 8.59570312 C-8.23896484 7.92861328 -7.52675781 7.26152344 -6.79296875 6.57421875 C-6.1383667 5.96151123 -5.48376465 5.34880371 -4.80932617 4.7175293 C-3.17905198 3.16996771 -1.58078486 1.59789755 0 0 Z " fill="#D8F6EC" transform="translate(666,235)"/>
<path d="M0 0 C0 3 0 3 -1.9375 5.125 C-2.95806295 6.08362127 -3.97895303 7.04189428 -5 8 C-6.60819553 9.60012766 -8.21212418 11.20455142 -9.8125 12.8125 C-11.20833333 14.20833333 -12.60416667 15.60416667 -14 17 C-14.99 16.67 -15.98 16.34 -17 16 C-12.73502369 11.61507124 -8.34080571 7.46548545 -3.69921875 3.48046875 C-2.42270555 2.36828828 -1.19716986 1.19716986 0 0 Z " fill="#378D6A" transform="translate(519,316)"/>
<path d="M0 0 C0.33 0.99 0.66 1.98 1 3 C-0.36176169 4.47070263 -1.74007683 5.92608698 -3.125 7.375 C-3.89070312 8.18710938 -4.65640625 8.99921875 -5.4453125 9.8359375 C-8.22448161 12.19015721 -10.50506564 13.07814775 -14 14 C-13.04882866 12.8274869 -12.08882991 11.66212985 -11.125 10.5 C-10.59132813 9.8503125 -10.05765625 9.200625 -9.5078125 8.53125 C-9.01023437 8.0259375 -8.51265625 7.520625 -8 7 C-7.34 7 -6.68 7 -6 7 C-6 6.34 -6 5.68 -6 5 C-5.34 5 -4.68 5 -4 5 C-4 4.34 -4 3.68 -4 3 C-2 1.375 -2 1.375 0 0 Z " fill="#D8F4ED" transform="translate(810,133)"/>
<path d="M0 0 C0 3.10551666 -0.5393715 4.35261084 -2 7 C-1.41992188 7.09796875 -0.83984375 7.1959375 -0.2421875 7.296875 C5.09646432 8.31879515 8.68885232 9.68373256 13 13 C12.67 13.66 12.34 14.32 12 15 C11.35933594 14.67386719 10.71867188 14.34773437 10.05859375 14.01171875 C5.09706645 11.5050753 0.13786611 9.12216209 -5 7 C-3.70700306 4.11562221 -2.34058637 2.12780579 0 0 Z " fill="#3C906F" transform="translate(733,149)"/>
<path d="M0 0 C1.32 1.32 2.64 2.64 4 4 C0.04 7.96 -3.92 11.92 -8 16 C-8.33 14.68 -8.66 13.36 -9 12 C-3.25 7 -3.25 7 -1 7 C-1 6.34 -1 5.68 -1 5 C-0.34 5 0.32 5 1 5 C0.67 3.35 0.34 1.7 0 0 Z " fill="#C7ECE0" transform="translate(828,48)"/>
<path d="M0 0 C0.33 0.99 0.66 1.98 1 3 C0.29875 3.515625 -0.4025 4.03125 -1.125 4.5625 C-4.49467357 7.41939716 -7.21156604 10.58871997 -10 14 C-11.32 13.67 -12.64 13.34 -14 13 C-9.38 8.71 -4.76 4.42 0 0 Z " fill="#38906D" transform="translate(594,387)"/>
<path d="M0 0 C2.1875 -0.3125 2.1875 -0.3125 5 0 C7.625 2.4375 7.625 2.4375 10 5 C10.99 5.33 11.98 5.66 13 6 C13.33 6.66 13.66 7.32 14 8 C17.02934491 8.65772428 17.02934491 8.65772428 20 9 C18.68 10.32 17.36 11.64 16 13 C15.43152344 12.46890625 14.86304688 11.9378125 14.27734375 11.390625 C9.74016662 7.23975177 5.47991683 3.7982554 0 1 C0 0.67 0 0.34 0 0 Z " fill="#3C9271" transform="translate(748,165)"/>
<path d="M0 0 C0 3.66207821 -0.63671596 4.0211016 -3.140625 6.5390625 C-4.12869141 7.53292969 -4.12869141 7.53292969 -5.13671875 8.546875 C-5.83410156 9.23265625 -6.53148437 9.9184375 -7.25 10.625 C-7.93191406 11.31851562 -8.61382813 12.01203125 -9.31640625 12.7265625 C-9.98027344 13.3865625 -10.64414062 14.0465625 -11.328125 14.7265625 C-11.9355957 15.33064941 -12.54306641 15.93473633 -13.16894531 16.55712891 C-15.1325008 18.10441063 -16.55664069 18.59232422 -19 19 C-12.66666667 12.66666667 -6.33333333 6.33333333 0 0 Z " fill="#D9F7ED" transform="translate(705,339)"/>
<path d="M0 0 C1.42336877 2.84673755 1.00758837 5.14615347 0.87890625 8.3203125 C0.83056641 9.57714844 0.78222656 10.83398438 0.73242188 12.12890625 C0.67634766 13.44761719 0.62027344 14.76632813 0.5625 16.125 C0.50927587 17.46482438 0.45653549 18.80466808 0.40429688 20.14453125 C0.27429992 23.42990887 0.13932314 26.71500678 0 30 C-0.33 30 -0.66 30 -1 30 C-1 21.75 -1 13.5 -1 5 C-1.99 4.67 -2.98 4.34 -4 4 C-2.68 2.68 -1.36 1.36 0 0 Z " fill="#368470" transform="translate(846,153)"/>
<path d="M0 0 C-1.53643852 3.68069887 -3.78150945 5.98775204 -6.625 8.75 C-7.85089844 9.94882812 -7.85089844 9.94882812 -9.1015625 11.171875 C-9.72804688 11.77515625 -10.35453125 12.3784375 -11 13 C-11.66 12.34 -12.32 11.68 -13 11 C-11.21427748 9.16052663 -9.42197551 7.32842259 -7.625 5.5 C-7.11710937 4.97535156 -6.60921875 4.45070313 -6.0859375 3.91015625 C-2.2265625 0 -2.2265625 0 0 0 Z " fill="#394C5E" transform="translate(1331,577)"/>
<path d="M0 0 C0.99 0.33 1.98 0.66 3 1 C1.2725597 2.5852517 -0.45687957 4.16822626 -2.1875 5.75 C-3.15042969 6.63171875 -4.11335937 7.5134375 -5.10546875 8.421875 C-7.67417739 10.70979363 -10.29160372 12.88081607 -13 15 C-13.66 14.67 -14.32 14.34 -15 14 C-10.05 9.38 -5.1 4.76 0 0 Z " fill="#388C6B" transform="translate(639,345)"/>
<path d="M0 0 C0.99 0.33 1.98 0.66 3 1 C-0.63 4.63 -4.26 8.26 -8 12 C-8.33 11.01 -8.66 10.02 -9 9 C-6.03 6.03 -3.06 3.06 0 0 Z " fill="#2A8762" transform="translate(587,253)"/>
<path d="M0 0 C0 2.31 0 4.62 0 7 C-3.3 7 -6.6 7 -10 7 C-8.68 6.01 -7.36 5.02 -6 4 C-5.113125 3.278125 -4.22625 2.55625 -3.3125 1.8125 C-1 0 -1 0 0 0 Z " fill="#F6F6F6" transform="translate(614,761)"/>
<path d="M0 0 C0.33 0.66 0.66 1.32 1 2 C-3.66666667 6.66666667 -8.33333333 11.33333333 -13 16 C-13.66 15.67 -14.32 15.34 -15 15 C-10.05 10.05 -5.1 5.1 0 0 Z " fill="#CFF3E8" transform="translate(785,157)"/>
<path d="M0 0 C0 3.3 0 6.6 0 10 C-0.33 10 -0.66 10 -1 10 C-1.33 8.35 -1.66 6.7 -2 5 C-3.65 6.65 -5.3 8.3 -7 10 C-7.99 9.67 -8.98 9.34 -10 9 C-8.52386015 7.49702124 -7.04400843 5.99768715 -5.5625 4.5 C-4.73878906 3.6646875 -3.91507813 2.829375 -3.06640625 1.96875 C-1 0 -1 0 0 0 Z " fill="#D2EEE9" transform="translate(844,214)"/>
<path d="M0 0 C8.41192037 -0.10094304 16.64399592 -0.10102642 25 1 C25 1.99 25 2.98 25 4 C24.36835937 3.86722656 23.73671875 3.73445312 23.0859375 3.59765625 C15.41302914 2.08297549 7.80316013 1.43287604 0 1 C0 0.67 0 0.34 0 0 Z " fill="#D1F6EA" transform="translate(693,176)"/>
<path d="M0 0 C0.99 0.33 1.98 0.66 3 1 C-0.63 4.63 -4.26 8.26 -8 12 C-8.33 10.68 -8.66 9.36 -9 8 C-4.25 4 -4.25 4 -2 4 C-1.34 2.68 -0.68 1.36 0 0 Z " fill="#E1FEF5" transform="translate(766,113)"/>
<path d="M0 0 C0.99 0 1.98 0 3 0 C1.55218207 3.44428265 -0.27694609 5.36130962 -3.125 7.75 C-4.21167969 8.67039062 -4.21167969 8.67039062 -5.3203125 9.609375 C-5.87460937 10.06828125 -6.42890625 10.5271875 -7 11 C-7.33 10.01 -7.66 9.02 -8 8 C-7.34 8 -6.68 8 -6 8 C-6 7.34 -6 6.68 -6 6 C-5.34 6 -4.68 6 -4 6 C-3.71125 5.38125 -3.4225 4.7625 -3.125 4.125 C-2 2 -2 2 0 0 Z " fill="#338E6A" transform="translate(651,386)"/>
<path d="M0 0 C0.81210937 0.40025391 0.81210937 0.40025391 1.640625 0.80859375 C1.640625 1.46859375 1.640625 2.12859375 1.640625 2.80859375 C0.90457031 2.90011719 0.16851563 2.99164063 -0.58984375 3.0859375 C-3.80542524 3.92498203 -5.25865048 5.12147767 -7.671875 7.37109375 C-8.36925781 8.01175781 -9.06664062 8.65242188 -9.78515625 9.3125 C-10.30464844 9.80621094 -10.82414063 10.29992187 -11.359375 10.80859375 C-12.019375 10.47859375 -12.679375 10.14859375 -13.359375 9.80859375 C-11.62284061 8.10499363 -9.87252107 6.42175548 -8.109375 4.74609375 C-7.61824219 4.26076172 -7.12710938 3.77542969 -6.62109375 3.27539062 C-2.88743798 -0.2342458 -2.88743798 -0.2342458 0 0 Z " fill="#358A69" transform="translate(683.359375,306.19140625)"/>
<path d="M0 0 C0.99 0.33 1.98 0.66 3 1 C-0.96 4.96 -4.92 8.92 -9 13 C-9.33 11.68 -9.66 10.36 -10 9 C-8.68 8.67 -7.36 8.34 -6 8 C-6 7.34 -6 6.68 -6 6 C-5.34 6 -4.68 6 -4 6 C-4 5.34 -4 4.68 -4 4 C-2.70766393 2.62689293 -1.37562854 1.28965176 0 0 Z " fill="#348967" transform="translate(603,291)"/>
<path d="M0 0 C4.84146109 1.46710942 8.55948972 4.3512744 12 8 C12 8.66 12 9.32 12 10 C12.66 10 13.32 10 14 10 C13.67 10.99 13.34 11.98 13 13 C12.56429687 12.55269531 12.12859375 12.10539062 11.6796875 11.64453125 C8.74182818 8.66215891 5.81164172 5.76928956 2.5625 3.125 C1.716875 2.42375 0.87125 1.7225 0 1 C0 0.67 0 0.34 0 0 Z " fill="#398E6C" transform="translate(896,110)"/>
<path d="M0 0 C0 3 0 3 -1.96875 5.26171875 C-2.8040625 6.06222656 -3.639375 6.86273437 -4.5 7.6875 C-5.3353125 8.49574219 -6.170625 9.30398438 -7.03125 10.13671875 C-7.6809375 10.75160156 -8.330625 11.36648438 -9 12 C-9.33 11.01 -9.66 10.02 -10 9 C-8.71142987 7.68445979 -7.41904109 6.37265903 -6.125 5.0625 C-5.04605469 3.96615234 -5.04605469 3.96615234 -3.9453125 2.84765625 C-2 1 -2 1 0 0 Z " fill="#243A4C" transform="translate(20,547)"/>
<path d="M0 0 C0.66 0 1.32 0 2 0 C2.99 3.3 3.98 6.6 5 10 C4.01 10.495 4.01 10.495 3 11 C2.34 8.69 1.68 6.38 1 4 C-1.31 4.66 -3.62 5.32 -6 6 C-4 4 -2 2 0 0 Z " fill="#459072" transform="translate(526,310)"/>
<path d="M0 0 C0.33 0.66 0.66 1.32 1 2 C3.3306218 2.35179197 5.66435067 2.68330179 8 3 C10.4375 4.0625 10.4375 4.0625 12 5 C7.84773144 6.18956883 5.61274007 5.78960563 1.6875 4.0625 C0.80449219 3.68222656 -0.07851563 3.30195313 -0.98828125 2.91015625 C-1.65214844 2.60980469 -2.31601562 2.30945313 -3 2 C-2.01 1.34 -1.02 0.68 0 0 Z " fill="#429573" transform="translate(530,445)"/>
<path d="M0 0 C1.92795877 2.40994847 3.51501558 4.86668214 5 7.5625 C6.5512601 10.2287283 7.6952262 12.04094227 10 14 C9.34 14.66 8.68 15.32 8 16 C6.4693001 13.71439353 4.95034956 11.42237333 3.4375 9.125 C2.99986328 8.47402344 2.56222656 7.82304687 2.11132812 7.15234375 C1.01245164 5.47374503 -0.0007818 3.73976613 -1 2 C-0.67 1.34 -0.34 0.68 0 0 Z " fill="#358B69" transform="translate(492,410)"/>
<path d="M0 0 C4 1.33333333 8 2.66666667 12 4 C12 4.66 12 5.32 12 6 C12.99 6.33 13.98 6.66 15 7 C12 8 12 8 9.3359375 6.85546875 C8.35882812 6.30503906 7.38171875 5.75460937 6.375 5.1875 C5.39273438 4.64480469 4.41046875 4.10210937 3.3984375 3.54296875 C1 2 1 2 0 0 Z " fill="#398F6C" transform="translate(693,281)"/>
<path d="M0 0 C1.32 0.33 2.64 0.66 4 1 C1.03 3.97 -1.94 6.94 -5 10 C-5.33 8.68 -5.66 7.36 -6 6 C-5.34 6 -4.68 6 -4 6 C-4 5.34 -4 4.68 -4 4 C-2.25 1.8125 -2.25 1.8125 0 0 Z " fill="#D8F8EF" transform="translate(779,215)"/>
<path d="M0 0 C0.33 0.66 0.66 1.32 1 2 C-0.07192184 3.3218362 -1.15802695 4.63217927 -2.25 5.9375 C-2.85328125 6.66839844 -3.4565625 7.39929688 -4.078125 8.15234375 C-6.10741134 10.10326334 -7.254407 10.61731779 -10 11 C-6.79239749 7.19364503 -3.59253891 3.45436433 0 0 Z " fill="#2D8863" transform="translate(744,138)"/>
<path d="M0 0 C0.99 0.33 1.98 0.66 3 1 C-4.11389522 8.66742597 -4.11389522 8.66742597 -9 10 C-8.06409496 8.8944811 -7.12620142 7.79064547 -6.1875 6.6875 C-5.66542969 6.07261719 -5.14335938 5.45773437 -4.60546875 4.82421875 C-3.12827531 3.14575321 -1.59960869 1.56117966 0 0 Z " fill="#314557" transform="translate(764,394)"/>
<path d="M0 0 C-1.299375 0.8353125 -1.299375 0.8353125 -2.625 1.6875 C-5.95945073 3.90252798 -8.96205756 6.39604933 -12 9 C-12 8.01 -12 7.02 -12 6 C-11.34 6 -10.68 6 -10 6 C-9.67 4.68 -9.34 3.36 -9 2 C-8.01 2 -7.02 2 -6 2 C-6 1.34 -6 0.68 -6 0 C-3 -1 -3 -1 0 0 Z " fill="#D1F1E7" transform="translate(693,235)"/>
<path d="M0 0 C0.680625 0.309375 1.36125 0.61875 2.0625 0.9375 C5.36965912 2.13370649 8.51545878 2.59005397 12 3 C12 2.34 12 1.68 12 1 C13.65 1 15.3 1 17 1 C15.20423739 3.29930415 14.34780511 3.95128633 11.40625 4.36328125 C9.96765625 4.33814453 9.96765625 4.33814453 8.5 4.3125 C7.5409375 4.30863281 6.581875 4.30476562 5.59375 4.30078125 C3 4 3 4 0 2 C0 1.34 0 0.68 0 0 Z " fill="#398C6C" transform="translate(724,232)"/>
<path d="M0 0 C-2.46301423 2.46301423 -4.27360036 2.76766521 -7.625 3.625 C-9.12933594 4.01558594 -9.12933594 4.01558594 -10.6640625 4.4140625 C-11.43492187 4.60742188 -12.20578125 4.80078125 -13 5 C-13.33 4.34 -13.66 3.68 -14 3 C-4.58997722 -0.44419134 -4.58997722 -0.44419134 0 0 Z " fill="#368F6C" transform="translate(762,287)"/>
<path d="M0 0 C-0.33 0.99 -0.66 1.98 -1 3 C-1.66 3 -2.32 3 -3 3 C-2.67 4.19625 -2.34 5.3925 -2 6.625 C-1.10734177 10.15791497 -0.81703955 13.34079109 -1 17 C-3.03206327 13.95190509 -3.61250949 12.0428091 -4.3125 8.5 C-4.51488281 7.5409375 -4.71726562 6.581875 -4.92578125 5.59375 C-5 3 -5 3 -3.66796875 1.15625 C-2 0 -2 0 0 0 Z " fill="#368F74" transform="translate(578,263)"/>
<path d="M0 0 C5.26053037 -0.31563182 8.44573816 0.33409063 13 3 C13 3.99 13 4.98 13 6 C12.34 5.67 11.68 5.34 11 5 C11 4.34 11 3.68 11 3 C7.37 2.67 3.74 2.34 0 2 C0 1.34 0 0.68 0 0 Z " fill="#479677" transform="translate(693,234)"/>
<path d="M0 0 C1.32 0.33 2.64 0.66 4 1 C1.03 3.97 -1.94 6.94 -5 10 C-5.33 9.01 -5.66 8.02 -6 7 C-5.01 6.67 -4.02 6.34 -3 6 C-2.40929986 4.05396726 -2.40929986 4.05396726 -2 2 C-1.34 1.34 -0.68 0.68 0 0 Z " fill="#DAFAEF" transform="translate(741,137)"/>
<path d="M0 0 C0 3.77910478 -0.99703962 4.46106101 -3.5 7.1875 C-4.1496875 7.90292969 -4.799375 8.61835937 -5.46875 9.35546875 C-5.9740625 9.89816406 -6.479375 10.44085938 -7 11 C-7.99 10.67 -8.98 10.34 -10 10 C-6.7 6.7 -3.4 3.4 0 0 Z " fill="#459475" transform="translate(798,84)"/>
<path d="M0 0 C0 1.98 0 3.96 0 6 C-2.97 6 -5.94 6 -9 6 C-7.66666667 5 -6.33333333 4 -5 3 C-4.278125 2.443125 -3.55625 1.88625 -2.8125 1.3125 C-1 0 -1 0 0 0 Z " fill="#F5F5F6" transform="translate(902,762)"/>
<path d="M0 0 C0.99 0.33 1.98 0.66 3 1 C-4.11389522 7.51936219 -4.11389522 7.51936219 -9 9 C-9 8.34 -9 7.68 -9 7 C-8.34 7 -7.68 7 -7 7 C-7 6.34 -7 5.68 -7 5 C-2.61538462 2 -2.61538462 2 0 2 C0 1.34 0 0.68 0 0 Z " fill="#D7F8EE" transform="translate(577,400)"/>
<path d="M0 0 C0.99 0 1.98 0 3 0 C1.41037341 4.03520597 -0.28232318 8.01811282 -2 12 C-3.12377697 8.69564916 -2.89554742 6.9493138 -1.5625 3.75 C-1.27503906 3.04359375 -0.98757813 2.3371875 -0.69140625 1.609375 C-0.46324219 1.07828125 -0.23507812 0.5471875 0 0 Z " fill="#348B69" transform="translate(528,361)"/>
<path d="M0 0 C0.33 0.99 0.66 1.98 1 3 C-0.97845068 6.39162974 -3.0755255 9.36797295 -6 12 C-5.43697042 8.05879291 -4.3208055 5.2491277 -2 2 C-1.34 2 -0.68 2 0 2 C0 1.34 0 0.68 0 0 Z " fill="#243B4F" transform="translate(816,326)"/>
<path d="M0 0 C1.98 0 3.96 0 6 0 C2.54319097 2.76544722 -1.14341602 4.84921278 -5 7 C-4.67 5.68 -4.34 4.36 -4 3 C-3.01 3 -2.02 3 -1 3 C-0.67 2.01 -0.34 1.02 0 0 Z " fill="#3A916E" transform="translate(681,219)"/>
<path d="M0 0 C3.23861303 1.44424635 5.61969163 3.25772247 8.25 5.625 C8.95640625 6.25664063 9.6628125 6.88828125 10.390625 7.5390625 C10.92171875 8.02117187 11.4528125 8.50328125 12 9 C11.34 9.66 10.68 10.32 10 11 C8.33035479 9.35718838 6.6643536 7.71067239 5 6.0625 C4.071875 5.14597656 3.14375 4.22945313 2.1875 3.28515625 C0 1 0 1 0 0 Z " fill="#348867" transform="translate(876,91)"/>
<path d="M0 0 C0 0.66 0 1.32 0 2 C-1.64453125 3.4375 -1.64453125 3.4375 -3.8125 5 C-4.87404297 5.7734375 -4.87404297 5.7734375 -5.95703125 6.5625 C-7.62080729 7.73318754 -9.30730211 8.87153474 -11 10 C-9.63088196 6.8510285 -8.1247864 4.9521513 -5.5 2.75 C-4.8915625 2.22921875 -4.283125 1.7084375 -3.65625 1.171875 C-2 0 -2 0 0 0 Z " fill="#2F8763" transform="translate(693,235)"/>
<path d="M0 0 C-1.15093722 3.45281166 -2.3205993 4.38082163 -5.0625 6.6875 C-5.79597656 7.31011719 -6.52945313 7.93273437 -7.28515625 8.57421875 C-7.85105469 9.04472656 -8.41695312 9.51523437 -9 10 C-9.66 9.67 -10.32 9.34 -11 9 C-9.54782324 7.49403892 -8.08807139 5.99537896 -6.625 4.5 C-5.40683594 3.24703125 -5.40683594 3.24703125 -4.1640625 1.96875 C-2 0 -2 0 0 0 Z " fill="#CCF2E5" transform="translate(664,379)"/>
<path d="M0 0 C0 0.66 0 1.32 0 2 C-0.66 2 -1.32 2 -2 2 C-2.2475 2.598125 -2.495 3.19625 -2.75 3.8125 C-4.16370012 6.28647521 -5.65055383 7.43370255 -8 9 C-8.66 8.67 -9.32 8.34 -10 8 C-8.71451591 6.66070495 -7.42141845 5.32871357 -6.125 4 C-5.04605469 2.88625 -5.04605469 2.88625 -3.9453125 1.75 C-2 0 -2 0 0 0 Z " fill="#D4F4EA" transform="translate(608,291)"/>
<path d="M0 0 C4 1.33333333 8 2.66666667 12 4 C11.34 4.66 10.68 5.32 10 6 C6.9375 5.75 6.9375 5.75 4 5 C3.67 4.34 3.34 3.68 3 3 C2.01 2.67 1.02 2.34 0 2 C0 1.34 0 0.68 0 0 Z " fill="#358C6A" transform="translate(715,248)"/>
<path d="M0 0 C0.99 0.33 1.98 0.66 3 1 C0.36 3.64 -2.28 6.28 -5 9 C-5.33 8.01 -5.66 7.02 -6 6 C-5.01 5.67 -4.02 5.34 -3 5 C-3 4.34 -3 3.68 -3 3 C-2.34 3 -1.68 3 -1 3 C-0.67 2.01 -0.34 1.02 0 0 Z " fill="#2B8561" transform="translate(650,247)"/>
<path d="M0 0 C0.99 0.33 1.98 0.66 3 1 C0.69 3.31 -1.62 5.62 -4 8 C-4.33 6.68 -4.66 5.36 -5 4 C-4.01 4 -3.02 4 -2 4 C-2 3.01 -2 2.02 -2 1 C-1.34 0.67 -0.68 0.34 0 0 Z " fill="#3A906E" transform="translate(659,239)"/>
<path d="M0 0 C0.66 0.33 1.32 0.66 2 1 C1.09515208 2.15518918 0.1755794 3.29885406 -0.75 4.4375 C-1.26046875 5.07558594 -1.7709375 5.71367187 -2.296875 6.37109375 C-4.19667629 8.18810554 -5.43586908 8.60423197 -8 9 C-7.04270084 7.87411986 -6.08412105 6.7493285 -5.125 5.625 C-4.59132813 4.99851563 -4.05765625 4.37203125 -3.5078125 3.7265625 C-2.38567993 2.44163349 -1.20628025 1.20628025 0 0 Z " fill="#409172" transform="translate(608,233)"/>
<path d="M0 0 C1.32 0.33 2.64 0.66 4 1 C4 1.66 4 2.32 4 3 C4.9590625 3.1546875 4.9590625 3.1546875 5.9375 3.3125 C6.618125 3.539375 7.29875 3.76625 8 4 C8.33 4.99 8.66 5.98 9 7 C6 7 6 7 4.39453125 5.46875 C3.87246094 4.8190625 3.35039063 4.169375 2.8125 3.5 C2.28269531 2.8503125 1.75289062 2.200625 1.20703125 1.53125 C0.80871094 1.0259375 0.41039062 0.520625 0 0 Z " fill="#318967" transform="translate(680,270)"/>
<path d="M0 0 C0.66 0.33 1.32 0.66 2 1 C0.02 3.31 -1.96 5.62 -4 8 C-4.99 7.67 -5.98 7.34 -7 7 C-4.69 4.69 -2.38 2.38 0 0 Z " fill="#D0EEE5" transform="translate(787,268)"/>
<path d="M0 0 C0.99 0.33 1.98 0.66 3 1 C-0.96 4.465 -0.96 4.465 -5 8 C-5.66 7.67 -6.32 7.34 -7 7 C-4.69 4.69 -2.38 2.38 0 0 Z " fill="#475A6B" transform="translate(854,145)"/>
<path d="M0 0 C0.33 0 0.66 0 1 0 C1 2.64 1 5.28 1 8 C-2.36720387 6.60667426 -3.9859524 5.0210714 -6 2 C-5.34 1.67 -4.68 1.34 -4 1 C-2.68 2.32 -1.36 3.64 0 5 C0 3.35 0 1.7 0 0 Z " fill="#489073" transform="translate(920,124)"/>
<path d="M0 0 C0 1.65 0 3.3 0 5 C-2.31 5 -4.62 5 -7 5 C-2.22727273 0 -2.22727273 0 0 0 Z " fill="#F6F6F7" transform="translate(689,763)"/>
<path d="M0 0 C4.455 0.99 4.455 0.99 9 2 C7.68 3.32 6.36 4.64 5 6 C3.35 4.02 1.7 2.04 0 0 Z " fill="#348966" transform="translate(759,172)"/>
<path d="M0 0 C2.92090003 1.30936898 4.75619462 2.75619462 7 5 C7.99 5.33 8.98 5.66 10 6 C9.67 6.99 9.34 7.98 9 9 C7.87105124 8.06725891 6.74699124 7.12859878 5.625 6.1875 C4.99851562 5.66542969 4.37203125 5.14335938 3.7265625 4.60546875 C2 3 2 3 0 0 Z " fill="#3A8E6D" transform="translate(865,81)"/>
<path d="M0 0 C4.95 0.99 4.95 0.99 10 2 C10 2.66 10 3.32 10 4 C6.14354879 4.22036864 3.50776784 3.60355101 0 2 C0 1.34 0 0.68 0 0 Z " fill="#288460" transform="translate(707,317)"/>
<path d="M0 0 C0 0.66 0 1.32 0 2 C-2.31 3.32 -4.62 4.64 -7 6 C-6.6875 4.125 -6.6875 4.125 -6 2 C-3 0 -3 0 0 0 Z " fill="#308967" transform="translate(777,277)"/>
<path d="M0 0 C0.99 0.33 1.98 0.66 3 1 C1.68 3.31 0.36 5.62 -1 8 C-1.66 8 -2.32 8 -3 8 C-1.125 2.25 -1.125 2.25 0 0 Z " fill="#33495A" transform="translate(177,560)"/>
<path d="M0 0 C0.99 0 1.98 0 3 0 C1.60667426 3.36720387 0.0210714 4.9859524 -3 7 C-3 5.68 -3 4.36 -3 3 C-2.01 3 -1.02 3 0 3 C0 2.01 0 1.02 0 0 Z " fill="#469776" transform="translate(693,347)"/>
<path d="M0 0 C0 3 0 3 -2.5 5.6875 C-3.325 6.450625 -4.15 7.21375 -5 8 C-5.66 7.67 -6.32 7.34 -7 7 C-4.69 4.69 -2.38 2.38 0 0 Z " fill="#419272" transform="translate(623,219)"/>
<path d="M0 0 C1.32 0.33 2.64 0.66 4 1 C0.535 3.97 0.535 3.97 -3 7 C-3 6.01 -3 5.02 -3 4 C-2.34 4 -1.68 4 -1 4 C-0.67 2.68 -0.34 1.36 0 0 Z " fill="#C3E9DD" transform="translate(808,71)"/>
<path d="M0 0 C0.66 0.33 1.32 0.66 2 1 C-0.31 3.31 -2.62 5.62 -5 8 C-5 5 -5 5 -2.5 2.3125 C-1.675 1.549375 -0.85 0.78625 0 0 Z " fill="#2D825F" transform="translate(537,353)"/>
<path d="M0 0 C0.99 0.33 1.98 0.66 3 1 C0.525 4.465 0.525 4.465 -2 8 C-3 5 -3 5 -2 2 C-1.34 2 -0.68 2 0 2 C0 1.34 0 0.68 0 0 Z " fill="#DBF8EE" transform="translate(500,331)"/>
<path d="M0 0 C0 0.99 0 1.98 0 3 C-2 5 -2 5 -4.625 5.125 C-5.40875 5.08375 -6.1925 5.0425 -7 5 C-2.25 1.125 -2.25 1.125 0 0 Z " fill="#38906D" transform="translate(663,185)"/>
</svg>
