<?xml version="1.0" encoding="UTF-8"?>
<svg version="1.1" xmlns="http://www.w3.org/2000/svg" width="333" height="245">
<path d="M0 0 C109.89 0 219.78 0 333 0 C333 80.85 333 161.7 333 245 C223.11 245 113.22 245 0 245 C0 164.15 0 83.3 0 0 Z " fill="#0C0D0D" transform="translate(0,0)"/>
<path d="M0 0 C6.38003095 -0.33067234 10.20790928 0.93252263 15.6875 4.1796875 C15.6875 2.8596875 15.6875 1.5396875 15.6875 0.1796875 C17.9975 0.1796875 20.3075 0.1796875 22.6875 0.1796875 C23.0175 10.7396875 23.3475 21.2996875 23.6875 32.1796875 C25.0075 32.8396875 26.3275 33.4996875 27.6875 34.1796875 C27.6875 36.1596875 27.6875 38.1396875 27.6875 40.1796875 C23.83034704 40.53849243 22.20753334 40.57590338 19.0625 38.1796875 C18.27875 37.5196875 17.495 36.8596875 16.6875 36.1796875 C15.3675 36.1796875 14.0475 36.1796875 12.6875 36.1796875 C12.3575 37.1696875 12.0275 38.1596875 11.6875 39.1796875 C5.79450855 41.14401798 -1.57414286 41.1916221 -7.578125 39.56640625 C-13.1182185 36.73397106 -17.37427036 30.99437643 -19.3125 25.1796875 C-19.88264656 18.9080753 -19.63633332 13.68478643 -16.3125 8.1796875 C-13.10419469 4.64559402 -10.02060338 1.73667773 -5.4375 0.2421875 C-3.62356579 0.20590882 -1.80884454 0.14055211 0 0 Z " fill="#D78E05" transform="translate(175.3125,104.8203125)"/>
<path d="M0 0 C2.64 0 5.28 0 8 0 C8.33 9.24 8.66 18.48 9 28 C11.97 24.7 14.94 21.4 18 18 C20.8002228 14.94649071 23.60965828 11.90183169 26.421875 8.859375 C27.75027214 7.3860618 29.07391137 5.90223754 30.27026367 4.31982422 C33.45044244 0.13105506 33.45044244 0.13105506 36.45703125 -0.5859375 C37.23433594 -0.51632813 38.01164062 -0.44671875 38.8125 -0.375 C39.60269531 -0.32085937 40.39289063 -0.26671875 41.20703125 -0.2109375 C41.79871094 -0.14132813 42.39039063 -0.07171875 43 0 C43 2 43 2 41 4.125 C40.00246673 5.0859007 39.00211364 6.04387708 38 7 C33.30792611 11.5840973 28.80397721 16.24854925 24.54296875 21.23828125 C23 23 23 23 21.36328125 24.54296875 C19.74507398 26.06935893 19.74507398 26.06935893 19 29 C19.58789307 29.25885986 20.17578613 29.51771973 20.78149414 29.78442383 C23.16833588 31.09223554 24.64130758 32.46671322 26.49609375 34.44921875 C27.13740234 35.13306641 27.77871094 35.81691406 28.43945312 36.52148438 C29.09880859 37.23626953 29.75816406 37.95105469 30.4375 38.6875 C31.09298828 39.38294922 31.74847656 40.07839844 32.42382812 40.79492188 C36.32815232 44.98903542 39.77710411 49.26190835 43 54 C38.79981658 54.72759083 35.40798374 54.98126504 31.80566406 52.47070312 C29.6206554 50.31751 27.61223407 48.08680489 25.625 45.75 C24.57892578 44.58404297 24.57892578 44.58404297 23.51171875 43.39453125 C20.51792247 40.03297497 17.66851292 36.62641459 15 33 C12.53199953 34.15173355 10.95216435 35.04783565 9 37 C8.63168919 38.93257855 8.63168919 38.93257855 8.5859375 41.1328125 C8.52792969 42.34130859 8.52792969 42.34130859 8.46875 43.57421875 C8.42234375 44.83685547 8.42234375 44.83685547 8.375 46.125 C8.31699219 47.39923828 8.31699219 47.39923828 8.2578125 48.69921875 C8.16343506 50.79911684 8.08062414 52.89952891 8 55 C5.36 55 2.72 55 0 55 C0 36.85 0 18.7 0 0 Z " fill="#DFDFDE" transform="translate(94,90)"/>
<path d="M0 0 C3.4009364 1.41109598 5.34323906 3.43214424 6.796875 6.90234375 C8.33311546 12.31032536 8.99155792 17.05502101 6.375 22.1875 C3.25841202 25.87819629 0.64804226 27.66314657 -4.2109375 28.28125 C-8.9379337 28.46970168 -12.28446561 28.18474376 -16 25 C-19.69048671 20.81079887 -20.59356956 17.59537958 -20.3203125 12.17578125 C-19.67658847 7.80316802 -17.80613079 4.98816032 -15.0625 1.625 C-10.17356989 -0.96912618 -5.40544269 -0.82654266 0 0 Z " fill="#0F0D0A" transform="translate(183,111)"/>
<path d="M0 0 C1.02020737 -0.00860046 2.04041473 -0.01720093 3.09153748 -0.02606201 C4.20530258 -0.03032196 5.31906769 -0.03458191 6.46658325 -0.03897095 C8.23326103 -0.05123718 8.23326103 -0.05123718 10.03562927 -0.06375122 C13.93984631 -0.08859348 17.84405564 -0.10528247 21.74832153 -0.11953735 C23.09767792 -0.12490112 24.44703425 -0.13027863 25.79639053 -0.13566971 C31.41705587 -0.15729839 37.03771844 -0.17602777 42.65841484 -0.1872921 C50.68135532 -0.2034816 58.70380772 -0.23653643 66.72656429 -0.29369295 C72.3837169 -0.33260259 78.0407402 -0.35194995 83.69802296 -0.35721266 C87.06787485 -0.36084039 90.43679497 -0.37514233 93.80657578 -0.4053154 C110.50961925 -0.54628583 123.77677126 -0.63401621 137.94363403 9.15390015 C137.28363403 9.81390015 136.62363403 10.47390015 135.94363403 11.15390015 C135.15859497 10.74397827 134.37355591 10.3340564 133.56472778 9.91171265 C132.51414185 9.37288452 131.46355591 8.8340564 130.38113403 8.27890015 C129.34859497 7.74522827 128.31605591 7.2115564 127.25222778 6.66171265 C119.81640251 3.27301305 113.55209923 2.86432247 105.45974731 2.89511108 C103.753517 2.88985413 103.753517 2.88985413 102.01281738 2.88449097 C98.26313116 2.87570891 94.51363459 2.88151128 90.76394653 2.88827515 C88.14992232 2.8869273 85.53589835 2.88498577 82.921875 2.88247681 C77.4461971 2.87884449 71.97057325 2.88361586 66.49490356 2.89315796 C60.18343073 2.90403024 53.87208725 2.90052294 47.56061757 2.88950515 C41.46787321 2.87929868 35.37518574 2.88042635 29.28243637 2.88626862 C26.69974626 2.88759962 24.11705284 2.8859767 21.53436661 2.88130951 C17.91825983 2.87620952 14.30239841 2.884004 10.68630981 2.89511108 C9.09626129 2.88903839 9.09626129 2.88903839 7.47409058 2.88284302 C-0.43603997 2.92767187 -7.80610894 3.82270097 -15.05636597 7.15390015 C-16.47949097 7.71077515 -16.47949097 7.71077515 -17.93136597 8.27890015 C-21.56046806 10.4563614 -23.77268236 12.97508418 -26.44308472 16.21640015 C-27.91157866 17.98001515 -29.33457391 19.63606693 -31.05636597 21.15390015 C-31.71636597 21.15390015 -32.37636597 21.15390015 -33.05636597 21.15390015 C-35.52834523 28.44623896 -37.81359783 35.78805757 -40.05636597 43.15390015 C-40.38636597 43.15390015 -40.71636597 43.15390015 -41.05636597 43.15390015 C-41.80928156 33.17776855 -38.43343996 24.88199641 -32.02511597 17.27890015 C-23.48693769 8.06308868 -13.04881965 0.08214426 0 0 Z " fill="#454645" transform="translate(101.05636596679688,20.846099853515625)"/>
<path d="M0 0 C2.64 0 5.28 0 8 0 C8 13.2 8 26.4 8 40 C5.36 40 2.72 40 0 40 C0 26.8 0 13.6 0 0 Z " fill="#009291" transform="translate(217,105)"/>
<path d="M0 0 C0.33 0 0.66 0 1 0 C2.21469888 5.69050495 2.13362786 11.26680061 2.11352539 17.05419922 C2.11367142 18.15722885 2.11381744 19.26025848 2.1139679 20.39671326 C2.11327274 24.03272486 2.10549891 27.66868487 2.09765625 31.3046875 C2.09579066 33.82959973 2.09436742 36.35451233 2.09336853 38.87942505 C2.08994404 44.83974084 2.08206719 50.80004015 2.07201904 56.76034749 C2.06082437 63.54874667 2.05533901 70.33714676 2.05032361 77.12555289 C2.03988364 91.08371212 2.02230514 105.04185505 2 119 C1.01 119 0.02 119 -1 119 C-2.125 112.25 -2.125 112.25 -1 110 C-0.34 110 0.32 110 1 110 C0.69128878 108.20767663 0.37790936 106.41615679 0.0625 104.625 C-0.11152344 103.62726563 -0.28554688 102.62953125 -0.46484375 101.6015625 C-0.87712062 99.03090344 -0.87712062 99.03090344 -2 97 C-1.34 97 -0.68 97 0 97 C-0.33 96.01 -0.66 95.02 -1 94 C-1.06280332 91.0011503 -1.06642734 88.02810286 -1.02172852 85.03051758 C-1.01212097 84.11324387 -1.00251343 83.19597015 -0.99261475 82.25090027 C-0.95960224 79.2153664 -0.91927836 76.17997543 -0.87890625 73.14453125 C-0.85460734 71.04132086 -0.83076367 68.93810516 -0.80735779 66.83488464 C-0.74449409 61.29625409 -0.67543384 55.75771733 -0.60510254 50.21917725 C-0.53443978 44.5686877 -0.46961049 38.91813159 -0.40429688 33.26757812 C-0.27525505 22.17831227 -0.13966984 11.08913673 0 0 Z " fill="#1E1D1C" transform="translate(59,58)"/>
<path d="M0 0 C-0.04640625 0.72445312 -0.0928125 1.44890625 -0.140625 2.1953125 C-0.38200895 8.66095395 0.17057909 11.63881073 4 17 C3.25 19.875 3.25 19.875 2 22 C-2.01744606 19.87968125 -4.75279251 17.99503554 -7 14 C-8.22017685 4.753771 -8.22017685 4.753771 -5.72265625 1.1640625 C-4 0 -4 0 0 0 Z " fill="#E19004" transform="translate(164,119)"/>
<path d="M0 0 C0.81210938 0.41121094 1.62421875 0.82242187 2.4609375 1.24609375 C4.52386248 2.50097772 6.01269422 3.77856167 7.625 5.5625 C4.1639003 5.5625 2.47302919 4.68459232 -0.625 3.1875 C-9.55471405 -1.12600594 -16.90106036 -1.75929686 -26.74609375 -1.8515625 C-28.66229271 -1.88061172 -28.66229271 -1.88061172 -30.61720276 -1.9102478 C-33.99220531 -1.95973006 -37.36710387 -2.00107072 -40.74224854 -2.03839111 C-44.19479965 -2.07859742 -47.64718977 -2.12961337 -51.09960938 -2.1796875 C-57.85796894 -2.27553239 -64.61639933 -2.36063735 -71.375 -2.4375 C-71.375 -2.7675 -71.375 -3.0975 -71.375 -3.4375 C-64.09882035 -3.61538363 -56.82246817 -3.78126659 -49.54567814 -3.93227577 C-46.16594873 -4.00278021 -42.78640843 -4.0772529 -39.40698242 -4.16113281 C-35.51235639 -4.25575653 -31.61764976 -4.33623372 -27.72265625 -4.4140625 C-26.5223024 -4.44625885 -25.32194855 -4.4784552 -24.08522034 -4.5116272 C-15.44804948 -4.66439084 -7.80951156 -4.05639678 0 0 Z " fill="#232423" transform="translate(231.375,25.4375)"/>
<path d="M0 0 C0.33 0.99 0.66 1.98 1 3 C3.31 3 5.62 3 8 3 C7.67 3.66 7.34 4.32 7 5 C1.11242944 6.96252352 -6.60509741 7.22623453 -12.4765625 5.10546875 C-14.375 4 -14.375 4 -17 2 C-12.17107221 -3.86369803 -6.54330744 -1.54451276 0 0 Z " fill="#C58104" transform="translate(180,139)"/>
<path d="M0 0 C2.64 0 5.28 0 8 0 C2.94736842 13.05263158 2.94736842 13.05263158 1 15 C-0.66617115 15.04063832 -2.33388095 15.042721 -4 15 C-3.79503906 14.25234375 -3.59007812 13.5046875 -3.37890625 12.734375 C-3.10949219 11.74953125 -2.84007812 10.7646875 -2.5625 9.75 C-2.29566406 8.77546875 -2.02882812 7.8009375 -1.75390625 6.796875 C-1.14455416 4.53627347 -0.55761745 2.27377991 0 0 Z " fill="#E1E1E1" transform="translate(147,90)"/>
<path d="M0 0 C1.98 0 3.96 0 6 0 C6 2.31 6 4.62 6 7 C5.01 7.495 5.01 7.495 4 8 C3.67 6.68 3.34 5.36 3 4 C1.08780415 5.91219585 1.75564702 9.33645504 1.68359375 11.87890625 C1.66281265 12.5655687 1.64203156 13.25223114 1.62062073 13.95970154 C1.55505857 16.16052935 1.49620985 18.36147975 1.4375 20.5625 C1.39432108 22.05144514 1.350707 23.54037773 1.30664062 25.02929688 C1.1993707 28.68606553 1.09812228 32.34297318 1 36 C1.99 36 2.98 36 4 36 C4.66 34.68 5.32 33.36 6 32 C6 33.98 6 35.96 6 38 C4.02 38 2.04 38 0 38 C0 25.46 0 12.92 0 0 Z " fill="#00B2B1" transform="translate(218,106)"/>
<path d="M0 0 C3.29714793 0.32971479 4.6226839 0.6226839 7 3 C7.25 5.5 7.25 5.5 7 8 C5 10 5 10 2 10.25 C-1 10 -1 10 -3 8 C-2.54545455 2.54545455 -2.54545455 2.54545455 0 0 Z " fill="#019997" transform="translate(219,87)"/>
<path d="M0 0 C0.66 0.33 1.32 0.66 2 1 C0.54782324 2.50596108 -0.91192861 4.00462104 -2.375 5.5 C-3.18710938 6.3353125 -3.99921875 7.170625 -4.8359375 8.03125 C-7 10 -7 10 -9 10 C-11.47197926 17.29233882 -13.75723186 24.63415742 -16 32 C-16.33 32 -16.66 32 -17 32 C-17.68763234 22.88887147 -14.81918427 14.09213083 -9 7 C-7.0625 5.9375 -7.0625 5.9375 -5 5 C-3.29503463 3.37253306 -1.62102968 1.71108689 0 0 Z " fill="#2F2F2F" transform="translate(77,32)"/>
<path d="M0 0 C0.33 0 0.66 0 1 0 C1 13.53 1 27.06 1 41 C0.01 41 -0.98 41 -2 41 C-3.125 34.25 -3.125 34.25 -2 32 C-1.34 32 -0.68 32 0 32 C0 21.44 0 10.88 0 0 Z " fill="#141414" transform="translate(60,136)"/>
<path d="M0 0 C-2.22093599 2.22093599 -3.83381641 2.83730346 -6.75 3.9375 C-13.18233654 6.37429007 -18.30464513 8.95973668 -23.375 13.6875 C-24.68597656 14.89986328 -24.68597656 14.89986328 -26.0234375 16.13671875 C-26.67570312 16.75160156 -27.32796875 17.36648437 -28 18 C-28 14.4852978 -27.61642796 14.16150278 -25.25 11.75 C-18.32299565 5.07849991 -9.72107691 -0.21602393 0 0 Z " fill="#535656" transform="translate(98,22)"/>
<path d="M0 0 C0.33 1.32 0.66 2.64 1 4 C1.33 4 1.66 4 2 4 C2.99 4 3.98 4 5 4 C4.25 8.75 4.25 8.75 2 11 C0.35 11 -1.3 11 -3 11 C-2.01 7.37 -1.02 3.74 0 0 Z " fill="#D1D1D2" transform="translate(146,94)"/>
<path d="M0 0 C0.66 0.33 1.32 0.66 2 1 C1.34 2.98 0.68 4.96 0 7 C0.99 7 1.98 7 3 7 C3 7.66 3 8.32 3 9 C0.625 9.125 0.625 9.125 -2 9 C-2.66 8.34 -3.32 7.68 -4 7 C-3.8125 4.5 -3.8125 4.5 -3 2 C-2.01 1.34 -1.02 0.68 0 0 Z " fill="#00B2B0" transform="translate(220,88)"/>
<path d="M0 0 C0.56847656 0.0928125 1.13695312 0.185625 1.72265625 0.28125 C1.39265625 0.94125 1.06265625 1.60125 0.72265625 2.28125 C-0.12296875 2.136875 -0.96859375 1.9925 -1.83984375 1.84375 C-6.88713524 2.48613255 -9.05872301 5.54841175 -12.27734375 9.28125 C-12.93734375 8.95125 -13.59734375 8.62125 -14.27734375 8.28125 C-10.14572943 2.3295998 -7.4967066 -0.70086072 0 0 Z " fill="#C9C8C9" transform="translate(135.27734375,89.71875)"/>
<path d="M0 0 C0.66 0 1.32 0 2 0 C2 1.98 2 3.96 2 6 C-0.75 6.25 -0.75 6.25 -4 6 C-6.375 4 -6.375 4 -8 2 C-5.36 2.66 -2.72 3.32 0 4 C0 2.68 0 1.36 0 0 Z " fill="#A56D06" transform="translate(201,139)"/>
<path d="M0 0 C1.61648437 0.04060547 1.61648437 0.04060547 3.265625 0.08203125 C4.08546875 0.11683594 4.9053125 0.15164062 5.75 0.1875 C5.75 0.5175 5.75 0.8475 5.75 1.1875 C4.64591797 1.20876953 4.64591797 1.20876953 3.51953125 1.23046875 C-2.93004111 1.4584922 -2.93004111 1.4584922 -8.3125 4.75 C-9.2715625 5.9565625 -9.2715625 5.9565625 -10.25 7.1875 C-10.91 7.1875 -11.57 7.1875 -12.25 7.1875 C-9.73903637 1.1193379 -6.39239195 -0.20844756 0 0 Z " fill="#3C290A" transform="translate(177.25,110.8125)"/>
<path d="M0 0 C0.33 0.99 0.66 1.98 1 3 C-1.97 5.97 -4.94 8.94 -8 12 C-8.66 11.67 -9.32 11.34 -10 11 C-6.7 7.37 -3.4 3.74 0 0 Z " fill="#343435" transform="translate(128,100)"/>
<path d="M0 0 C0.66 0 1.32 0 2 0 C2.33 2.97 2.66 5.94 3 9 C2.01 9 1.02 9 0 9 C-1.125 2.25 -1.125 2.25 0 0 Z " fill="#241A0B" transform="translate(58,168)"/>
<path d="M0 0 C2 1.375 2 1.375 4 3 C4 3.66 4 4.32 4 5 C7.465 4.505 7.465 4.505 11 4 C11.33 4.66 11.66 5.32 12 6 C10.56344146 6.08131463 9.1255517 6.13933559 7.6875 6.1875 C6.48673828 6.23970703 6.48673828 6.23970703 5.26171875 6.29296875 C3 6 3 6 1.20703125 4.67578125 C0 3 0 3 0 0 Z " fill="#DEDEDE" transform="translate(125,138)"/>
<path d="M0 0 C0.66 0 1.32 0 2 0 C0.55746343 3.36591866 -1.33264727 5.51047079 -4 8 C-4.66 7.67 -5.32 7.34 -6 7 C-5.04882866 5.8274869 -4.08882991 4.66212985 -3.125 3.5 C-2.59132812 2.8503125 -2.05765625 2.200625 -1.5078125 1.53125 C-0.76144531 0.77328125 -0.76144531 0.77328125 0 0 Z " fill="#2F2F2F" transform="translate(135,92)"/>
<path d="M0 0 C1.08667969 0.29197266 1.08667969 0.29197266 2.1953125 0.58984375 C2.74960938 0.74582031 3.30390625 0.90179687 3.875 1.0625 C3.875 1.3925 3.875 1.7225 3.875 2.0625 C-2.75 2.3125 -2.75 2.3125 -6.125 0.0625 C-3.57797384 -1.21101308 -2.6967055 -0.73941925 0 0 Z " fill="#2C2B2B" transform="translate(221.125,21.9375)"/>
</svg>
