<?xml version="1.0" encoding="UTF-8"?>
<svg version="1.1" xmlns="http://www.w3.org/2000/svg" width="1774" height="887">
<path d="M0 0 C585.42 0 1170.84 0 1774 0 C1774 292.71 1774 585.42 1774 887 C1188.58 887 603.16 887 0 887 C0 594.29 0 301.58 0 0 Z " fill="#000001" transform="translate(0,0)"/>
<path d="M0 0 C1.45029516 -0.01144376 2.90055079 -0.03177323 4.35058594 -0.06152344 C28.32607686 -0.55132176 50.36106634 8.19814915 67.70068359 24.84204102 C69.54134157 26.65101318 71.3718935 28.47028217 73.19677734 30.29516602 C73.19677734 21.38516602 73.19677734 12.47516602 73.19677734 3.29516602 C84.08677734 3.29516602 94.97677734 3.29516602 106.19677734 3.29516602 C106.20612305 7.46399414 106.21546875 11.63282227 106.22509766 15.92797852 C106.25886591 29.70231794 106.31421342 43.47649975 106.38068008 57.25071716 C106.42045178 65.60196241 106.45285373 73.95311368 106.46777344 82.30444336 C106.48079969 89.5853625 106.50778906 96.8660747 106.55139041 104.14687729 C106.57398353 108.00034326 106.58968933 111.85355421 106.58866119 115.70709229 C106.58791329 119.33846587 106.60591535 122.96927616 106.63794518 126.60050392 C106.65044916 128.55985736 106.64339026 130.51930548 106.63563538 132.47868347 C106.71897338 139.55028821 107.33018084 144.30796343 111.19677734 150.29516602 C114.8550022 153.69208909 117.38743363 155.36794485 122.32958984 155.61157227 C123.05549316 155.64968018 123.78139648 155.68778809 124.52929688 155.72705078 C125.45081543 155.77015381 126.37233398 155.81325684 127.32177734 155.85766602 C130.25052734 156.00204102 133.17927734 156.14641602 136.19677734 156.29516602 C136.19677734 166.52516602 136.19677734 176.75516602 136.19677734 187.29516602 C131.67990234 187.39829102 127.16302734 187.50141602 122.50927734 187.60766602 C121.11362549 187.65318604 119.71797363 187.69870605 118.2800293 187.74560547 C105.1935538 187.88832015 95.07721574 184.34451687 85.72021484 175.27563477 C81.34309314 170.10575263 78.2293767 164.32560715 75.19677734 158.29516602 C74.75849609 158.84043945 74.32021484 159.38571289 73.86865234 159.94750977 C68.35785932 166.49997708 62.19505323 171.40307439 55.19677734 176.29516602 C54.55353516 176.77856445 53.91029297 177.26196289 53.24755859 177.76000977 C37.82864539 188.60522287 17.07281438 190.52349323 -1.11572266 190.60766602 C-2.30343262 190.61330566 -3.49114258 190.61894531 -4.71484375 190.62475586 C-13.80830249 190.54745949 -13.80830249 190.54745949 -17.80322266 188.29516602 C-20.41164252 187.74062006 -23.02226423 187.35290938 -25.65869141 186.95532227 C-32.97499853 185.4193522 -39.60152151 182.67896467 -46.17822266 179.17016602 C-47.28230469 178.58138672 -47.28230469 178.58138672 -48.40869141 177.98071289 C-54.84889795 174.44480264 -60.40260135 170.28506046 -65.80322266 165.29516602 C-66.57923828 164.61067383 -67.35525391 163.92618164 -68.15478516 163.22094727 C-84.58035147 147.95250847 -93.94335422 124.98001136 -94.91259766 102.79125977 C-95.67821789 75.87970848 -90.20987086 51.91199337 -71.80322266 31.29516602 C-71.12646484 30.5359082 -70.44970703 29.77665039 -69.75244141 28.99438477 C-51.34820162 9.51348012 -26.38986156 0.14415866 0 0 Z " fill="#EB9F12" transform="translate(1285.80322265625,372.704833984375)"/>
<path d="M0 0 C1.09919518 -0.00855011 1.09919518 -0.00855011 2.22059631 -0.01727295 C3.76952696 -0.02668213 5.31847725 -0.03324062 6.86743164 -0.03710938 C9.18478659 -0.04671798 11.50121569 -0.07773826 13.81835938 -0.109375 C26.87197892 -0.20386908 39.21455094 1.41847081 51.41015625 6.390625 C52.16385498 6.69323242 52.91755371 6.99583984 53.6940918 7.30761719 C70.77915033 14.40082963 85.15426621 25.70882258 95.28515625 41.203125 C96.35056641 42.82347656 96.35056641 42.82347656 97.4375 44.4765625 C110.09818972 64.65790588 110.28515625 86.52955544 110.28515625 110.203125 C54.84515625 110.203125 -0.59484375 110.203125 -57.71484375 110.203125 C-52.9448657 127.69304452 -46.78231907 140.32616995 -30.71484375 149.578125 C-25.25018451 152.58011904 -19.66400867 155.30764974 -13.71484375 157.203125 C-12.59464844 157.56148437 -11.47445312 157.91984375 -10.3203125 158.2890625 C-4.11454161 159.79564074 2.25203644 159.49187688 8.59765625 159.453125 C9.85255859 159.46085938 11.10746094 159.46859375 12.40039062 159.4765625 C23.56448469 159.45329185 33.24026628 158.21476913 43.41015625 153.515625 C44.18713867 153.16258301 44.96412109 152.80954102 45.76464844 152.44580078 C52.08929187 149.48004505 58.0213839 146.1026083 62.56616211 140.67260742 C65.43606056 137.39956002 66.67439991 136.30171409 71.1328125 135.58203125 C72.53879201 135.61110788 73.94438796 135.67363616 75.34765625 135.765625 C76.08773926 135.79084229 76.82782227 135.81605957 77.59033203 135.84204102 C79.82519653 135.92836729 82.053297 136.05978079 84.28515625 136.203125 C85.57035156 136.27273438 86.85554687 136.34234375 88.1796875 136.4140625 C96.55320018 136.95913964 96.55320018 136.95913964 100.28515625 138.203125 C99.78391802 142.96488819 97.54891476 146.19201238 94.78515625 149.953125 C94.33374268 150.57147217 93.8823291 151.18981934 93.41723633 151.8269043 C77.68830912 172.95584856 52.85147577 185.32876546 27.12426758 189.32788086 C-1.85051418 193.22533856 -32.54870923 188.42829738 -56.33984375 170.515625 C-67.12083428 162.05394921 -74.69906819 151.82434832 -81.71484375 140.203125 C-82.22917969 139.43613281 -82.74351562 138.66914063 -83.2734375 137.87890625 C-85.3566529 134.01169068 -86.55620687 129.95518356 -87.83984375 125.765625 C-88.10410156 124.93224609 -88.36835937 124.09886719 -88.640625 123.24023438 C-92.4677038 110.95278595 -91.88718452 98.96541259 -91.71484375 86.203125 C-91.7096875 85.01203125 -91.70453125 83.8209375 -91.69921875 82.59375 C-90.83172877 60.65864629 -77.43181784 39.20800103 -61.96484375 24.515625 C-45.41412792 10.2310841 -21.97214291 0.13581229 0 0 Z " fill="#F9F9F9" transform="translate(810.71484375,372.796875)"/>
<path d="M0 0 C10.89 0 21.78 0 33 0 C33 46.86 33 93.72 33 142 C37.89637915 137.71566824 42.74495758 133.43216917 47.5 129 C51.55916699 125.23342743 55.6541529 121.52776613 59.84375 117.90625 C62.77240513 115.31714909 65.63393663 112.65800659 68.5 110 C72.62870728 106.17203225 76.78486325 102.39141307 81.04296875 98.70703125 C83.3855915 96.66366569 85.69273422 94.58319141 88 92.5 C91.61676345 89.23609152 95.26389608 86.01209051 98.9375 82.8125 C101.30964429 80.72788836 103.65556065 78.61571356 106 76.5 C109.61676345 73.23609152 113.26389608 70.01209051 116.9375 66.8125 C119.30964429 64.72788836 121.65556065 62.61571356 124 60.5 C127.61676345 57.23609152 131.26389608 54.01209051 134.9375 50.8125 C138.17651586 47.96609213 141.36963856 45.06904969 144.5703125 42.1796875 C146.6560618 40.30854906 148.75817628 38.46075169 150.875 36.625 C154.84330549 33.17080696 158.71012559 29.60869442 162.57983398 26.04516602 C165.33438092 23.512893 168.10725075 21.00979797 170.9375 18.5625 C174.65106344 15.34355495 178.26490297 12.02137701 181.875 8.6875 C182.44726318 8.15906494 183.01952637 7.63062988 183.60913086 7.08618164 C185.7699861 5.08555725 187.91751706 3.08248294 190 1 C192.13870239 0.75949097 192.13870239 0.75949097 194.81689453 0.77294922 C195.81778107 0.77310028 196.8186676 0.77325134 197.84988403 0.77340698 C199.47493362 0.78889084 199.47493362 0.78889084 201.1328125 0.8046875 C202.79327103 0.80893234 202.79327103 0.80893234 204.48727417 0.81326294 C208.03329137 0.82448481 211.57905875 0.84959309 215.125 0.875 C217.52473594 0.8850272 219.92447583 0.8941535 222.32421875 0.90234375 C228.21623151 0.92443068 234.10809791 0.95792793 240 1 C236.86967594 4.8217598 233.98960404 8.0188431 230.0625 11.0625 C225.51337258 14.69323023 221.23278994 18.50637684 217 22.5 C212.94165828 26.32248729 208.85698122 30.01441502 204.5 33.5 C198.80368295 38.06041926 193.52680934 43.01734663 188.20703125 48.00390625 C183.54808681 52.36990293 178.72929197 56.53175833 173.86328125 60.6640625 C167.27879976 66.26575804 160.80769998 71.9523613 154.48046875 77.84375 C151.02630626 81.05969439 147.52564408 84.20517955 143.95703125 87.29296875 C141.6144085 89.33633431 139.30726578 91.41680859 137 93.5 C134.01937279 96.18983431 131.02754767 98.86310364 128 101.5 C127.05253906 102.32951172 127.05253906 102.32951172 126.0859375 103.17578125 C124.51163432 104.5525595 122.93270204 105.92404706 121.3515625 107.29296875 C120.45179688 108.08316406 119.55203125 108.87335938 118.625 109.6875 C117.79226563 110.41324219 116.95953125 111.13898438 116.1015625 111.88671875 C114.10029925 113.89914147 113.17779634 115.46730754 112 118 C112.47832275 118.47308594 112.95664551 118.94617188 113.44946289 119.43359375 C115.6565534 121.61964406 117.85953633 123.80979129 120.0625 126 C120.81466797 126.74378906 121.56683594 127.48757813 122.34179688 128.25390625 C125.74299989 131.64038545 129.07672496 135.02754029 132.18359375 138.6875 C137.73929665 145.14557502 143.94776108 151.0133088 150 157 C152.48219066 159.45530773 154.96084642 161.91410847 157.4375 164.375 C158.26906616 165.19411865 158.26906616 165.19411865 159.11743164 166.02978516 C161.96299926 168.8578639 164.67557996 171.74501193 167.29052734 174.78833008 C171.59691505 179.76445668 176.2492035 184.37394998 180.9140625 189.01171875 C181.84672943 189.94297073 182.77939636 190.87422272 183.74032593 191.83369446 C186.19878949 194.28837675 188.66023852 196.74004306 191.12237549 199.19104004 C193.62246636 201.68087423 196.11971135 204.17355917 198.6171875 206.66601562 C202.27532407 210.31623559 205.93496611 213.96493838 209.59619141 217.61206055 C210.37013245 218.38331268 211.14407349 219.15456482 211.94146729 219.94918823 C213.16783876 221.17095995 214.39467676 222.39226413 215.62249756 223.61257935 C218.51470318 226.49182646 221.26783948 229.4679682 224 232.5 C228.80962393 237.8076644 233.81714257 242.88869206 238.93554688 247.8984375 C240.30735486 249.24857658 241.65618215 250.62199918 243 252 C243 252.33 243 252.66 243 253 C236.70700488 253.35883917 230.41668874 253.60164217 224.11572266 253.76904297 C221.9793041 253.83889423 219.84354126 253.93402687 217.70947266 254.05615234 C199.07665645 255.09470276 199.07665645 255.09470276 192.62988281 250.10253906 C188.98754306 246.73598353 185.97226326 242.95531368 183 239 C181.82472378 237.63521086 180.63978764 236.27855483 179.4375 234.9375 C178.66599609 234.02871094 178.66599609 234.02871094 177.87890625 233.1015625 C173.17130076 227.83609108 168.02196684 222.96304991 163 218 C150.18745161 205.33776642 150.18745161 205.33776642 144.8828125 199.10546875 C140.33119997 194.01559498 135.35671502 189.29726237 130.5 184.5 C118.24834013 172.39831673 118.24834013 172.39831673 114.49609375 167.9921875 C111.52244206 164.50094395 108.32435722 161.26262271 105.06640625 158.0390625 C104.27543045 157.25634979 104.27543045 157.25634979 103.46847534 156.45782471 C101.2726212 154.28973047 99.07306136 152.12547529 96.86938477 149.96533203 C95.24325081 148.36921101 93.62324105 146.76707677 92.00390625 145.1640625 C91.50089493 144.6745108 90.99788361 144.18495911 90.47962952 143.68057251 C89.28138007 142.49116463 88.13516637 141.24975604 87 140 C87 139.34 87 138.68 87 138 C82.50063253 141.89343546 78.06743844 145.8474704 73.6875 149.875 C70.08608829 153.16432238 66.42692725 156.32017636 62.625 159.375 C57.86231968 163.21367957 53.36767358 167.27008189 48.94189453 171.48779297 C48.44415527 171.95717285 47.94641602 172.42655273 47.43359375 172.91015625 C46.69613167 173.62029121 46.69613167 173.62029121 45.94377136 174.34477234 C44 176 44 176 41.51921082 177.48594666 C37.19053521 180.25545749 34.44694072 182.33707191 33.08073425 187.42030334 C32.74606185 191.67587431 32.71662771 195.83074193 32.8046875 200.09375 C32.80089539 201.65174998 32.79269755 203.20974489 32.78030396 204.7677002 C32.75958655 208.84570426 32.79827421 212.92101138 32.84979248 216.99865723 C32.89921575 221.90292982 32.8740678 226.80733084 32.86157227 231.71176147 C32.85091269 239.14281986 32.93432789 246.56746217 33 254 C22.11 254 11.22 254 0 254 C0 170.18 0 86.36 0 0 Z " fill="#F9F9F9" transform="translate(269,307)"/>
<path d="M0 0 C1.361721 1.1578404 2.71649249 2.32392931 4.0625 3.5 C4.67480469 3.95890625 5.28710938 4.4178125 5.91796875 4.890625 C16.41699774 12.95610422 22.87072946 27.6852015 25.0625 40.5 C25.35805628 44.27529996 25.38744405 48.02702147 25.375 51.8125 C25.39111328 52.78123047 25.40722656 53.74996094 25.42382812 54.74804688 C25.43467087 71.00132375 18.54257188 86.82719234 7.33520508 98.54125977 C-5.09647388 110.79027609 -22.4218646 117.72196756 -39.79296875 117.7734375 C-40.66566406 117.76570312 -41.53835938 117.75796875 -42.4375 117.75 C-43.31019531 117.75773438 -44.18289063 117.76546875 -45.08203125 117.7734375 C-63.03136289 117.7202543 -78.8532659 111.19636046 -92.24609375 99.48046875 C-104.45724862 87.03127967 -109.47577369 69.64496341 -109.375 52.6875 C-109.39498047 51.50607422 -109.41496094 50.32464844 -109.43554688 49.10742188 C-109.42614629 31.9513527 -102.86530332 17.4496972 -90.921875 5.296875 C-67.85326919 -16.98564464 -25.65515344 -19.65445653 0 0 Z " fill="#020101" transform="translate(1333.9375,415.5)"/>
<path d="M0 0 C11.88 0 23.76 0 36 0 C41.7984904 11.44235439 47.46672053 22.90244625 52.8125 34.5625 C58.66559086 47.31209428 64.81363266 59.90921783 71 72.5 C77.66348746 86.06495661 84.25339489 99.64703957 90.55786133 113.38305664 C94.8726529 122.77813255 99.34554379 132.09149725 103.86547852 141.38916016 C104.37780029 142.44538574 104.89012207 143.50161133 105.41796875 144.58984375 C106.09508911 145.97997681 106.09508911 145.97997681 106.78588867 147.39819336 C107.95393219 149.90127798 109.00122796 152.42529071 110 155 C110.66 155 111.32 155 112 155 C112.4832373 153.90147705 112.96647461 152.8029541 113.46435547 151.67114258 C118.20159857 140.93662719 123.09542174 130.28781736 128.125 119.6875 C128.86085952 118.13339148 129.59669901 116.57927347 130.33251953 115.02514648 C134.85243268 105.48726982 139.39269815 95.95900589 143.96820068 86.44766235 C144.56674305 85.20334125 145.16461674 83.95869824 145.76177979 82.7137146 C146.58601069 80.99670828 147.41401478 79.28151477 148.2421875 77.56640625 C148.7047998 76.60677979 149.16741211 75.64715332 149.64404297 74.65844727 C151 72 151 72 152.55639648 69.44238281 C153.93469612 67.11048538 154.91089535 64.888487 155.85546875 62.35546875 C158.01055063 56.82712629 160.61282495 51.59171854 163.3125 46.3125 C167.20751344 38.61593786 170.97354575 30.88333682 174.5859375 23.05078125 C176.31373103 19.32313831 178.13856483 15.66282405 180 12 C181.98 8.04 183.96 4.08 186 0 C197.55 0 209.1 0 221 0 C217.6278057 10.11658291 217.6278057 10.11658291 215.25 14.7578125 C214.46919067 16.29707397 214.46919067 16.29707397 213.67260742 17.86743164 C213.12064697 18.9424292 212.56868652 20.01742676 212 21.125 C210.8278101 23.43798333 209.65726817 25.75180248 208.48828125 28.06640625 C207.90256348 29.22543457 207.3168457 30.38446289 206.71337891 31.57861328 C204.14326792 36.71077848 201.65560676 41.88065798 199.1875 47.0625 C198.51110474 48.48212036 198.51110474 48.48212036 197.82104492 49.93041992 C195.46458511 54.88881314 193.12738629 59.85600994 190.80004883 64.828125 C186.98858648 72.9692955 183.03322116 81.02665984 178.98242188 89.05126953 C177.39669225 92.19672028 175.82371826 95.34852727 174.25 98.5 C171.81834818 103.36950209 169.37941262 108.23525141 166.93359375 113.09765625 C166.39766602 114.165 165.86173828 115.23234375 165.30957031 116.33203125 C164.24935351 118.44352865 163.18757036 120.55424049 162.12402344 122.6640625 C160.17614492 126.54702979 158.25353353 130.40477709 156.55078125 134.40234375 C153.60089289 141.24578752 150.0997824 147.8359071 146.73828125 154.484375 C143.99373539 159.93578417 141.36241762 165.37040908 139 171 C137.02 175.29 135.04 179.58 133 184 C118.15 184 103.3 184 88 184 C75.49822462 158.05545539 75.49822462 158.05545539 71.1171875 148.85717773 C64.89011208 135.78741783 58.54349435 122.77660536 52.19433594 109.76586914 C47.3092918 99.75331425 42.45290959 89.72770907 37.625 79.6875 C30.74908298 65.40137175 23.67524747 51.21594841 16.51708984 37.06933594 C12.73839596 29.57124119 9.14513096 21.99760458 5.625 14.375 C4.80708984 12.62123047 4.80708984 12.62123047 3.97265625 10.83203125 C3.45832031 9.71957031 2.94398438 8.60710937 2.4140625 7.4609375 C1.9495166 6.45853027 1.4849707 5.45612305 1.00634766 4.42333984 C0 2 0 2 0 0 Z " fill="#F9F8F9" transform="translate(925,376)"/>
<path d="M0 0 C11.22 0 22.44 0 34 0 C34.00586624 2.51290649 34.01173248 5.02581299 34.01777649 7.61486816 C34.07442711 31.27600508 34.14749849 54.93705052 34.23571491 78.59809113 C34.28067449 90.76297642 34.32008885 102.92783242 34.34643555 115.09277344 C34.36941423 125.69611604 34.40281095 136.29936598 34.44870156 146.9026351 C34.47263537 152.51663175 34.49136317 158.13053662 34.49761391 163.74458313 C34.50366395 169.03051168 34.52366126 174.31620537 34.55427551 179.60204697 C34.56305695 181.54018905 34.5667781 183.47836182 34.56500816 185.41652298 C34.56335177 188.06770649 34.58008582 190.71817715 34.60127258 193.3692627 C34.59642501 194.13193152 34.59157743 194.89460034 34.58658296 195.68038034 C34.67879365 202.69694621 36.50933713 209.37976555 41.3894043 214.6953125 C48.61557911 220.54898511 57.76565206 220.63952588 66.625 220.75 C70.70875 220.8325 74.7925 220.915 79 221 C79 231.23 79 241.46 79 252 C73.66463196 252.09252083 68.33211729 252.1719428 62.99658203 252.21972656 C61.18691506 252.23967311 59.37731111 252.26684053 57.56787109 252.30175781 C40.34286072 252.62550041 26.48142339 249.98994883 13.3125 238 C-0.49865635 223.4297198 -0.30047407 205.4894902 -0.22705078 186.63574219 C-0.22648579 184.59458929 -0.22680494 182.55343599 -0.22793579 180.51228333 C-0.22850687 175.00280295 -0.2167923 169.49341063 -0.20278788 163.98395061 C-0.1902396 158.21442302 -0.1891068 152.44489314 -0.18673706 146.675354 C-0.1805343 135.76407476 -0.16413983 124.85283586 -0.14403808 113.94157434 C-0.12164153 101.51348495 -0.11067622 89.08539359 -0.10064721 76.65728903 C-0.0797725 51.10483628 -0.04421459 25.55242211 0 0 Z " fill="#FAF9FA" transform="translate(623,308)"/>
<path d="M0 0 C11.22 0 22.44 0 34 0 C34 61.05 34 122.1 34 185 C22.78 185 11.56 185 0 185 C0 123.95 0 62.9 0 0 Z " fill="#00A6B6" transform="translate(1469,375)"/>
<path d="M0 0 C1.18247314 0.00902344 2.36494629 0.01804687 3.58325195 0.02734375 C22.54822634 0.40260398 40.57039114 6.91842248 54.0625 20.5703125 C62.18856458 29.66258598 66.625 38.17116754 66.625 50.4375 C22.075 50.4375 -22.475 50.4375 -68.375 50.4375 C-64.61753432 33.52890444 -57.53408378 21.35605585 -42.9375 11.625 C-29.25409577 3.46869313 -15.95681557 -0.14692989 0 0 Z " fill="#030304" transform="translate(820.375,402.5625)"/>
<path d="M0 0 C1.47583955 0.0001591 2.95168467 0.00585225 4.42749023 0.01586914 C5.20293686 0.01728409 5.97838348 0.01869904 6.77732849 0.02015686 C9.26361893 0.02577194 11.74982059 0.03832693 14.23608398 0.05102539 C15.91772331 0.05603845 17.59936405 0.06060169 19.28100586 0.06469727 C23.41189965 0.07574626 27.54272674 0.09302094 31.67358398 0.11352539 C31.05444648 3.37675607 30.33789932 6.16770711 28.92358398 9.17602539 C24.96856803 17.81423714 21.4288268 26.59359676 18.17749023 35.51977539 C16.86671453 38.65201864 15.42538316 41.60887314 13.88061523 44.62915039 C10.45984449 51.38985734 7.60869419 58.33171474 4.79858398 65.36352539 C3.10733398 69.57102539 1.41608398 73.77852539 -0.32641602 78.11352539 C-10.88641602 78.11352539 -21.44641602 78.11352539 -32.32641602 78.11352539 C-28.95786565 66.88502416 -28.95786565 66.88502416 -27.09204102 62.37133789 C-26.68646973 61.37851807 -26.28089844 60.38569824 -25.86303711 59.36279297 C-25.43845215 58.33178467 -25.01386719 57.30077637 -24.57641602 56.23852539 C-20.48274233 46.15441779 -16.7540771 36.00387248 -13.22680664 25.71118164 C-11.5129912 20.76676832 -9.733145 15.8462895 -7.95141602 10.92602539 C-7.6051416 9.96220947 -7.25886719 8.99839355 -6.90209961 8.00537109 C-6.58063965 7.11938232 -6.25917969 6.23339355 -5.92797852 5.32055664 C-5.6426123 4.53140869 -5.35724609 3.74226074 -5.06323242 2.92919922 C-3.79650667 -0.19228501 -3.66376777 0.12503868 0 0 Z " fill="#F8F8F9" transform="translate(550.326416015625,307.886474609375)"/>
<path d="M0 0 C6.91251894 2.48227331 12.25617901 8.35382884 15.375 14.875 C16.70011653 21.50058265 16.7725432 27.06688714 13.40625 33.078125 C10.0451554 37.67162096 5.36125921 41.94322601 0 44 C-6.66709599 44.66326407 -13.38201321 45.07304042 -19 41 C-24.42904506 36.07598239 -27.59458461 32.37848624 -28.2734375 25.046875 C-28.46763984 18.7427683 -28.46913291 13.90184308 -24.63671875 8.71875 C-17.16414667 0.8716576 -10.7533815 -1.09676927 0 0 Z " fill="#F8F8F8" transform="translate(1154,518)"/>
<path d="M0 0 C5.78251878 2.4918483 10.35447924 7.98973313 13.01171875 13.58984375 C14.9544305 19.58855858 14.32552209 24.6208189 11.6875 30.3125 C7.95366596 37.07745212 3.24738306 40.62693486 -4.1875 43.0625 C-10.93687835 43.70529794 -16.71515391 42.8125981 -22.140625 38.515625 C-27.79403581 33.14726012 -30.32848156 28.63972559 -30.75 20.75 C-30.56569926 14.00766455 -28.87469816 9.88527827 -24.1875 5.0625 C-16.96184918 -1.68704204 -9.40448842 -2.65538497 0 0 Z " fill="#00A6B5" transform="translate(1494.1875,292.9375)"/>
<path d="M0 0 C4.27786394 0.95846705 7.11466143 2.87504375 9.74609375 6.34375 C11.02836424 10.83169672 10.78926757 14.44399806 9.12109375 18.78125 C6.87824047 22.30573372 5.42456883 23.99044931 1.32421875 25.0703125 C-2.85809357 25.78607736 -5.08027627 25.78524536 -9.00390625 23.96875 C-12.8884065 20.36171405 -14.29425999 17.33833982 -15.25390625 12.15625 C-14.47815631 7.65690036 -12.95718158 5.35072119 -9.828125 2.08203125 C-6.54291613 -0.234537 -3.93469392 -0.33537726 0 0 Z " fill="#181818" transform="translate(1230.62890625,626.46875)"/>
<path d="M0 0 C0.66 0 1.32 0 2 0 C2 61.05 2 122.1 2 185 C-8.23 185 -18.46 185 -29 185 C-29 184.67 -29 184.34 -29 184 C-19.43 183.67 -9.86 183.34 0 183 C0 122.61 0 62.22 0 0 Z " fill="#00A0AA" transform="translate(1501,375)"/>
<path d="M0 0 C0.99 0 1.98 0 3 0 C3 8.58 3 17.16 3 26 C2.01 26 1.02 26 0 26 C0 25.34 0 24.68 0 24 C-0.515625 24.33 -1.03125 24.66 -1.5625 25 C-4.96121795 26.39434583 -7.35594448 26.44751559 -11 26 C-14.07858499 23.96944394 -15.645391 22.4855968 -16.515625 18.83984375 C-16.75643284 15.56157336 -16.73366826 13.08422647 -14.85546875 10.30859375 C-12.31130167 7.95238624 -10.2219453 7.03046308 -6.8125 6.5625 C-4 7 -4 7 -1 9 C-0.67 6.03 -0.34 3.06 0 0 Z " fill="#D9D8D9" transform="translate(950,626)"/>
<path d="M0 0 C1.98 0 3.96 0 6 0 C6.25394531 0.73605469 6.50789062 1.47210937 6.76953125 2.23046875 C7.11371094 3.20628906 7.45789063 4.18210937 7.8125 5.1875 C8.14894531 6.15042969 8.48539063 7.11335937 8.83203125 8.10546875 C9.9241704 11.04101948 9.9241704 11.04101948 11.63671875 13.67578125 C13 16 13 16 13 19 C13.66 19 14.32 19 15 19 C15.17208984 17.95392578 15.17208984 17.95392578 15.34765625 16.88671875 C16.07227141 13.68018818 17.16845827 10.84389049 18.4375 7.8125 C19.08525391 6.24435547 19.08525391 6.24435547 19.74609375 4.64453125 C21 2 21 2 23 0 C24.32 0 25.64 0 27 0 C27 8.25 27 16.5 27 25 C26.01 25 25.02 25 24 25 C23.67 19.06 23.34 13.12 23 7 C22.236875 8.85625 21.47375 10.7125 20.6875 12.625 C18.93347552 16.84063838 17.13066184 20.96295652 15 25 C14.01 25 13.02 25 12 25 C9.69 19.39 7.38 13.78 5 8 C4.67 13.61 4.34 19.22 4 25 C2.68 25 1.36 25 0 25 C0 16.75 0 8.5 0 0 Z " fill="#D4D3D4" transform="translate(823,627)"/>
<path d="M0 0 C3.25065168 2.69566237 3.88285869 4.28413644 4.5625 8.4375 C3.82298645 13.12108584 2.63715985 14.95666217 -1 18 C-4.14606321 18.74526995 -6.84624876 18.6855981 -10 18 C-12.87029869 16.20606332 -14.49131638 15.01736724 -16 12 C-16.375 8.6875 -16.375 8.6875 -16 5 C-11.04636301 -0.99650794 -7.36641014 -1.88412622 0 0 Z " fill="#DBDBDB" transform="translate(1055,634)"/>
<path d="M0 0 C0.66 0 1.32 0 2 0 C2 8.58 2 17.16 2 26 C1.34 26 0.68 26 0 26 C-0.33 25.34 -0.66 24.68 -1 24 C-1.66 24.66 -2.32 25.32 -3 26 C-7.80073273 26.55090376 -9.91189752 26.70273285 -14 24.0625 C-16.33953725 20.48008358 -16.74316342 18.30323817 -16.4765625 14.09375 C-16 12 -16 12 -14 9.4375 C-9.94513415 7.49454345 -7.47183139 7.56014773 -3 8 C-2.34 8.66 -1.68 9.32 -1 10 C-0.67 6.7 -0.34 3.4 0 0 Z " fill="#0B0A0B" transform="translate(702,626)"/>
<path d="M0 0 C0.66 0 1.32 0 2 0 C2.33 0.66 2.66 1.32 3 2 C3.66 1.34 4.32 0.68 5 0 C9.18234503 -0.69436616 12.84199261 -0.6496139 16.5625 1.4375 C18.69897123 5.2459922 18.79967568 8.73506302 18 13 C16.12379387 15.50160818 14.76108697 16.61945652 12 18 C7.94857881 18.25860135 6.45662331 18.30441554 3 16 C2.67 18.97 2.34 21.94 2 25 C1.34 25 0.68 25 0 25 C0 16.75 0 8.5 0 0 Z " fill="#0B0A0B" transform="translate(536,634)"/>
<path d="M0 0 C3.4375 1.9375 3.4375 1.9375 6 5 C6.73285112 8.14398723 6.70597441 10.85253075 6 14 C4.12379387 16.50160818 2.76108697 17.61945652 0 19 C-6.94263424 19.68288206 -6.94263424 19.68288206 -11 17.0625 C-13.32336554 13.50484652 -13.79853128 11.34743713 -13.546875 7.16015625 C-13 5 -13 5 -10.4375 1.9375 C-6.41915413 -0.32738586 -4.53425456 -0.80968831 0 0 Z " fill="#E9E9E9" transform="translate(1142,633)"/>
<path d="M0 0 C0.66 0 1.32 0 2 0 C2.33 3.3 2.66 6.6 3 10 C3.66 9.34 4.32 8.68 5 8 C9.87833311 7.44019128 11.91563693 7.25450039 16 10.0625 C18.51930235 13.76272533 18.7066341 15.6031656 18 20 C16.20437595 22.75329021 14.94745078 24.52627461 12 26 C7.94857881 26.25860135 6.45662331 26.30441554 3 24 C2.67 24.66 2.34 25.32 2 26 C1.34 26 0.68 26 0 26 C0 17.42 0 8.84 0 0 Z " fill="#0C0C0D" transform="translate(730,626)"/>
<path d="M0 0 C1.65 0 3.3 0 5 0 C7.64 5.94 10.28 11.88 13 18 C16.0453994 12.07381738 18.78915806 6.28344553 21 0 C22.65 0 24.3 0 26 0 C26 7.92 26 15.84 26 24 C25.01 24 24.02 24 23 24 C22.67 18.72 22.34 13.44 22 8 C19.69 13.61 17.38 19.22 15 25 C11 24 11 24 9.90332031 22.41772461 C9.63100586 21.75264893 9.35869141 21.08757324 9.078125 20.40234375 C8.77519531 19.68369141 8.47226562 18.96503906 8.16015625 18.22460938 C7.85980469 17.46986328 7.55945313 16.71511719 7.25 15.9375 C6.77626953 14.79958008 6.77626953 14.79958008 6.29296875 13.63867188 C5.51508751 11.76468524 4.75575498 9.88301873 4 8 C3.67 13.28 3.34 18.56 3 24 C2.01 24 1.02 24 0 24 C0 16.08 0 8.16 0 0 Z " fill="#EFEFEE" transform="translate(875,627)"/>
<path d="M0 0 C2.99028679 1.99352453 4.57809415 3.40255495 5.51171875 6.9375 C5.70293629 9.18111914 5.61632427 10.83193733 5 13 C2.11239742 16.30011723 0.28752448 17.78979192 -4.0625 18.5 C-7.3536683 17.93980114 -9.32958728 16.98373516 -12 15 C-13.73892856 11.52214289 -13.57964634 7.79466151 -13 4 C-9.57082966 -0.3936245 -5.27222342 -1.20113155 0 0 Z " fill="#090909" transform="translate(575,634)"/>
<path d="M0 0 C0.99 0.33 1.98 0.66 3 1 C4.32 1 5.64 1 7 1 C7 6.94 7 12.88 7 19 C4.586875 19.0825 2.17375 19.165 -0.3125 19.25 C-1.06829346 19.28641602 -1.82408691 19.32283203 -2.6027832 19.36035156 C-5.86948654 19.41459975 -7.55233507 19.41688247 -9.98828125 17.1484375 C-11 15 -11 15 -10.875 12.375 C-10 10 -10 10 -7 8 C-4.51953125 7.8046875 -4.51953125 7.8046875 -1.8125 7.875 C-0.91144531 7.89304687 -0.01039063 7.91109375 0.91796875 7.9296875 C1.60503906 7.95289063 2.29210937 7.97609375 3 8 C3 7.01 3 6.02 3 5 C0.03 4.67 -2.94 4.34 -6 4 C-6.33 4.66 -6.66 5.32 -7 6 C-7.99 6 -8.98 6 -10 6 C-9.6875 4.125 -9.6875 4.125 -9 2 C-5.52728445 -0.3151437 -4.07260203 -0.25453763 0 0 Z " fill="#F6F6F6" transform="translate(983,633)"/>
<path d="M0 0 C3.3125 1.5625 3.3125 1.5625 6 4 C6.33 6.31 6.66 8.62 7 11 C2.05 11 -2.9 11 -8 11 C-7.34 12.32 -6.68 13.64 -6 15 C-1.83861737 15.08159574 1.9472484 14.98248524 6 14 C5.26953125 15.94140625 5.26953125 15.94140625 4 18 C-0.11028317 19.47776389 -3.95007922 19.4467748 -7.9375 17.75 C-10.9451961 15.19801543 -11.93701687 13.56684817 -12.375 9.625 C-11.94171326 5.4365615 -10.93759961 3.93759961 -8 1 C-5.13391871 -0.43304064 -3.18699217 -0.30644155 0 0 Z " fill="#E4E4E4" transform="translate(921,633)"/>
<path d="M0 0 C1.051875 -0.01675781 2.10375 -0.03351562 3.1875 -0.05078125 C6 0.3125 6 0.3125 7.875 1.64453125 C9 3.3125 9 3.3125 9 6.3125 C5.125 5.4375 5.125 5.4375 4 4.3125 C2.48071962 4.24070036 0.95832518 4.22857993 -0.5625 4.25 C-1.38878906 4.25902344 -2.21507812 4.26804687 -3.06640625 4.27734375 C-4.02353516 4.29474609 -4.02353516 4.29474609 -5 4.3125 C-4.67 5.9625 -4.34 7.6125 -4 9.3125 C-3.15695312 9.50585938 -2.31390625 9.69921875 -1.4453125 9.8984375 C-0.34960938 10.15882813 0.74609375 10.41921875 1.875 10.6875 C2.96554687 10.94273437 4.05609375 11.19796875 5.1796875 11.4609375 C8 12.3125 8 12.3125 10 14.3125 C10.56321839 20.5079023 10.56321839 20.5079023 8.6875 23.1875 C4.55246992 25.94418672 -0.21591385 25.94088259 -5 25.3125 C-8.0625 23.4375 -8.0625 23.4375 -10 21.3125 C-10 20.6525 -10 19.9925 -10 19.3125 C-9.01 18.9825 -8.02 18.6525 -7 18.3125 C-6.649375 18.8075 -6.29875 19.3025 -5.9375 19.8125 C-2.9984205 22.08791639 -0.60573045 21.63444022 3 21.3125 C3.99 20.6525 4.98 19.9925 6 19.3125 C6 18.3225 6 17.3325 6 16.3125 C5.26394531 16.14234375 4.52789063 15.9721875 3.76953125 15.796875 C-7.04566127 13.11093551 -7.04566127 13.11093551 -10 9.3125 C-10 5.6875 -10 5.6875 -9 2.3125 C-5.55324591 0.01466394 -4.06671888 0.01495117 0 0 Z " fill="#E6E5E5" transform="translate(1023,626.6875)"/>
<path d="M0 0 C3.37837952 0.85821738 4.94314777 2.74995318 6.9375 5.4921875 C6.9375 6.8121875 6.9375 8.1321875 6.9375 9.4921875 C1.6575 9.4921875 -3.6225 9.4921875 -9.0625 9.4921875 C-7.60961014 14.0763838 -7.60961014 14.0763838 -6.0625 15.4921875 C0.2524985 15.90672463 0.2524985 15.90672463 5.9375 13.4921875 C4.9375 16.4921875 4.9375 16.4921875 3.25 17.6796875 C-0.43667385 18.97500534 -3.63104301 19.00910252 -7.3125 17.6796875 C-9.0625 16.4921875 -9.0625 16.4921875 -11.0625 13.4921875 C-11.6118667 8.62636816 -11.79740373 6.5945431 -9.0625 2.4921875 C-5.73133481 0.27141071 -3.92376185 -0.25266648 0 0 Z " fill="#CECECF" transform="translate(672.0625,633.5078125)"/>
<path d="M0 0 C2.5 1.6875 2.5 1.6875 4 4 C4 5.65 4 7.3 4 9 C-0.95 9 -5.9 9 -11 9 C-9.54711014 13.5841963 -9.54711014 13.5841963 -8 15 C-1.6850015 15.41453713 -1.6850015 15.41453713 4 13 C3 16 3 16 1.375 17.1875 C-1.94319892 18.32267332 -4.51721368 18.37315568 -8 18 C-10.36497439 16.13291495 -11.66030715 14.67938569 -13 12 C-13.48602588 7.70677141 -13.46241608 5.67917361 -11 2.0625 C-6.84919686 -0.79117716 -4.9698922 -0.7099846 0 0 Z " fill="#DAD9DB" transform="translate(633,634)"/>
<path d="M0 0 C4.10596954 0.39480476 5.43631424 1.3185106 8.25 4.3125 C8.62398847 7.12489326 8.73293015 9.28842155 8.5625 12.0625 C8.53994141 12.75988281 8.51738281 13.45726562 8.49414062 14.17578125 C8.43547048 15.88894935 8.34579256 17.60100623 8.25 19.3125 C6.93 19.3125 5.61 19.3125 4.25 19.3125 C4.18941406 18.31347656 4.12882812 17.31445312 4.06640625 16.28515625 C3.94072266 14.34962891 3.94072266 14.34962891 3.8125 12.375 C3.73128906 11.08722656 3.65007812 9.79945313 3.56640625 8.47265625 C3.60080812 5.45226043 3.60080812 5.45226043 2.25 4.3125 C-0.20809998 4.0624227 -0.20809998 4.0624227 -2.75 4.3125 C-5.52042109 7.08292109 -5.14796106 9.07783805 -5.375 12.9375 C-5.44976563 14.12601563 -5.52453125 15.31453125 -5.6015625 16.5390625 C-5.65054687 17.45429687 -5.69953125 18.36953125 -5.75 19.3125 C-7.07 19.3125 -8.39 19.3125 -9.75 19.3125 C-9.75 13.3725 -9.75 7.4325 -9.75 1.3125 C-7.77 1.3125 -5.79 1.3125 -3.75 1.3125 C-2.75 0.3125 -2.75 0.3125 0 0 Z " fill="#CCCCCC" transform="translate(1164.75,632.6875)"/>
<path d="M0 0 C1.32 0 2.64 0 4 0 C4.33 4.62 4.66 9.24 5 14 C6.98 14 8.96 14 11 14 C13.68092691 11.31907309 13.38670257 9.60832637 13.625 5.875 C13.69976563 4.77929688 13.77453125 3.68359375 13.8515625 2.5546875 C13.90054687 1.71164062 13.94953125 0.86859375 14 0 C15.32 0 16.64 0 18 0 C18 5.94 18 11.88 18 18 C16.68 18 15.36 18 14 18 C14 17.34 14 16.68 14 16 C13.46375 16.33 12.9275 16.66 12.375 17 C9.32806078 18.28292178 7.27967299 18.40995912 4 18 C1.828125 16.4296875 1.828125 16.4296875 0 14 C-0.390625 10.546875 -0.390625 10.546875 -0.25 6.75 C-0.21390625 5.48671875 -0.1778125 4.2234375 -0.140625 2.921875 C-0.09421875 1.95765625 -0.0478125 0.9934375 0 0 Z " fill="#C0C0C0" transform="translate(1077,634)"/>
<path d="M0 0 C2.5 1.375 2.5 1.375 4 3 C4 3.66 4 4.32 4 5 C3.484375 4.835 2.96875 4.67 2.4375 4.5 C-0.73363876 3.84951 -3.77218334 3.9379266 -7 4 C-7.33 4.99 -7.66 5.98 -8 7 C-7.39671875 7.03738281 -6.7934375 7.07476563 -6.171875 7.11328125 C-2.60516547 7.40667187 0.32238487 7.66945604 3.5625 9.25 C5 11 5 11 5.5625 13.5 C5 16 5 16 3 17.8125 C-1.05870294 19.41906991 -3.633594 19.41584819 -8 19 C-10.5 17.625 -10.5 17.625 -12 16 C-12 15.34 -12 14.68 -12 14 C-11.319375 14.165 -10.63875 14.33 -9.9375 14.5 C-6.5835178 15.07089059 -3.39610195 15.06659023 0 15 C0 14.01 0 13.02 0 12 C-0.62648438 11.87882813 -1.25296875 11.75765625 -1.8984375 11.6328125 C-3.12433594 11.38144531 -3.12433594 11.38144531 -4.375 11.125 C-5.18710938 10.96257813 -5.99921875 10.80015625 -6.8359375 10.6328125 C-9 10 -9 10 -11 8 C-11.35131571 5.25973747 -11.34419875 3.62386024 -10 1.1875 C-6.81948482 -0.70093089 -3.55184628 -0.54313947 0 0 Z " fill="#D7D7D7" transform="translate(1191,633)"/>
<path d="M0 0 C4.27786394 0.95846705 7.11466143 2.87504375 9.74609375 6.34375 C11.02836424 10.83169672 10.78926757 14.44399806 9.12109375 18.78125 C6.87824047 22.30573372 5.42456883 23.99044931 1.32421875 25.0703125 C-2.85809357 25.78607736 -5.08027627 25.78524536 -9.00390625 23.96875 C-12.8884065 20.36171405 -14.29425999 17.33833982 -15.25390625 12.15625 C-14.47815631 7.65690036 -12.95718158 5.35072119 -9.828125 2.08203125 C-6.54291613 -0.234537 -3.93469392 -0.33537726 0 0 Z M-9.62890625 4.40625 C-12.42923318 8.78176083 -12.5519881 12.4667739 -11.62890625 17.53125 C-9.83243771 20.46548195 -8.68479915 22.00330355 -5.62890625 23.53125 C-1.54980819 23.91607057 0.66199248 23.97246857 4.18359375 21.78125 C7.16839616 18.71116752 8.1922002 16.90276719 8.74609375 12.65625 C8.26960355 8.68549836 6.87646788 6.60928108 4.37109375 3.53125 C-0.91969981 1.76765215 -4.92137793 1.4640448 -9.62890625 4.40625 Z " fill="#D5D4D4" transform="translate(1230.62890625,626.46875)"/>
<path d="M0 0 C2 2 2 2 2.3125 5.4375 C2 9 2 9 0.9375 10.9375 C-2.11976176 12.6140629 -4.5906288 12.36528977 -8 12 C-9.9375 10.9375 -9.9375 10.9375 -11 9 C-11.4375 5.5 -11.4375 5.5 -11 2 C-7.87890362 -1.99500336 -4.5824922 -1.10319257 0 0 Z " fill="#0E0E0E" transform="translate(948,637)"/>
<path d="M0 0 C3.4375 0.75 3.4375 0.75 5.4375 2.75 C5.98337156 8.75458716 5.98337156 8.75458716 4.375 11.6875 C1.28256242 13.38335287 -1.11764741 13.18060657 -4.5625 12.75 C-6.5625 11.1875 -6.5625 11.1875 -7.5625 8.75 C-7.4375 5.125 -7.4375 5.125 -6.5625 1.75 C-3.5625 -0.25 -3.5625 -0.25 0 0 Z " fill="#100F10" transform="translate(1139.5625,636.25)"/>
<path d="M0 0 C2.4375 1.5625 2.4375 1.5625 4 4 C3.9375 7.625 3.9375 7.625 3 11 C-0.46923881 13.31282587 -1.92205575 13.42478586 -6 13 C-7.875 11.9375 -7.875 11.9375 -9 10 C-9.63316583 4.09045226 -9.63316583 4.09045226 -7.875 1.0625 C-5.06487736 -0.52990283 -3.17235276 -0.45319325 0 0 Z " fill="#131313" transform="translate(1052,636)"/>
<path d="M0 0 C0.33 0.66 0.66 1.32 1 2 C-3.455 2.495 -3.455 2.495 -8 3 C-8.33 7.95 -8.66 12.9 -9 18 C-8.01 18 -7.02 18 -6 18 C-6 16.02 -6 14.04 -6 12 C-4.68 12.33 -3.36 12.66 -2 13 C-1.87625 13.78375 -1.7525 14.5675 -1.625 15.375 C-1.20882007 18.14057822 -1.20882007 18.14057822 1 20 C0 21 0 21 -3.25 21.3125 C-7.55750548 20.95354121 -8.99111588 20.00888412 -12 17 C-13.86524588 13.26950824 -13.54848015 9.06257971 -13 5 C-9.41387839 -0.60331501 -6.13079617 -0.519559 0 0 Z " fill="#121212" transform="translate(1232,629)"/>
<path d="M0 0 C0.66 0 1.32 0 2 0 C2 8.58 2 17.16 2 26 C1.34 26 0.68 26 0 26 C-0.33 25.34 -0.66 24.68 -1 24 C-1.66 24.66 -2.32 25.32 -3 26 C-7.80073273 26.55090376 -9.91189752 26.70273285 -14 24.0625 C-16.33953725 20.48008358 -16.74316342 18.30323817 -16.4765625 14.09375 C-16 12 -16 12 -14 9.4375 C-9.94513415 7.49454345 -7.47183139 7.56014773 -3 8 C-2.34 8.66 -1.68 9.32 -1 10 C-0.67 6.7 -0.34 3.4 0 0 Z M-14 12 C-14.51330758 15.06273524 -14.61308923 17.95112384 -14 21 C-12.77173503 22.81694484 -12.77173503 22.81694484 -11 24 C-7.10495209 24.49573337 -4.90506283 24.58016848 -1.5625 22.4375 C0.61999672 19.03280512 0.63734462 16.96569988 0 13 C-2.42447124 10.29844633 -3.97799988 9.17448782 -7.5625 8.5625 C-10.70804096 9.12708428 -11.949553 9.49389811 -14 12 Z " fill="#C5C5C6" transform="translate(702,626)"/>
<path d="M0 0 C6.93 0 13.86 0 21 0 C21 0.99 21 1.98 21 3 C18.03 3 15.06 3 12 3 C12 9.93 12 16.86 12 24 C11.01 24 10.02 24 9 24 C9 17.07 9 10.14 9 3 C6.03 3 3.06 3 0 3 C0 2.01 0 1.02 0 0 Z " fill="#EEEEEE" transform="translate(795,627)"/>
<path d="M0 0 C1.32 0 2.64 0 4 0 C4 8.25 4 16.5 4 25 C3.01 25 2.02 25 1 25 C0.67 19.06 0.34 13.12 0 7 C-1.65 10.3 -3.3 13.6 -5 17 C-5.66 17 -6.32 17 -7 17 C-6.55611974 11.37751674 -4.09800282 4.09800282 0 0 Z " fill="#EAEAEA" transform="translate(846,627)"/>
<path d="M0 0 C0.66 0 1.32 0 2 0 C2.33 0.66 2.66 1.32 3 2 C3.66 1.34 4.32 0.68 5 0 C9.18234503 -0.69436616 12.84199261 -0.6496139 16.5625 1.4375 C18.69897123 5.2459922 18.79967568 8.73506302 18 13 C16.12379387 15.50160818 14.76108697 16.61945652 12 18 C7.94857881 18.25860135 6.45662331 18.30441554 3 16 C2.67 18.97 2.34 21.94 2 25 C1.34 25 0.68 25 0 25 C0 16.75 0 8.5 0 0 Z M2 5 C1.29808492 8.00734304 1.54685547 9.82798829 2 13 C3.44148975 15.18547684 3.44148975 15.18547684 6 16 C10.61982154 16.59474917 10.61982154 16.59474917 14.6875 14.7578125 C16.77603154 11.96067204 16.4725644 9.48020944 16.3515625 6.09765625 C16.15105964 3.83632006 16.15105964 3.83632006 14.3125 1.9375 C9.05342373 -0.19455795 5.76817132 0.69351849 2 5 Z " fill="#B6B6B6" transform="translate(536,634)"/>
<path d="M0 0 C0.66 0 1.32 0 2 0 C3.65 3.96 5.3 7.92 7 12 C7.639375 10.39125 8.27875 8.7825 8.9375 7.125 C10.875 2.25 10.875 2.25 12 0 C12.99 0.33 13.98 0.66 15 1 C16.67475947 4.90403795 17.75764469 8.93021538 19 13 C20.65 8.71 22.3 4.42 24 0 C24.66 0 25.32 0 26 0 C24.41039668 6.23440168 22.72399099 12.16287645 20 18 C19.34 18 18.68 18 18 18 C17.32779649 16.06441401 16.66241923 14.12645628 16 12.1875 C15.62875 11.10855469 15.2575 10.02960937 14.875 8.91796875 C14 6 14 6 14 3 C13.34 3 12.68 3 12 3 C11.89042969 3.58007812 11.78085937 4.16015625 11.66796875 4.7578125 C10.6856635 9.59746277 9.45178089 13.65366116 7 18 C4.68902596 15.13942468 3.17070609 12.41372871 1.8125 9 C1.46832031 8.154375 1.12414062 7.30875 0.76953125 6.4375 C0 4 0 4 0 0 Z " fill="#BEBEBF" transform="translate(587,634)"/>
<path d="M0 0 C0.33 0 0.66 0 1 0 C1 5.94 1 11.88 1 18 C-1.43375 18.061875 -3.8675 18.12375 -6.375 18.1875 C-7.52234619 18.22846802 -7.52234619 18.22846802 -8.69287109 18.27026367 C-10.46407019 18.2922324 -12.23492083 18.14874263 -14 18 C-14.66 17.01 -15.32 16.02 -16 15 C-15.34 14.34 -14.68 13.68 -14 13 C-13.67 12.01 -13.34 11.02 -13 10 C-9.78548731 8.39274365 -6.56387464 8.94251815 -3 9 C-3.33 10.98 -3.66 12.96 -4 15 C-3.34 15 -2.68 15 -2 15 C-2 15.66 -2 16.32 -2 17 C-1.34 17 -0.68 17 0 17 C0 11.39 0 5.78 0 0 Z " fill="#BEBEBE" transform="translate(989,634)"/>
<path d="M0 0 C0.66 0 1.32 0 2 0 C2.33 3.3 2.66 6.6 3 10 C3.66 9.34 4.32 8.68 5 8 C9.87833311 7.44019128 11.91563693 7.25450039 16 10.0625 C18.51930235 13.76272533 18.7066341 15.6031656 18 20 C16.20437595 22.75329021 14.94745078 24.52627461 12 26 C7.94857881 26.25860135 6.45662331 26.30441554 3 24 C2.67 24.66 2.34 25.32 2 26 C1.34 26 0.68 26 0 26 C0 17.42 0 8.84 0 0 Z M3.625 10.5625 C1.3914431 13.91283535 1.50601791 16.0481433 2 20 C2.81452316 22.55851025 2.81452316 22.55851025 5 24 C8.1755399 24.45364856 9.98847886 24.68938436 13 24 C15.74612994 22.08817732 15.74612994 22.08817732 17 19 C17 15.1862249 16.84985071 12.97575452 14.3125 10.0625 C10.29121631 8.21488317 7.36125542 8.10443723 3.625 10.5625 Z " fill="#C9C8C8" transform="translate(730,626)"/>
<path d="M0 0 C0.66 0 1.32 0 2 0 C3.1577506 3.47325181 3.06866652 6.36067448 3 10 C1.824375 10.2165625 1.824375 10.2165625 0.625 10.4375 C-1.96421018 10.87798925 -1.96421018 10.87798925 -4 12 C-4 11.34 -4 10.68 -4 10 C-4.680625 10.33 -5.36125 10.66 -6.0625 11 C-9.55825899 12.19004561 -12.32937859 12.27702803 -16 12 C-16.66 11.34 -17.32 10.68 -18 10 C-18 9.01 -18 8.02 -18 7 C-13.05 7 -8.1 7 -3 7 C-2.67 5.68 -2.34 4.36 -2 3 C-1.34 2.01 -0.68 1.02 0 0 Z " fill="#121212" transform="translate(931,637)"/>
<path d="M0 0 C1.051875 -0.01675781 2.10375 -0.03351562 3.1875 -0.05078125 C6 0.3125 6 0.3125 7.875 1.64453125 C9 3.3125 9 3.3125 9 6.3125 C5.125 5.4375 5.125 5.4375 4 4.3125 C2.48071962 4.24070036 0.95832518 4.22857993 -0.5625 4.25 C-1.38878906 4.25902344 -2.21507812 4.26804687 -3.06640625 4.27734375 C-4.02353516 4.29474609 -4.02353516 4.29474609 -5 4.3125 C-4.67 5.9625 -4.34 7.6125 -4 9.3125 C-1.03 9.8075 -1.03 9.8075 2 10.3125 C1.01 10.6425 0.02 10.9725 -1 11.3125 C-1 11.9725 -1 12.6325 -1 13.3125 C-0.34 13.6425 0.32 13.9725 1 14.3125 C-3.78308974 13.86756142 -6.79277237 13.00567121 -10 9.3125 C-10 5.6875 -10 5.6875 -9 2.3125 C-5.55324591 0.01466394 -4.06671888 0.01495117 0 0 Z " fill="#E2E2E2" transform="translate(1023,626.6875)"/>
<path d="M0 0 C0.99 0 1.98 0 3 0 C3 1.32 3 2.64 3 4 C4.65 4 6.3 4 8 4 C8 4.99 8 5.98 8 7 C6.35 7 4.7 7 3 7 C3.33 10.96 3.66 14.92 4 19 C5.32 19.33 6.64 19.66 8 20 C8 20.99 8 21.98 8 23 C5.125 23.125 5.125 23.125 2 23 C0 21 0 21 -0.1953125 17.7421875 C-0.17210937 16.46601562 -0.14890625 15.18984375 -0.125 13.875 C-0.10695313 12.59367188 -0.08890625 11.31234375 -0.0703125 9.9921875 C-0.04710937 9.00476563 -0.02390625 8.01734375 0 7 C-1.32 7 -2.64 7 -4 7 C-3.67 6.01 -3.34 5.02 -3 4 C-2.01 4 -1.02 4 0 4 C0 2.68 0 1.36 0 0 Z " fill="#E6E6E7" transform="translate(1104,629)"/>
<path d="M0 0 C1.32 0.33 2.64 0.66 4 1 C4 9.25 4 17.5 4 26 C2.68 26 1.36 26 0 26 C0 17.42 0 8.84 0 0 Z " fill="#C4C4C4" transform="translate(1066,626)"/>
<path d="M0 0 C5.29441695 -0.50423019 7.81413519 0.81076967 12 4 C11.34 5.65 10.68 7.3 10 9 C5.71 9 1.42 9 -3 9 C-2.34 7.35 -1.68 5.7 -1 4 C-0.64141484 2.67323492 -0.2981424 1.34164079 0 0 Z " fill="#D4D4D3" transform="translate(915,633)"/>
<path d="M0 0 C0.33 0 0.66 0 1 0 C1.12375 1.11375 1.2475 2.2275 1.375 3.375 C1.6465813 7.03103677 1.6465813 7.03103677 4 9 C8.63823162 9.47827951 8.63823162 9.47827951 12.875 7.875 C14.40430823 5.32615294 14.67470941 2.92761527 15 0 C17 2 17 2 17.1953125 4.6015625 C17.17210937 5.59929688 17.14890625 6.59703125 17.125 7.625 C17.10695313 8.62789062 17.08890625 9.63078125 17.0703125 10.6640625 C17.04710937 11.43492187 17.02390625 12.20578125 17 13 C16.01 13 15.02 13 14 13 C14 12.34 14 11.68 14 11 C13.484375 11.33 12.96875 11.66 12.4375 12 C9.08597404 13.37498501 6.59034613 13.38467994 3 13 C0.5625 11.5 0.5625 11.5 -1 9 C-1.38098652 6.19702775 -1.23428133 3.85823224 -1 1 C-0.67 0.67 -0.34 0.34 0 0 Z " fill="#EEEDEE" transform="translate(936,639)"/>
<path d="M0 0 C2.99028679 1.99352453 4.57809415 3.40255495 5.51171875 6.9375 C5.70293629 9.18111914 5.61632427 10.83193733 5 13 C2.11239742 16.30011723 0.28752448 17.78979192 -4.0625 18.5 C-7.3536683 17.93980114 -9.32958728 16.98373516 -12 15 C-13.73892856 11.52214289 -13.57964634 7.79466151 -13 4 C-9.57082966 -0.3936245 -5.27222342 -1.20113155 0 0 Z M-11 4 C-11.51330758 7.06273524 -11.61308923 9.95112384 -11 13 C-9.47761182 15.0950296 -8.61034606 15.87448529 -6.0625 16.3984375 C-1.88710459 16.36029433 -1.88710459 16.36029433 2 15 C3.63727748 11.72544504 3.75671118 8.51481735 3 5 C0.57641976 2.23019401 -0.93754294 1.18139511 -4.5625 0.5625 C-7.70804096 1.12708428 -8.949553 1.49389811 -11 4 Z " fill="#C8C7C8" transform="translate(575,634)"/>
<path d="M0 0 C1.65 0 3.3 0 5 0 C5 7.92 5 15.84 5 24 C4.01 24 3.02 24 2 24 C1.67 18.39 1.34 12.78 1 7 C0.34 7 -0.32 7 -1 7 C-0.67 4.69 -0.34 2.38 0 0 Z " fill="#F5F5F5" transform="translate(896,627)"/>
<path d="M0 0 C2.97 0 5.94 0 9 0 C9.33 1.65 9.66 3.3 10 5 C9.34 4.34 8.68 3.68 8 3 C5.42938689 2.35232207 5.42938689 2.35232207 3 2 C3 3.65 3 5.3 3 7 C4.65 7 6.3 7 8 7 C8 7.99 8 8.98 8 10 C8.66 10 9.32 10 10 10 C10.33 11.65 10.66 13.3 11 15 C10.34 15 9.68 15 9 15 C8.525625 14.195625 8.05125 13.39125 7.5625 12.5625 C6.20016328 9.7081924 6.20016328 9.7081924 3 9 C3 10.98 3 12.96 3 15 C2.01 15 1.02 15 0 15 C0 10.05 0 5.1 0 0 Z " fill="#C5C5C5" transform="translate(1223,632)"/>
<path d="M0 0 C4.7242915 1.09671053 4.7242915 1.09671053 6.5 3.8125 C6.5 4.8025 6.5 5.7925 6.5 6.8125 C1.88 6.8125 -2.74 6.8125 -7.5 6.8125 C-7.17 5.1625 -6.84 3.5125 -6.5 1.8125 C-3.5 -0.1875 -3.5 -0.1875 0 0 Z " fill="#161616" transform="translate(670.5,635.1875)"/>
<path d="M0 0 C4.7242915 1.09671053 4.7242915 1.09671053 6.5 3.8125 C6.5 4.8025 6.5 5.7925 6.5 6.8125 C1.88 6.8125 -2.74 6.8125 -7.5 6.8125 C-7.17 5.1625 -6.84 3.5125 -6.5 1.8125 C-3.5 -0.1875 -3.5 -0.1875 0 0 Z " fill="#151415" transform="translate(629.5,635.1875)"/>
<path d="M0 0 C1.32 0 2.64 0 4 0 C4 6.27 4 12.54 4 19 C2.68 19 1.36 19 0 19 C0 12.73 0 6.46 0 0 Z " fill="#C4C4C4" transform="translate(1118,633)"/>
<path d="M0 0 C2.55263088 2.274694 3.84144815 4.43202693 5.1875 7.5625 C5.53167969 8.34753906 5.87585938 9.13257813 6.23046875 9.94140625 C7 12 7 12 7 14 C7.66 14 8.32 14 9 14 C9.18175781 13.40832031 9.36351562 12.81664062 9.55078125 12.20703125 C10.95667057 7.787492 12.37527181 3.87459875 15 0 C16 2 16 2 15.33496094 4.01538086 C14.97176758 4.82370361 14.60857422 5.63202637 14.234375 6.46484375 C13.83863281 7.34720703 13.44289063 8.22957031 13.03515625 9.13867188 C12.39900391 10.5240918 12.39900391 10.5240918 11.75 11.9375 C11.34136719 12.85724609 10.93273437 13.77699219 10.51171875 14.72460938 C6.81347039 22.87621467 6.81347039 22.87621467 4 25 C2.68 25 1.36 25 0 25 C0 24.34 0 23.68 0 23 C0.804375 22.79375 1.60875 22.5875 2.4375 22.375 C5.26405583 21.24184858 5.26405583 21.24184858 5.84375 18.3359375 C6.03855343 14.17688424 4.93830609 11.94206277 3.0625 8.25 C0 2.13895216 0 2.13895216 0 0 Z " fill="#C9C9CA" transform="translate(755,634)"/>
<path d="M0 0 C1.32 0 2.64 0 4 0 C4 5.94 4 11.88 4 18 C2.68 18 1.36 18 0 18 C0 12.06 0 6.12 0 0 Z " fill="#CECECE" transform="translate(961,634)"/>
<path d="M0 0 C2.5 1.375 2.5 1.375 4 3 C4 3.66 4 4.32 4 5 C3.484375 4.835 2.96875 4.67 2.4375 4.5 C-0.73363876 3.84951 -3.77218334 3.9379266 -7 4 C-7.33 4.99 -7.66 5.98 -8 7 C-6.35 7.33 -4.7 7.66 -3 8 C-3 8.66 -3 9.32 -3 10 C-5.875 10.125 -5.875 10.125 -9 10 C-11 8 -11 8 -11.3125 5.5625 C-11 3 -11 3 -10 1.1875 C-6.81948482 -0.70093089 -3.55184628 -0.54313947 0 0 Z " fill="#E7E7E8" transform="translate(1191,633)"/>
<path d="M0 0 C1.10272751 0.00707474 2.20545502 0.01414948 3.34159851 0.0214386 C6.85733392 0.04938636 10.37146618 0.1121296 13.88671875 0.17578125 C16.27276343 0.20086344 18.65883312 0.22367674 21.04492188 0.24414062 C26.88856612 0.29921433 32.7312779 0.3828458 38.57421875 0.48828125 C37.25421875 1.80828125 35.93421875 3.12828125 34.57421875 4.48828125 C34.07921875 3.49828125 34.07921875 3.49828125 33.57421875 2.48828125 C27.38123233 2.38940036 21.18870543 2.31680639 14.99511719 2.26855469 C12.88826493 2.24843999 10.7814685 2.22114458 8.67480469 2.18652344 C5.64634428 2.13799957 2.61862197 2.11531109 -0.41015625 2.09765625 C-1.3519574 2.07701111 -2.29375854 2.05636597 -3.26409912 2.03509521 C-8.55658581 1.95998544 -8.55658581 1.95998544 -13.05175781 4.51269531 C-13.50518555 5.16463867 -13.95861328 5.81658203 -14.42578125 6.48828125 C-15.08578125 6.15828125 -15.74578125 5.82828125 -16.42578125 5.48828125 C-11.93814752 -0.71710702 -7.25585428 -0.17534482 0 0 Z " fill="#DCDCDD" transform="translate(470.42578125,307.51171875)"/>
<path d="M0 0 C0.66 0 1.32 0 2 0 C2.33 0.66 2.66 1.32 3 2 C3.66 1.34 4.32 0.68 5 0 C9.23670507 -0.70339119 12.86621203 -0.69133413 16.5625 1.5625 C18.4844884 4.82152381 18.28577701 7.28489886 18 11 C17.67 11 17.34 11 17 11 C16.731875 9.88625 16.46375 8.7725 16.1875 7.625 C15.34190981 3.78159049 15.34190981 3.78159049 12 2 C6.95998592 2.23212966 6.95998592 2.23212966 3 5 C2.75746187 7.21072977 2.75746187 7.21072977 2.875 9.625 C2.89304687 10.44226563 2.91109375 11.25953125 2.9296875 12.1015625 C2.95289063 12.72804688 2.97609375 13.35453125 3 14 C2.34 14 1.68 14 1 14 C-0.38226016 11.23547967 -0.09525387 8.9538637 -0.0625 5.875 C-0.05347656 4.77929688 -0.04445313 3.68359375 -0.03515625 2.5546875 C-0.02355469 1.71164062 -0.01195312 0.86859375 0 0 Z " fill="#CECECE" transform="translate(536,634)"/>
<path d="M0 0 C0.66 0 1.32 0 2 0 C3.65 3.96 5.3 7.92 7 12 C7.99 9.03 8.98 6.06 10 3 C10.99 4.485 10.99 4.485 12 6 C11.390625 8.6640625 11.390625 8.6640625 10.25 11.625 C9.88390625 12.60726562 9.5178125 13.58953125 9.140625 14.6015625 C8 17 8 17 6 18 C4.99095625 15.7536764 3.9926398 13.50356063 3 11.25 C2.71382812 10.61578125 2.42765625 9.9815625 2.1328125 9.328125 C0.63993298 5.91582896 0 3.79218083 0 0 Z " fill="#B6B5B6" transform="translate(587,634)"/>
<path d="M0 0 C2.66246807 1.33123403 2.94601652 2.6764378 4.125 5.375 C4.47820313 6.16648437 4.83140625 6.95796875 5.1953125 7.7734375 C6 10 6 10 6 13 C5.38125 13.268125 4.7625 13.53625 4.125 13.8125 C1.7004767 14.95556848 1.7004767 14.95556848 0 18 C0 12.06 0 6.12 0 0 Z " fill="#1A1A1A" transform="translate(827,634)"/>
<path d="M0 0 C1.8871875 0.061875 1.8871875 0.061875 3.8125 0.125 C3.4375 2.5625 3.4375 2.5625 2.8125 5.125 C0.10370665 6.47939668 -2.19683268 6.19001451 -5.1875 6.125 C-5.8475 4.805 -6.5075 3.485 -7.1875 2.125 C-4.09861478 0.06574319 -3.47814073 -0.1140374 0 0 Z " fill="#232323" transform="translate(982.1875,642.875)"/>
<path d="M0 0 C1.175625 0.33 2.35125 0.66 3.5625 1 C3.5625 1.33 3.5625 1.66 3.5625 2 C1.95375 2.12375 1.95375 2.12375 0.3125 2.25 C-3.8742935 3.0873587 -4.8809909 3.69416927 -7.4375 7 C-8.13147449 10.03222778 -8.13147449 10.03222778 -8.1875 13.25 C-8.24421875 14.32765625 -8.3009375 15.4053125 -8.359375 16.515625 C-8.38515625 17.33546875 -8.4109375 18.1553125 -8.4375 19 C-10.4375 18 -10.4375 18 -11.4375 15 C-12.00699403 11.36947555 -11.9845092 8.96894008 -10.15625 5.73046875 C-7.15853688 1.84025468 -5.1433621 -0.66011064 0 0 Z " fill="#CDCCCD" transform="translate(1227.4375,627)"/>
<path d="M0 0 C0.66 0 1.32 0 2 0 C3.1577506 3.47325181 3.06866652 6.36067448 3 10 C2.21625 10.144375 1.4325 10.28875 0.625 10.4375 C-1.96421018 10.87798925 -1.96421018 10.87798925 -4 12 C-4 11.01 -4 10.02 -4 9 C-4.99 8.67 -5.98 8.34 -7 8 C-6.01 7.67 -5.02 7.34 -4 7 C-2.89163577 5.11683841 -2.89163577 5.11683841 -2 3 C-1.34 2.01 -0.68 1.02 0 0 Z " fill="#0C0C0C" transform="translate(931,637)"/>
<path d="M0 0 C2.97 0.33 5.94 0.66 9 1 C9.33 2.32 9.66 3.64 10 5 C9 6 9 6 5.6875 6.25 C1.90232794 5.99337817 0.66974142 5.56295176 -2 3 C-1.34 2.01 -0.68 1.02 0 0 Z " fill="#171717" transform="translate(1182,643)"/>
<path d="M0 0 C7.42857143 -0.28571429 7.42857143 -0.28571429 11 2 C11.33 1.34 11.66 0.68 12 0 C12 3 12 3 10.5625 4.8125 C6.54819914 6.67278576 3.10674388 5.21973803 -1 4 C-0.67 2.68 -0.34 1.36 0 0 Z " fill="#161616" transform="translate(1184,636)"/>
<path d="M0 0 C0.99 0 1.98 0 3 0 C3 5.61 3 11.22 3 17 C2.34 17 1.68 17 1 17 C1 16.34 1 15.68 1 15 C0.34 14.67 -0.32 14.34 -1 14 C-0.67 9.38 -0.34 4.76 0 0 Z " fill="#F0EFF0" transform="translate(1091,634)"/>
<path d="M0 0 C3.125 0.1875 3.125 0.1875 6.125 2.1875 C6.125 3.1775 6.125 4.1675 6.125 5.1875 C0.185 5.6825 0.185 5.6825 -5.875 6.1875 C-3.49107143 0.22767857 -3.49107143 0.22767857 0 0 Z " fill="#201F1F" transform="translate(979.875,635.8125)"/>
<path d="M0 0 C0.33 0 0.66 0 1 0 C1.09474609 0.92232422 1.09474609 0.92232422 1.19140625 1.86328125 C1.76541311 6.68673839 1.76541311 6.68673839 4.69140625 10.265625 C6.82891351 11.19165553 6.82891351 11.19165553 10 12 C10 12.33 10 12.66 10 13 C2.77108434 13.48192771 2.77108434 13.48192771 -0.5 11.4375 C-2.5390434 8.12405448 -2.42431591 5.81884318 -2 2 C-1.34 1.34 -0.68 0.68 0 0 Z " fill="#F3F3F3" transform="translate(1131,638)"/>
<path d="M0 0 C0.33 1.32 0.66 2.64 1 4 C-2.63 4 -6.26 4 -10 4 C-9.67 2.68 -9.34 1.36 -9 0 C-5.93109813 -1.53445094 -3.29905734 -0.54984289 0 0 Z " fill="#171717" transform="translate(923,637)"/>
<path d="M0 0 C0.66 0 1.32 0 2 0 C2 0.66 2 1.32 2 2 C2.99 1.34 3.98 0.68 5 0 C7.1875 0.375 7.1875 0.375 9 1 C8.02804687 1.34675781 7.05609375 1.69351563 6.0546875 2.05078125 C2.65603127 3.72207527 2.65603127 3.72207527 2.1953125 7.35546875 C2.17210937 8.62003906 2.14890625 9.88460937 2.125 11.1875 C2.08632813 12.45980469 2.04765625 13.73210938 2.0078125 15.04296875 C2.00523437 16.01878906 2.00265625 16.99460937 2 18 C1.34 18 0.68 18 0 18 C0 12.06 0 6.12 0 0 Z " fill="#C8C7C7" transform="translate(646,634)"/>
<path d="M0 0 C0.33 0.66 0.66 1.32 1 2 C1.66 2.33 2.32 2.66 3 3 C2.29465117 4.82190102 1.55982907 6.63241287 0.8125 8.4375 C0.20341797 9.95150391 0.20341797 9.95150391 -0.41796875 11.49609375 C-2 14 -2 14 -4.67578125 14.84765625 C-5.44277344 14.89792969 -6.20976563 14.94820312 -7 15 C-6.28593365 13.57186731 -5.56659416 12.14636621 -4.84375 10.72265625 C-4.4003125 9.84480469 -3.956875 8.96695313 -3.5 8.0625 C-3.0565625 7.18722656 -2.613125 6.31195312 -2.15625 5.41015625 C-0.91291859 2.94747077 -0.91291859 2.94747077 0 0 Z " fill="#E0E0E0" transform="translate(894,632)"/>
<path d="M0 0 C0.66 0.66 1.32 1.32 2 2 C-1 4 -1 4 -4.5625 4.5 C-8.0571192 4.65847757 -8.0571192 4.65847757 -10 7 C-10.99 7 -11.98 7 -13 7 C-10.34990332 0.59559969 -6.77523651 -0.62733671 0 0 Z " fill="#D5D4D5" transform="translate(1142,633)"/>
<path d="M0 0 C2.375 0.5 2.375 0.5 4 1 C4 1.99 4 2.98 4 4 C3.01 4.33 2.02 4.66 1 5 C0.67 4.67 0.34 4.34 0 4 C-1.99958364 3.95919217 -4.00045254 3.95745644 -6 4 C-6.33 4.66 -6.66 5.32 -7 6 C-7.99 6 -8.98 6 -10 6 C-9.6875 4.125 -9.6875 4.125 -9 2 C-5.51064529 -0.32623648 -4.09517402 -0.25072494 0 0 Z " fill="#C5C4C3" transform="translate(983,633)"/>
<path d="M0 0 C1.32 0 2.64 0 4 0 C2.80100302 3.0831351 1.52299523 6.06279492 0 9 C-0.99 9 -1.98 9 -3 9 C-3.66 7.02 -4.32 5.04 -5 3 C-4.01 2.67 -3.02 2.34 -2 2 C-1.34 2.33 -0.68 2.66 0 3 C0 2.01 0 1.02 0 0 Z " fill="#D5D4D5" transform="translate(838,643)"/>
<path d="M0 0 C2.66666667 0 5.33333333 0 8 0 C8.36923077 4.55384615 8.36923077 4.55384615 6.5 6.8125 C6.005 7.204375 5.51 7.59625 5 8 C5 7.01 5 6.02 5 5 C3.35 5 1.7 5 0 5 C0 3.35 0 1.7 0 0 Z " fill="#B1B1B1" transform="translate(1226,634)"/>
<path d="M0 0 C3.40271155 0.86265927 4.97420759 2.70003457 6.94140625 5.4921875 C6.75390625 7.8046875 6.75390625 7.8046875 5.94140625 9.4921875 C5.42578125 8.5228125 4.91015625 7.5534375 4.37890625 6.5546875 C2.18993589 3.17782578 2.18993589 3.17782578 -1.62109375 2.5546875 C-5.04194663 2.30140432 -5.04194663 2.30140432 -8.05859375 3.4921875 C-8.38859375 5.1421875 -8.71859375 6.7921875 -9.05859375 8.4921875 C-9.71859375 7.5021875 -10.37859375 6.5121875 -11.05859375 5.4921875 C-7.65673166 1.23985989 -5.34753928 -0.34500253 0 0 Z " fill="#C5C4C4" transform="translate(672.05859375,633.5078125)"/>
<path d="M0 0 C0 0.66 0 1.32 0 2 C-1.1446875 2.2784375 -1.1446875 2.2784375 -2.3125 2.5625 C-6.18615728 4.63445622 -6.56545263 6.92286538 -8 11 C-10 8 -10 8 -9.8125 4.9375 C-8.30831386 -0.50071142 -4.96325547 -0.22058913 0 0 Z " fill="#EDEDED" transform="translate(1050,634)"/>
<path d="M0 0 C0.28875 0.61875 0.5775 1.2375 0.875 1.875 C1.93720042 4.13325765 1.93720042 4.13325765 4 6 C10.31707327 6.45384636 10.31707327 6.45384636 16 4 C15 7 15 7 13.375 8.1875 C10.05680108 9.32267332 7.48278632 9.37315568 4 9 C1.09282927 6.78136971 0.16018357 5.48055071 -1 2 C-0.67 1.34 -0.34 0.68 0 0 Z " fill="#BDBDBE" transform="translate(621,643)"/>
<path d="M0 0 C1.2684375 1.2375 1.2684375 1.2375 2.5625 2.5 C5.21907206 4.72323052 5.96882758 4.99677527 9.625 5.375 C12.20197569 5.08866937 14.53821547 4.78777105 17 4 C17 4.66 17 5.32 17 6 C13.16177822 7.80622201 10.23634378 8.51873597 6 8 C2.625 6.25 2.625 6.25 0 4 C0 2.68 0 1.36 0 0 Z " fill="#DCDBDB" transform="translate(1219,644)"/>
<path d="M0 0 C0.33 0 0.66 0 1 0 C1.12375 1.11375 1.2475 2.2275 1.375 3.375 C1.6465813 7.03103677 1.6465813 7.03103677 4 9 C6.68839385 9.26991906 9.29141936 9.08737357 12 9 C12 9.99 12 10.98 12 12 C4.89416058 12.60218978 4.89416058 12.60218978 0.9375 9.9375 C-1 7 -1 7 -0.8125 3.1875 C-0.544375 2.135625 -0.27625 1.08375 0 0 Z " fill="#AAAAAB" transform="translate(687,640)"/>
<path d="M0 0 C0.495 0.474375 0.99 0.94875 1.5 1.4375 C4.99468651 3.62167907 7.90966936 3.65913911 12 4 C11.67 4.66 11.34 5.32 11 6 C9.39667209 6.08121924 7.79215974 6.13929134 6.1875 6.1875 C5.29417969 6.22230469 4.40085937 6.25710938 3.48046875 6.29296875 C1 6 1 6 -0.82421875 4.61328125 C-2 3 -2 3 -2 1 C-1.34 0.67 -0.68 0.34 0 0 Z " fill="#F3F3F3" transform="translate(1015,645)"/>
<path d="M0 0 C1.98 0.99 1.98 0.99 4 2 C4 4.97 4 7.94 4 11 C4.99 11.33 5.98 11.66 7 12 C6.01 12.33 5.02 12.66 4 13 C1.78631706 10.78631706 0.13447079 9.06983375 -0.265625 5.88671875 C-0.25166986 3.92253213 -0.13286356 1.9597375 0 0 Z " fill="#0B0B0B" transform="translate(1219,636)"/>
<path d="M0 0 C0 0.99 0 1.98 0 3 C-12.87 2.505 -12.87 2.505 -26 2 C-26 1.67 -26 1.34 -26 1 C-22.7917943 0.83081552 -19.58341796 0.66510635 -16.375 0.5 C-15.47136719 0.45230469 -14.56773438 0.40460937 -13.63671875 0.35546875 C-9.08545547 0.12292245 -4.55915017 -0.06058671 0 0 Z " fill="#1A0F02" transform="translate(1305,562)"/>
<path d="M0 0 C2 2 2 2 2 5 C-1.875 4.125 -1.875 4.125 -3 3 C-5.32817964 2.63239269 -7.6618385 2.29758419 -10 2 C-6.27872546 -0.48084969 -4.22982696 -1.50090634 0 0 Z " fill="#DBDCDC" transform="translate(1030,628)"/>
<path d="M0 0 C0.33 0.99 0.66 1.98 1 3 C-2.76687454 6.93809611 -2.76687454 6.93809611 -5.9453125 7.09765625 C-7.96354167 7.06510417 -9.98177083 7.03255208 -12 7 C-9.45202629 3.8858099 -6.76978646 3.17805827 -3 2 C-2.01 1.34 -1.02 0.68 0 0 Z " fill="#E2E2E2" transform="translate(1146,645)"/>
<path d="M0 0 C0.66 0.33 1.32 0.66 2 1 C-5.46432319 10.05613851 -5.46432319 10.05613851 -10 12 C-10.66 11.67 -11.32 11.34 -12 11 C-8.04 7.37 -4.08 3.74 0 0 Z " fill="#202020" transform="translate(460,351)"/>
<path d="M0 0 C0.66 0 1.32 0 2 0 C2 4.95 2 9.9 2 15 C1.34 15 0.68 15 0 15 C-0.19390729 12.68802845 -0.37996367 10.3753971 -0.5625 8.0625 C-0.71912109 6.13083984 -0.71912109 6.13083984 -0.87890625 4.16015625 C-0.91886719 3.11730469 -0.95882813 2.07445312 -1 1 C-0.67 0.67 -0.34 0.34 0 0 Z " fill="#F9F9F9" transform="translate(1170,636)"/>
<path d="M0 0 C0.33 0 0.66 0 1 0 C1.75 3.25 1.75 3.25 2 7 C0.15863826 9.41281883 -1.30301826 10.65150913 -4 12 C-5.99960012 12.039992 -8.00047242 12.04346799 -10 12 C-9.67 11.34 -9.34 10.68 -9 10 C-6.67793475 9.29508733 -4.34406932 8.62787571 -2 8 C-0.03177114 6.03177114 -0.33751619 2.65191291 0 0 Z " fill="#ABAAAA" transform="translate(552,640)"/>
<path d="M0 0 C2.64 0 5.28 0 8 0 C8.33 1.65 8.66 3.3 9 5 C8.34 4.34 7.68 3.68 7 3 C4.42938689 2.35232207 4.42938689 2.35232207 2 2 C1.67 3.65 1.34 5.3 1 7 C0.67 7 0.34 7 0 7 C0 4.69 0 2.38 0 0 Z " fill="#E6E6E6" transform="translate(1224,632)"/>
<path d="M0 0 C2.97 0 5.94 0 9 0 C8.67 0.99 8.34 1.98 8 3 C6.329375 3.2165625 6.329375 3.2165625 4.625 3.4375 C1.17857953 3.78372035 1.17857953 3.78372035 -1 5 C-0.67 3.35 -0.34 1.7 0 0 Z " fill="#141414" transform="translate(1018,630)"/>
<path d="M0 0 C0.33 0.99 0.66 1.98 1 3 C-1.05233685 5.2477975 -2.00667261 6.0022242 -5 7 C-6.56118428 7.06740865 -8.1250252 7.08514456 -9.6875 7.0625 C-10.89986328 7.04896484 -10.89986328 7.04896484 -12.13671875 7.03515625 C-13.05904297 7.01775391 -13.05904297 7.01775391 -14 7 C-14 6.67 -14 6.34 -14 6 C-11.36 5.67 -8.72 5.34 -6 5 C-6 4.34 -6 3.68 -6 3 C-5.195625 2.690625 -4.39125 2.38125 -3.5625 2.0625 C-1.10919595 1.23664655 -1.10919595 1.23664655 0 0 Z " fill="#E4E4E3" transform="translate(1032,645)"/>
<path d="M0 0 C0.33 0 0.66 0 1 0 C1.12375 1.11375 1.2475 2.2275 1.375 3.375 C1.6465813 7.03103677 1.6465813 7.03103677 4 9 C6.31765729 9.71927295 8.65095874 10.3909893 11 11 C11 11.33 11 11.66 11 12 C6.36574638 12.32332002 3.71316711 11.8644432 0 9 C-1.15941038 5.52176885 -0.70820884 3.54104422 0 0 Z " fill="#9D9D9D" transform="translate(563,640)"/>
<path d="M0 0 C0.33 0 0.66 0 1 0 C1.33183276 3.16900284 1.32336245 4.56440252 -0.609375 7.16796875 C-1.66898438 8.16763672 -1.66898438 8.16763672 -2.75 9.1875 C-3.44609375 9.86167969 -4.1421875 10.53585937 -4.859375 11.23046875 C-6.84592541 12.87263542 -8.65044771 13.96810203 -11 15 C-11.33 14.34 -11.66 13.68 -12 13 C-11.113125 12.46375 -10.22625 11.9275 -9.3125 11.375 C-4.98270403 8.49188942 -1.6703153 5.01094591 0 0 Z " fill="#323233" transform="translate(1168,547)"/>
<path d="M0 0 C0.598125 0.20625 1.19625 0.4125 1.8125 0.625 C1.173125 1.0375 0.53375 1.45 -0.125 1.875 C-2.39740931 3.80310487 -2.78946439 4.73924181 -3.1875 7.625 C-4.1775 7.295 -5.1675 6.965 -6.1875 6.625 C-5.875 4.25 -5.875 4.25 -5.1875 1.625 C-2.1875 -0.375 -2.1875 -0.375 0 0 Z " fill="#E7E7E7" transform="translate(978.1875,641.375)"/>
<path d="M0 0 C3.3 0 6.6 0 10 0 C9.67 0.99 9.34 1.98 9 3 C6.03 3 3.06 3 0 3 C0 2.01 0 1.02 0 0 Z " fill="#E7E7E6" transform="translate(795,627)"/>
<path d="M0 0 C0.99 1.485 0.99 1.485 2 3 C2.66 2.67 3.32 2.34 4 2 C4.66 4.31 5.32 6.62 6 9 C4.68 9.33 3.36 9.66 2 10 C-0.4294516 6.3558226 -0.16179575 4.28758728 0 0 Z " fill="#BFBEBF" transform="translate(1039,639)"/>
<path d="M0 0 C2 2 2 2 2.1953125 4.3828125 C2.17210937 5.28773438 2.14890625 6.19265625 2.125 7.125 C2.10695313 8.03507813 2.08890625 8.94515625 2.0703125 9.8828125 C2.04710937 10.58148437 2.02390625 11.28015625 2 12 C1.34 12 0.68 12 0 12 C0 11.34 0 10.68 0 10 C-0.66 9.67 -1.32 9.34 -2 9 C-1.34 6.03 -0.68 3.06 0 0 Z " fill="#FBFBFB" transform="translate(951,639)"/>
<path d="M0 0 C3 1 3 1 3.984375 2.92578125 C4.23703125 3.71339844 4.4896875 4.50101563 4.75 5.3125 C5.01296875 6.09238281 5.2759375 6.87226562 5.546875 7.67578125 C6.03298902 10.16921091 5.80665429 11.6181897 5 14 C4.49384702 12.73160474 3.99530901 11.46016898 3.5 10.1875 C3.2215625 9.47980469 2.943125 8.77210938 2.65625 8.04296875 C2 6 2 6 2 3 C1.34 3 0.68 3 0 3 C-0.33 3.66 -0.66 4.32 -1 5 C-0.67 3.35 -0.34 1.7 0 0 Z " fill="#CDCDCE" transform="translate(599,634)"/>
<path d="M0 0 C0.99 0.33 1.98 0.66 3 1 C3 4.3 3 7.6 3 11 C1 10 1 10 0 7 C-0.03954234 4.66700175 -0.04401732 2.33291811 0 0 Z " fill="#B5B5B6" transform="translate(1216,635)"/>
<path d="M0 0 C7.33333333 -0.36666667 7.33333333 -0.36666667 10.5 1.375 C12 3 12 3 12 5 C9.15449988 4.33989524 6.47674001 3.48275034 3.75 2.4375 C3.04359375 2.16808594 2.3371875 1.89867187 1.609375 1.62109375 C1.07828125 1.41613281 0.5471875 1.21117187 0 1 C0 0.67 0 0.34 0 0 Z " fill="#CECECE" transform="translate(1183,633)"/>
<path d="M0 0 C-1.0719904 3.4541913 -2.09716431 4.05218083 -5.375 5.8125 C-8.941828 6.98094365 -9.67475827 7.07667519 -13 6 C-11.21118264 4.99491199 -9.41885304 3.99607264 -7.625 3 C-6.62726563 2.443125 -5.62953125 1.88625 -4.6015625 1.3125 C-2 0 -2 0 0 0 Z " fill="#DA9707" transform="translate(1333,521)"/>
<path d="M0 0 C0.66 0.33 1.32 0.66 2 1 C1.44570313 1.53109375 0.89140625 2.0621875 0.3203125 2.609375 C-0.40414063 3.31578125 -1.12859375 4.0221875 -1.875 4.75 C-2.95394531 5.79414063 -2.95394531 5.79414063 -4.0546875 6.859375 C-5.86479679 8.85122217 -6.94848086 10.5427658 -8 13 C-8.66 12.67 -9.32 12.34 -10 12 C-8.52278578 8.54798361 -6.56205999 6.35038064 -3.875 3.75 C-3.15054687 3.04359375 -2.42609375 2.3371875 -1.6796875 1.609375 C-1.12539063 1.07828125 -0.57109375 0.5471875 0 0 Z " fill="#222222" transform="translate(390,413)"/>
<path d="M0 0 C0.99 0 1.98 0 3 0 C4.421875 1.6796875 4.421875 1.6796875 5.75 3.875 C6.19859375 4.59429687 6.6471875 5.31359375 7.109375 6.0546875 C7.40328125 6.69664062 7.6971875 7.33859375 8 8 C7.67 8.66 7.34 9.32 7 10 C6.34 10 5.68 10 5 10 C3.35 6.7 1.7 3.4 0 0 Z " fill="#E29A0D" transform="translate(1347,428)"/>
<path d="M0 0 C3.63 0.33 7.26 0.66 11 1 C10.67 1.66 10.34 2.32 10 3 C7.03 3 4.06 3 1 3 C0.67 2.01 0.34 1.02 0 0 Z " fill="#E7E7E8" transform="translate(1042,648)"/>
<path d="M0 0 C1.38609004 3.15020465 0.89180331 4.31918022 -0.25 7.6875 C-2 11 -2 11 -5 12 C-3.68938409 7.76570244 -2.05643741 3.92592596 0 0 Z " fill="#393939" transform="translate(1088,495)"/>
<path d="M0 0 C0.66 0.99 1.32 1.98 2 3 C1.01 4.98 0.02 6.96 -1 9 C-1.99 9 -2.98 9 -4 9 C-2.94124926 5.59687262 -1.99097846 2.98646769 0 0 Z " fill="#D39008" transform="translate(1205,416)"/>
<path d="M0 0 C1.32 0 2.64 0 4 0 C4.33 1.65 4.66 3.3 5 5 C3.0625 5.5625 3.0625 5.5625 1 6 C0 5 0 5 -0.0625 2.4375 C-0.041875 1.633125 -0.02125 0.82875 0 0 Z " fill="#E8E7E8" transform="translate(825,627)"/>
<path d="M0 0 C0 0.99 0 1.98 0 3 C-2.875 3.1875 -2.875 3.1875 -6 3 C-6.66 2.01 -7.32 1.02 -8 0 C-4.71023192 -1.09658936 -3.28696233 -0.79953138 0 0 Z " fill="#DBDBDB" transform="translate(1112,649)"/>
<path d="M0 0 C2.64 0 5.28 0 8 0 C8 0.99 8 1.98 8 3 C5.21176345 4.0326802 4.1322726 4.04509293 1.25 3.0625 C0.5075 2.711875 -0.235 2.36125 -1 2 C-0.67 1.34 -0.34 0.68 0 0 Z " fill="#191919" transform="translate(919,644)"/>
<path d="M0 0 C0.78375 0.04125 1.5675 0.0825 2.375 0.125 C2.705 0.785 3.035 1.445 3.375 2.125 C2.446875 2.393125 1.51875 2.66125 0.5625 2.9375 C-2.38740366 4.03648371 -3.68115186 4.74918561 -5.625 7.125 C-4.53409091 0.21590909 -4.53409091 0.21590909 0 0 Z " fill="#1F1F1F" transform="translate(1164.625,635.875)"/>
<path d="M0 0 C0.33 0.66 0.66 1.32 1 2 C1.66 2.33 2.32 2.66 3 3 C2.25 5.4375 2.25 5.4375 1 8 C-0.32 8.33 -1.64 8.66 -3 9 C-2.01 6.03 -1.02 3.06 0 0 Z " fill="#D9D8D8" transform="translate(894,632)"/>
<path d="M0 0 C0.66 0.99 1.32 1.98 2 3 C1.2575 4.1446875 1.2575 4.1446875 0.5 5.3125 C-1.24368308 7.92363751 -1.24368308 7.92363751 -1 11 C-1.99 11 -2.98 11 -4 11 C-3.52269162 9.5410574 -3.04308958 8.08286504 -2.5625 6.625 C-2.29566406 5.81289063 -2.02882813 5.00078125 -1.75390625 4.1640625 C-1 2 -1 2 0 0 Z " fill="#333333" transform="translate(554,374)"/>
<path d="M0 0 C0.66 0.33 1.32 0.66 2 1 C-0.31 3.64 -2.62 6.28 -5 9 C-5.66 8.34 -6.32 7.68 -7 7 C-4.69 4.69 -2.38 2.38 0 0 Z " fill="#E6E5E6" transform="translate(436,329)"/>
<path d="M0 0 C0.94875 0.04125 1.8975 0.0825 2.875 0.125 C0.91117993 1.63059539 -0.90763366 3.01631683 -3.125 4.125 C-3.78055119 6.65233235 -3.78055119 6.65233235 -4.125 9.125 C-4.455 9.125 -4.785 9.125 -5.125 9.125 C-5.25 5.75 -5.25 5.75 -5.125 2.125 C-3.125 0.125 -3.125 0.125 0 0 Z " fill="#333434" transform="translate(942.125,636.875)"/>
<path d="M0 0 C1.4540625 0.0309375 1.4540625 0.0309375 2.9375 0.0625 C0.625 2.5625 0.625 2.5625 -2.0625 5.0625 C-3.0525 5.0625 -4.0425 5.0625 -5.0625 5.0625 C-3.9375 0.08035714 -3.9375 0.08035714 0 0 Z " fill="#DADADA" transform="translate(978.0625,633.9375)"/>
<path d="M0 0 C0.66 0.66 1.32 1.32 2 2 C-0.97 4.475 -0.97 4.475 -4 7 C-4.66 6.34 -5.32 5.68 -6 5 C-4.02 3.35 -2.04 1.7 0 0 Z " fill="#131314" transform="translate(330,467)"/>
<path d="M0 0 C0.66 0 1.32 0 2 0 C2.33 1.98 2.66 3.96 3 6 C1.35 6.66 -0.3 7.32 -2 8 C-1.34 5.36 -0.68 2.72 0 0 Z " fill="#262526" transform="translate(599,637)"/>
<path d="M0 0 C1.65 0 3.3 0 5 0 C5 1.32 5 2.64 5 4 C3.35 4 1.7 4 0 4 C0 2.68 0 1.36 0 0 Z " fill="#111010" transform="translate(1226,634)"/>
<path d="M0 0 C0.66 0.66 1.32 1.32 2 2 C-3.14285714 6.42857143 -3.14285714 6.42857143 -7 7 C-4.66666667 4.66666667 -2.33333333 2.33333333 0 0 Z " fill="#E2E1E3" transform="translate(451,316)"/>
<path d="M0 0 C2 3 2 3 2 5 C2.66 5.33 3.32 5.66 4 6 C3.01 6 2.02 6 1 6 C1 5.34 1 4.68 1 4 C0.01 4.33 -0.98 4.66 -2 5 C-4.6875 4.5625 -4.6875 4.5625 -7 4 C-7 3.67 -7 3.34 -7 3 C-5.5459375 2.5359375 -5.5459375 2.5359375 -4.0625 2.0625 C-1.15934208 1.30476658 -1.15934208 1.30476658 0 0 Z " fill="#C7C6C7" transform="translate(949,646)"/>
<path d="M0 0 C3.16115776 1.36983503 3.9927092 1.9890638 6 5 C5.625 7.1875 5.625 7.1875 5 9 C4.38125 8.05125 3.7625 7.1025 3.125 6.125 C1.18029031 3.05554891 1.18029031 3.05554891 -1 1 C-0.67 0.67 -0.34 0.34 0 0 Z " fill="#ACACAC" transform="translate(673,634)"/>
<path d="M0 0 C2.31 0 4.62 0 7 0 C5.25 2 5.25 2 3 4 C1.68 4 0.36 4 -1 4 C-0.67 2.68 -0.34 1.36 0 0 Z " fill="#2D2D2E" transform="translate(1184,636)"/>
<path d="M0 0 C0.66 0.33 1.32 0.66 2 1 C1.34 2.32 0.68 3.64 0 5 C-1.32 5 -2.64 5 -4 5 C-2.68 3.35 -1.36 1.7 0 0 Z " fill="#161616" transform="translate(344,454)"/>
<path d="M0 0 C1.98 0.66 3.96 1.32 6 2 C4.75 3.5 4.75 3.5 3 5 C1.68 5 0.36 5 -1 5 C-0.67 3.35 -0.34 1.7 0 0 Z " fill="#E7E7E7" transform="translate(519,381)"/>
<path d="M0 0 C1.98 0 3.96 0 6 0 C4.49336217 3.01327566 1.96833589 3.61056618 -1 5 C-0.67 3.35 -0.34 1.7 0 0 Z " fill="#F5F5F6" transform="translate(1182,634)"/>
<path d="M0 0 C0 0.33 0 0.66 0 1 C-1.1446875 1.1546875 -1.1446875 1.1546875 -2.3125 1.3125 C-5.17059424 2.04364039 -6.15742885 2.76951913 -8 5 C-8.66 4.67 -9.32 4.34 -10 4 C-9.67 3.01 -9.34 2.02 -9 1 C-5.8035914 -0.06546953 -3.34252724 -0.07427838 0 0 Z " fill="#B5B5B6" transform="translate(1168,633)"/>
<path d="M0 0 C-1.485 1.485 -1.485 1.485 -3 3 C-3.33 2.67 -3.66 2.34 -4 2 C-5.34747084 1.76924918 -6.70377565 1.58846937 -8.0625 1.4375 C-9.361875 1.293125 -10.66125 1.14875 -12 1 C-12 0.67 -12 0.34 -12 0 C-10.56359829 -0.19573608 -9.12580496 -0.38127816 -7.6875 -0.5625 C-6.88699219 -0.66691406 -6.08648438 -0.77132812 -5.26171875 -0.87890625 C-3 -1 -3 -1 0 0 Z " fill="#515052" transform="translate(1236,631)"/>
<path d="M0 0 C0.66 0.33 1.32 0.66 2 1 C0.35 2.98 -1.3 4.96 -3 7 C-4.32 6.67 -5.64 6.34 -7 6 C-4.69 4.02 -2.38 2.04 0 0 Z " fill="#251903" transform="translate(1351,540)"/>
<path d="M0 0 C0.66 0.66 1.32 1.32 2 2 C1 3 1 3 -0.84765625 3.09765625 C-2.8984375 3.06510417 -4.94921875 3.03255208 -7 3 C-6.67 2.34 -6.34 1.68 -6 1 C-3.0625 0.25 -3.0625 0.25 0 0 Z " fill="#A2A1A3" transform="translate(698,649)"/>
<path d="M0 0 C1.98 0 3.96 0 6 0 C6 0.99 6 1.98 6 3 C3.03 2.505 3.03 2.505 0 2 C0 1.34 0 0.68 0 0 Z " fill="#F4F4F4" transform="translate(1022,638)"/>
<path d="M0 0 C-3.44450737 2.29633824 -5.93812283 2.54016485 -10 3 C-4.375 -1.3125 -4.375 -1.3125 0 0 Z " fill="#E39C0B" transform="translate(1318,530)"/>
<path d="M0 0 C3.36591866 1.44253657 5.51047079 3.33264727 8 6 C4.06830895 6 2.83572772 4.60580385 0 2 C0 1.34 0 0.68 0 0 Z " fill="#DE9E0C" transform="translate(1333,414)"/>
</svg>
